<svg width="100" height="30" viewBox="0 0 100 30" fill="none" xmlns="http://www.w3.org/2000/svg">
<g opacity="0.4">
<path fill-rule="evenodd" clip-rule="evenodd" d="M62.3763 23.4977C56.6389 27.7399 48.2935 30 41.0957 30C31.0118 30 21.971 26.2794 15.0861 20.09C14.5645 19.6032 15.0166 18.9425 15.6772 19.325C23.0837 23.6367 32.2288 26.2099 41.6868 26.2099C48.0501 26.2099 55.0741 24.8885 61.5418 22.1415C62.5154 21.759 63.3151 22.8022 62.3763 23.4977Z" fill="black"/>
<path fill-rule="evenodd" clip-rule="evenodd" d="M64.7758 20.7505C64.0456 19.8117 59.9077 20.2985 58.0648 20.5419C57.5084 20.6114 57.4041 20.1246 57.9257 19.7769C61.229 17.4471 66.6187 18.1426 67.2446 18.9076C67.8705 19.6726 67.0708 25.097 63.976 27.6702C63.4892 28.0527 63.0372 27.844 63.2458 27.3225C63.9413 25.5838 65.506 21.7241 64.7758 20.7505Z" fill="black"/>
<path fill-rule="evenodd" clip-rule="evenodd" d="M58.169 3.43387V1.17367C58.169 0.825953 58.4124 0.617317 58.7253 0.617317H68.8092C69.1222 0.617317 69.4004 0.860725 69.4004 1.17367V3.08615C69.4004 3.39909 69.1222 3.81636 68.6354 4.51181L63.4196 11.9531C65.3668 11.9183 67.4184 12.1965 69.157 13.1701C69.5395 13.3787 69.6438 13.7264 69.6786 14.0394V16.4387C69.6786 16.7864 69.3308 17.1689 68.9483 16.9602C65.8536 15.326 61.7157 15.1521 58.3081 16.995C57.9603 17.1689 57.5778 16.8212 57.5778 16.4734V14.1785C57.5778 13.8307 57.5778 13.2049 57.9603 12.6485L64.0107 3.99022H58.7601C58.4471 3.99022 58.169 3.74682 58.169 3.43387ZM21.4148 17.4471H18.3548C18.0766 17.4123 17.8332 17.2036 17.7985 16.9255V1.20845C17.7985 0.895499 18.0766 0.652092 18.3896 0.652092H21.2409C21.5539 0.652092 21.7625 0.895497 21.7973 1.17367V3.22523H21.8668C22.597 1.24322 24.0227 0.30437 25.9004 0.30437C27.8128 0.30437 29.0299 1.24322 29.8644 3.22523C30.5946 1.24322 32.2985 0.30437 34.1066 0.30437C35.3932 0.30437 36.7841 0.825953 37.6534 2.04298C38.627 3.36432 38.4184 5.2768 38.4184 6.98063V16.9255C38.4184 17.2384 38.1402 17.4818 37.8272 17.4818H34.8021C34.4891 17.4471 34.2457 17.2036 34.2457 16.9255V8.58015C34.2457 7.91948 34.3153 6.25041 34.1762 5.62451C33.9328 4.58135 33.2721 4.2684 32.368 4.2684C31.6378 4.2684 30.838 4.75521 30.5251 5.55497C30.2121 6.35473 30.2469 7.67607 30.2469 8.58015V16.9255C30.2469 17.2384 29.9687 17.4818 29.6558 17.4818H26.5958C26.2829 17.4471 26.0395 17.2036 26.0395 16.9255V8.58015C26.0395 6.84154 26.3176 4.23362 24.1618 4.23362C21.9711 4.23362 22.0407 6.73722 22.0407 8.58015V16.9255C22.0059 17.2036 21.7625 17.4471 21.4148 17.4471ZM78.0934 0.30437C82.6486 0.30437 85.1174 4.19885 85.1174 9.17128C85.1174 13.9698 82.4052 17.7948 78.0934 17.7948C73.6426 17.7948 71.2085 13.9003 71.2085 9.03219C71.1738 4.12931 73.6426 0.30437 78.0934 0.30437ZM78.0934 3.53818C75.8332 3.53818 75.6942 6.63291 75.6942 8.54538C75.6942 10.4579 75.6594 14.561 78.0587 14.561C80.4232 14.561 80.5623 11.2576 80.5623 9.24083C80.5623 7.91948 80.4927 6.31996 80.1102 5.06816C79.7625 3.95545 79.0671 3.53818 78.0934 3.53818ZM90.9939 17.4471H87.934C87.621 17.4123 87.3776 17.1689 87.3776 16.8907V1.1389C87.4124 0.860723 87.6558 0.617317 87.9687 0.617317H90.8201C91.0982 0.617317 91.3069 0.825957 91.3764 1.06936V3.46864H91.446C92.3153 1.31277 93.4975 0.30437 95.6186 0.30437C96.9747 0.30437 98.3308 0.791176 99.2002 2.14729C99.9999 3.39909 99.9999 5.5202 99.9999 7.05017V16.9602C99.9651 17.2384 99.7217 17.4471 99.4088 17.4471H96.3488C96.0707 17.4123 95.8272 17.2037 95.7925 16.9602V8.40629C95.7925 6.66768 96.0011 4.16409 93.88 4.16409C93.1498 4.16409 92.4543 4.6509 92.1066 5.41589C91.6894 6.38951 91.6198 7.32835 91.6198 8.40629V16.8907C91.585 17.2037 91.3069 17.4471 90.9939 17.4471ZM50.1366 9.93627C50.1366 11.1185 50.1714 12.1269 49.5802 13.2049C49.0934 14.0742 48.3284 14.5957 47.4591 14.5957C46.2769 14.5957 45.5814 13.6917 45.5814 12.3703C45.5814 9.76241 47.9112 9.27559 50.1366 9.27559V9.93627ZM53.2313 17.4123C53.0227 17.5862 52.7445 17.6209 52.5011 17.4818C51.4927 16.6473 51.2841 16.23 50.7277 15.4303C49.0587 17.1341 47.8416 17.6557 45.6857 17.6557C43.1126 17.6557 41.0958 16.0562 41.0958 12.8919C41.0958 10.3883 42.4519 8.71924 44.3644 7.8847C46.0335 7.15449 48.3632 7.01541 50.1366 6.80677V6.42428C50.1366 5.69406 50.2061 4.82476 49.7541 4.19886C49.3716 3.6425 48.6762 3.39909 48.0503 3.39909C46.868 3.39909 45.8248 3.99023 45.5814 5.24202C45.5119 5.5202 45.338 5.79837 45.0599 5.79837L42.1042 5.48542C41.8608 5.41588 41.5826 5.24202 41.6522 4.85953C42.3476 1.24322 45.5814 0.165283 48.5023 0.165283C49.9975 0.165283 51.9447 0.547775 53.127 1.69526C54.6222 3.08615 54.4831 4.96385 54.4831 6.98063V11.7444C54.4831 13.1701 55.0742 13.796 55.6306 14.5957C55.8392 14.8739 55.874 15.2216 55.6306 15.3955C54.9699 15.9171 53.8572 16.8907 53.2313 17.4123ZM9.97471 9.93627C9.97471 11.1185 10.0095 12.1269 9.41836 13.2049C8.93155 14.0742 8.16656 14.5957 7.29725 14.5957C6.115 14.5957 5.41955 13.6917 5.41955 12.3703C5.41955 9.76241 7.74929 9.27559 9.97471 9.27559V9.93627ZM13.0347 17.4123C12.826 17.5862 12.5479 17.6209 12.3044 17.4818C11.2961 16.6473 11.0874 16.23 10.5311 15.4303C8.862 17.1341 7.64497 17.6557 5.4891 17.6557C2.91596 17.6557 0.89917 16.0562 0.89917 12.8919C0.89917 10.3883 2.25528 8.71924 4.16775 7.8847C5.83682 7.15449 8.16656 7.01541 9.93994 6.80677V6.42428C9.93994 5.69406 10.0095 4.82476 9.55744 4.19886C9.17495 3.6425 8.47951 3.39909 7.85361 3.39909C6.67135 3.39909 5.62819 3.99023 5.38478 5.24202C5.31524 5.5202 5.14138 5.79837 4.8632 5.79837L1.90756 5.48542C1.66416 5.41588 1.38598 5.24202 1.45553 4.85953C2.15097 1.24322 5.38478 0.165283 8.30565 0.165283C9.80085 0.165283 11.7481 0.547775 12.9304 1.69526C14.4256 3.08615 14.2865 4.96385 14.2865 6.98063V11.7444C14.2865 13.1701 14.8776 13.796 15.4339 14.5957C15.6426 14.8739 15.6774 15.2216 15.4339 15.3955C14.7733 15.9171 13.6606 16.8907 13.0347 17.4123Z" fill="black"/>
</g>
</svg>
