<svg width="1440" height="749" viewBox="0 0 1440 749" fill="none" xmlns="http://www.w3.org/2000/svg">
<g clip-path="url(#clip0_1_80)">
<rect width="1440" height="749" fill="white"/>
<rect y="-1" width="1440" height="750" fill="url(#paint0_radial_1_80)"/>
<rect opacity="0.1" x="143.5" y="372.5" width="158" height="417" rx="79" transform="rotate(-180 143.5 372.5)" stroke="white"/>
<circle r="240.432" transform="matrix(-1 0 0 1 1010.43 431.705)" fill="url(#paint1_radial_1_80)"/>
<g style="mix-blend-mode:luminosity" opacity="0.2" filter="url(#filter0_d_1_80)">
<path d="M1115.1 215.605C1115.18 215.585 1115.28 215.624 1115.44 215.664C1115.97 215.86 1116.75 216.253 1116.86 216.332C1116.98 216.411 1118.35 217.551 1118.35 217.551C1118.43 217.61 1118.51 217.688 1118.47 217.727C1118.47 217.727 1117.81 218.003 1115.84 216.647C1114.77 215.9 1114.89 215.624 1115.1 215.605Z" fill="url(#paint2_radial_1_80)"/>
<path d="M1118.27 214.347C1118.33 214.308 1118.37 214.347 1118.43 214.367C1118.76 214.485 1119.49 214.838 1119.63 214.917C1119.79 214.996 1119.91 215.173 1119.87 215.192C1119.81 215.232 1119.47 215.133 1119.18 214.956C1119.04 214.917 1118.31 214.465 1118.27 214.347Z" fill="url(#paint3_radial_1_80)"/>
<path d="M1112.49 211.792C1111.92 211.654 1111.92 211.654 1111.35 211.418C1111.29 211.398 1110.77 211.182 1109.94 210.75C1109.94 210.75 1108.99 210.259 1108.84 210.141C1108.89 210.121 1108.89 210.121 1109.05 210.16C1109.09 210.18 1112.57 211.418 1115.78 213.108L1114 212.42C1113.5 212.204 1113.05 211.909 1112.49 211.792Z" fill="url(#paint4_radial_1_80)"/>
<path d="M1116.21 213.894C1116.23 213.894 1116.25 213.875 1116.27 213.875C1116.19 213.796 1116.15 213.776 1114.85 213.226C1114.39 213.029 1113.8 212.774 1113.46 212.617C1113.4 212.577 1113.32 212.538 1113.29 212.499C1113.36 212.518 1113.48 212.538 1113.56 212.558C1117.38 213.776 1120.34 215.742 1120.86 216.194C1120.56 216.253 1116.49 214.287 1116.25 214.11C1116.27 214.012 1116.23 213.953 1116.21 213.894Z" fill="url(#paint5_radial_1_80)"/>
<path d="M1112.35 213.521C1112.28 213.462 1112.2 213.423 1112.14 213.364C1112 213.246 1111.9 213.108 1111.78 212.99C1111.56 212.774 1111.31 212.597 1111.09 212.381C1110.95 212.263 1110.95 212.224 1110.95 212.204C1110.97 212.184 1110.99 212.184 1111.07 212.204C1111.84 212.459 1113.19 213.442 1113.26 213.56V213.58C1113.15 213.639 1113.15 213.639 1113.48 214.11C1113.34 214.13 1112.35 213.521 1112.35 213.521Z" fill="url(#paint6_radial_1_80)"/>
<path d="M1121.89 220.517C1121.97 220.497 1122.05 220.537 1122.12 220.556C1122.46 220.655 1122.78 220.812 1122.78 220.812C1123.69 221.264 1124.75 222.05 1124.81 222.148C1124.81 222.148 1124.81 222.168 1124.79 222.168C1124.64 222.168 1122.92 221.48 1122.2 220.969C1121.95 220.773 1121.71 220.537 1121.89 220.517Z" fill="url(#paint7_radial_1_80)"/>
<path d="M1120.17 224.41C1120.27 224.351 1120.35 224.272 1120.86 224.351C1120.94 224.37 1121.06 224.39 1121.14 224.39C1121.97 224.547 1122.8 224.724 1123.63 224.881C1124.66 225.098 1127.94 226.67 1128.39 227.299C1128.39 227.318 1128.37 227.358 1128.37 227.377C1128.1 227.456 1127.82 227.318 1127.54 227.495C1127.15 227.771 1127.27 227.947 1127.35 228.085C1127.5 228.321 1129.68 229.932 1130.27 230.247C1130.51 230.385 1130.55 230.365 1130.69 230.365C1130.85 229.736 1130.07 229.52 1130.06 228.969C1130.47 229.028 1132.51 230.109 1132.74 230.66C1132.76 230.719 1132.8 230.817 1132.78 230.876C1132.67 231.348 1132.39 231.76 1132.31 232.252C1132.27 232.448 1132.15 232.605 1132.15 232.802C1132.15 233.156 1132.37 233.47 1132.33 233.844C1132.31 233.903 1132.29 233.981 1132.25 234.021C1131.64 234.669 1126.08 231.446 1124.58 229.932C1124.24 229.598 1123.27 227.692 1123.9 227.712C1124.6 227.731 1125.21 228.065 1125.88 228.223C1124.58 227.358 1123.13 226.768 1121.83 225.884C1121.83 225.903 1120.19 224.528 1120.17 224.41Z" fill="url(#paint8_radial_1_80)"/>
<path d="M1136.09 224.173C1133.67 223.092 1131.64 221.402 1129.28 220.262C1131.68 221.756 1131.68 221.756 1131.8 221.893L1123.71 217.314C1123.55 217.216 1123.31 217.078 1123.05 216.783C1123.13 216.764 1123.27 216.803 1123.35 216.842C1125.07 217.609 1136.52 223.721 1138.97 225.706C1137.75 225.549 1137 224.566 1135.97 224.075C1135.99 224.095 1136.05 224.154 1136.09 224.173Z" fill="url(#paint9_radial_1_80)"/>
<path d="M1136.07 241.135C1136.11 241.135 1136.15 241.135 1136.16 241.155C1136.28 241.194 1136.44 241.273 1136.7 241.469C1137.75 242.275 1138.54 243.376 1139.68 244.064C1141.58 245.223 1142.16 245.577 1142.24 245.852C1142.22 245.872 1142.2 245.892 1142.2 245.892C1142.04 245.911 1141.92 245.892 1141.44 245.793C1140.71 245.636 1140.63 245.636 1140.5 245.734C1140.24 245.911 1140.3 246.304 1139.96 246.422C1139.86 246.462 1139.33 246.403 1138.81 246.304C1135.53 245.695 1134.17 244.359 1134.17 244.339C1133.79 243.906 1134.72 242.216 1134.72 242.216C1135.14 241.548 1135.95 241.135 1136.07 241.135Z" fill="url(#paint10_radial_1_80)"/>
<path d="M1131.46 227.378C1131.54 227.378 1131.7 227.378 1132.01 227.457C1133.77 227.928 1135.04 229.009 1135.1 229.167C1135.1 229.186 1135.08 229.186 1135.08 229.186C1134.9 229.186 1134.72 229.108 1134.55 229.167C1134.51 229.285 1134.49 229.304 1134.66 229.658C1134.76 229.874 1135.04 230.444 1134.68 230.326C1134.09 230.149 1132.35 228.616 1132.15 228.439C1131.32 227.732 1131.12 227.398 1131.46 227.378Z" fill="url(#paint11_radial_1_80)"/>
<path d="M1053.25 195.754C1054.41 197.189 1057.5 198.014 1059.14 198.446C1059.22 198.486 1067.56 200.884 1067.92 201.375C1070.21 204.461 1064.44 205.443 1064.36 205.424C1050 204.382 1049.83 204.539 1048.82 205.404C1048.74 205.463 1042.07 212.833 1044.23 216.843C1045.1 218.474 1045.1 218.533 1045.06 218.749C1044.9 219.614 1043.85 219.673 1043.56 220.4C1043.1 221.52 1043.56 222.798 1042.94 223.879C1041.05 223.447 1039.52 221.481 1037.27 222.483C1033.41 224.193 1035.19 227.259 1035.23 227.299C1036.81 229.166 1039.68 229.068 1041.1 231.171C1041.9 232.33 1042.65 235.495 1042.07 237.342C1041.8 238.226 1030.58 257.094 1025.21 258.903C1027.89 219.653 1029.87 201.807 1032.6 193.336C1030.15 200.785 1028.17 215.428 1025.21 258.903C1011.76 261.458 1011.48 261.143 1010.63 260.18C1009.21 258.588 1006.77 246.383 1006.75 246.265C1006.4 244.476 1007.35 242.57 1006.32 240.821C1005.77 239.917 1005.71 239.897 1002.34 238.895C991.765 235.711 991.765 235.711 991.488 233.706C991.211 231.642 991.053 230.522 989.135 229.559C984.507 227.24 979.208 226.906 974.6 224.547C972.721 223.584 970.645 222.955 968.904 221.737C968.865 221.717 967.995 221.088 969.082 219.693C970.665 217.668 973.057 216.509 974.56 214.425C975.529 213.089 975.49 211.418 976.162 209.983C976.933 208.313 976.597 207.861 975.648 206.917C974.343 205.601 975.252 205.07 977.942 203.498C986.722 198.348 986.801 198.211 987.553 197.051C987.513 196.933 987.454 196.795 987.395 196.678C987.256 196.619 987.078 196.56 986.94 196.501C989.511 194.005 994.711 195.99 995.977 191.233C996.234 191.096 996.59 190.919 996.847 190.801C996.808 190.585 996.729 190.29 996.669 190.074C996.551 190.054 996.412 190.015 996.313 189.976C997.46 189.818 1000.78 189.602 1000.82 189.602C1003.06 189.484 1005.86 189.956 1006.4 190.054C1008.32 190.388 1009.96 189.15 1011.82 189.071C1014.41 188.973 1020.14 188.973 1022.42 189.091C1026.61 189.327 1026.61 189.327 1027.1 189.641C1027.1 189.641 1027.1 189.641 1027.12 189.641C1031.69 189.897 1031.69 189.897 1033.87 190.31H1033.89C1033.93 190.31 1033.99 190.29 1034.01 190.329C1034.01 190.349 1033.99 190.349 1033.97 190.349C1033.93 190.349 1033.87 190.369 1033.83 190.369C1031.16 190.565 1031.16 190.565 1030.37 190.762C1030.58 190.781 1030.58 190.781 1033.57 190.742C1034.8 190.722 1035.25 190.722 1036.69 190.86C1047.41 192.059 1055.11 195.479 1055.18 195.518C1054.79 195.773 1054.79 195.773 1053.25 195.754Z" fill="url(#paint12_radial_1_80)"/>
<path d="M1093.79 240.781C1093.23 239.327 1093.49 238.678 1094.5 238.836C1094.54 238.836 1097.58 239.641 1098.16 240.997C1098.47 241.784 1097.21 243.808 1096.69 244.122C1095.43 244.909 1093.79 240.821 1093.79 240.781Z" fill="url(#paint13_radial_1_80)"/>
<path d="M1072.01 197.758C1072.69 198.034 1073.38 198.269 1074.09 198.525C1071.9 198.014 1064.8 196.068 1063.65 195.754C1068.39 197.326 1072.15 198.564 1076.17 199.409C1077.1 199.606 1077.39 199.822 1077.75 200.097C1077.75 200.372 1078.12 201.729 1078.82 202.338C1080.93 201.709 1086.43 204.873 1086.65 205.05C1086.15 205.266 1085.6 205.168 1085.12 205.463C1085.14 205.541 1085.18 205.62 1085.2 205.699C1084.49 205.6 1084.24 205.581 1081.88 204.716C1085.94 206.917 1086.41 206.387 1086.71 206.052C1089.77 206.131 1089.95 207.291 1090.03 207.841C1091.77 208.981 1094.04 209.099 1095.59 210.612C1095.55 210.671 1095.49 210.769 1095.43 210.828C1094.93 210.848 1094.6 210.868 1091.39 210.239C1089.04 209.767 1086.94 208.116 1084.35 208.686C1084.55 209.138 1084.55 209.138 1085.09 209.551C1083.36 209.885 1077.83 207.232 1078.34 205.876C1078.52 205.817 1078.78 205.758 1078.96 205.718C1078.54 205.148 1074.88 202.849 1074.07 202.652C1069.15 201.473 1067.41 199.626 1067.37 199.213C1067.45 199.193 1067.54 199.154 1067.62 199.134C1063.06 197.955 1060.96 197.405 1059.56 196.481C1059.93 196.461 1059.93 196.461 1060.72 196.599C1060.68 196.579 1050.38 193.395 1049.85 193.238C1052.52 193.611 1052.67 193.631 1053.68 193.71C1051.13 193.041 1048.5 192.648 1045.93 192C1048.4 192 1052.54 192.511 1052.57 192.53C1052.67 192.55 1062.6 194.221 1064.74 195.046C1064.66 195.164 1064.48 195.302 1064.34 195.361C1064.76 195.479 1065.11 195.596 1066.16 195.459C1066.89 195.361 1075.42 197.424 1076.31 198.486C1075.83 198.682 1075.71 198.721 1072.01 197.758Z" fill="url(#paint14_radial_1_80)"/>
<path d="M1111.94 214.838C1112.14 215.113 1112.26 215.427 1112.48 215.683C1112.79 216.037 1112.83 216.076 1113.88 216.882C1113.78 216.626 1113.64 216.272 1113.52 216.017C1113.48 215.879 1113.4 215.761 1113.4 215.604C1113.48 215.565 1114.35 215.643 1115.24 216.567C1115.15 216.567 1115.05 216.567 1114.95 216.548C1114.95 216.567 1114.95 216.626 1114.95 216.646C1115.98 217.511 1117.36 217.648 1118.49 218.297C1118.31 218.395 1118.13 218.179 1117.95 218.297C1118.09 218.592 1118.09 218.592 1118.09 218.651C1117.89 218.71 1117.89 218.71 1114.59 217.629C1115.64 218.199 1118.41 219.732 1118.63 220.4C1118.61 220.419 1118.61 220.439 1118.59 220.439C1118.57 220.439 1114.85 219.063 1114.37 218.808C1114.06 218.631 1114.06 218.631 1111.96 216.803C1111.94 216.842 1111.9 216.921 1111.96 217.118C1111.96 217.137 1111.98 217.157 1112 217.176C1111.03 216.272 1111.03 216.272 1108.5 214.169C1107.95 213.717 1107.91 213.698 1107.83 213.54C1107.99 213.501 1107.99 213.501 1108.2 213.54C1108.22 213.54 1111.51 214.504 1111.84 214.7C1111.88 214.779 1111.92 214.818 1111.94 214.838Z" fill="url(#paint15_radial_1_80)"/>
<path d="M1075.93 241.018C1074.41 240.88 1071.02 245.126 1070.99 245.165C1070.17 246.207 1069.34 247.288 1068.57 247.15C1066.46 246.757 1063.29 238.718 1063.27 238.64C1063.19 238.384 1063.11 238.05 1063.13 237.795L1078.6 234.316C1078.16 233.982 1077.75 233.667 1074.03 232.016C1072.41 231.309 1071.58 230.935 1071.64 230.523C1071.76 229.422 1077.19 224.312 1079.83 223.879C1080.99 223.703 1082.24 224.056 1083.36 223.486C1084.57 222.897 1084.41 220.951 1086.07 220.833C1087.58 220.715 1090.84 221.934 1093.21 222.818C1095.63 223.722 1095.65 223.722 1096.02 223.703C1096.18 223.309 1096.36 222.916 1096.5 219.418C1097.46 219.025 1100.53 219.556 1101.44 219.713C1106.09 220.794 1119.97 232.35 1117.36 234.119C1114.77 235.868 1105.87 234.06 1104.68 233.49C1104.86 232.743 1104.98 232.252 1101.1 231.839C1097.82 231.486 1097.33 230.699 1096.99 230.169C1096.2 230.582 1094.06 232.409 1094.06 232.429C1092.94 233.628 1092.46 235.259 1091.39 236.517C1090.07 238.109 1086.98 237.932 1086.96 240.841C1086.96 240.9 1087.64 247.425 1096.77 250.157C1099.5 250.963 1102.49 250.806 1105.08 252.181C1106.23 252.791 1106.26 254.717 1105.93 254.992C1105.43 255.444 1103.81 255.641 1099.01 254.029C1095.33 252.791 1095.33 252.791 1088.8 255.641C1089.34 256.191 1089.34 256.191 1091.97 257.174C1090.52 258.431 1079.35 260.751 1077.08 259.493C1077.18 259.139 1077.18 259.139 1077.75 258.864C1078.05 258.726 1078.05 258.726 1083.01 254.127C1079.13 254.54 1077.91 255.031 1075.71 256.525C1075.28 256.82 1074.98 257.036 1074.76 256.957C1073.52 256.584 1071.44 251.906 1072.45 250.884C1074.62 248.644 1078.66 248.938 1079.88 245.44C1080.91 242.571 1075.99 241.018 1075.93 241.018Z" fill="url(#paint16_radial_1_80)"/>
<path d="M1126.46 219.122C1126.32 219.221 1125.45 218.808 1124.75 218.375C1124.62 218.297 1124.36 218.14 1124.32 218.061L1124.34 218.041C1124.38 218.041 1124.42 218.061 1124.44 218.061C1124.77 218.218 1126.44 218.985 1126.46 219.122Z" fill="url(#paint17_radial_1_80)"/>
<path d="M1040.93 227.771L1038.57 227.3C1038.57 227.3 1037.96 227.024 1037.8 226.592C1037.7 226.317 1037.8 226.12 1037.9 225.963C1038.12 225.609 1038.53 225.491 1038.79 225.197C1038.95 225 1038.95 224.823 1038.95 224.705C1038.95 224.666 1038.97 224.627 1038.99 224.607C1038.99 224.607 1039.28 224.41 1040.11 224.509C1041.16 224.725 1044.19 226.474 1042.55 227.476C1042.21 227.712 1041.58 227.909 1040.93 227.771Z" fill="url(#paint18_radial_1_80)"/>
<path d="M1087.22 219.673C1087.2 219.673 1087.18 219.653 1087.16 219.633C1087.4 219.26 1090.7 218.297 1093.13 218.651C1095.27 219.004 1094.6 220.439 1094.1 220.832C1092.48 222.149 1087.28 219.692 1087.22 219.673Z" fill="url(#paint19_radial_1_80)"/>
<path d="M1103.81 208.667C1104.48 208.923 1105.59 209.375 1105.83 209.552C1105.73 209.532 1105.61 209.513 1105.53 209.473C1104.48 209.139 1103.46 209.218 1103.46 209.218C1103.55 209.591 1104.07 209.572 1104.15 209.945C1104.01 210.122 1102.23 209.414 1102.11 209.336C1101.48 209.002 1099.4 207.213 1099.4 206.84C1099.68 206.741 1099.9 206.977 1100.15 206.977C1099.92 206.525 1099.34 206.545 1099.05 206.171C1099.09 206.152 1099.09 206.152 1099.22 206.191C1101.08 206.8 1103.55 207.921 1103.85 208.117C1103.44 208.235 1103.06 207.94 1102.67 207.96C1102.61 208.196 1102.82 208.314 1103.81 208.667Z" fill="url(#paint20_radial_1_80)"/>
<path d="M1112.77 218.474C1113.23 218.788 1113.36 218.887 1112.67 219.319C1112.08 219.692 1110.6 219.358 1109.31 218.277C1108.58 217.648 1107.08 216.135 1107.77 216.056C1107.85 216.056 1107.97 216.076 1108.04 216.096C1109.25 216.43 1112.57 218.336 1112.77 218.474Z" fill="url(#paint21_radial_1_80)"/>
<path d="M1092.48 207.428C1092.48 207.409 1092.5 207.389 1092.52 207.389C1092.58 207.389 1092.64 207.409 1092.68 207.428C1092.72 207.448 1092.78 207.448 1092.84 207.468C1093.79 207.743 1094.72 208.116 1095.67 208.411C1096.77 208.745 1097.9 208.961 1099.01 209.295C1099.8 209.531 1100.27 209.708 1100.43 209.806C1100.14 209.885 1096.93 209.354 1095.21 208.863C1094.36 208.627 1093.95 208.47 1092.78 207.644C1092.66 207.605 1092.56 207.526 1092.48 207.428Z" fill="url(#paint22_radial_1_80)"/>
<path d="M1100.43 209.099C1100.41 209.099 1100.41 209.119 1100.39 209.139C1100.04 209.099 1096.75 207.723 1095.8 207.291C1095.39 207.095 1095.31 207.016 1095.29 206.839C1095.29 206.623 1095.61 206.721 1095.61 206.525C1095.61 206.426 1095.55 206.328 1095.61 206.23C1095.61 206.21 1095.61 206.21 1095.63 206.19C1095.63 206.19 1095.67 206.131 1095.76 206.092C1095.92 206.033 1096 206.073 1096.2 206.131C1096.32 206.19 1096.5 206.269 1096.69 206.407C1097.43 206.918 1097.9 207.723 1098.75 208.038C1099.88 208.451 1100.23 208.588 1100.43 209.099Z" fill="url(#paint23_radial_1_80)"/>
<path d="M1092.8 204.185C1090.46 203.026 1090.46 203.006 1090.42 202.947C1090.5 202.947 1090.58 202.967 1090.66 202.987C1090.68 202.987 1093.01 203.733 1093.69 204.068C1094.46 204.461 1094.2 204.716 1094.2 204.716C1094.04 204.795 1093.51 204.539 1092.8 204.185Z" fill="url(#paint24_radial_1_80)"/>
<path d="M1087.79 203.123C1086.79 202.828 1086.49 202.75 1086.15 202.887C1086.15 202.927 1086.17 202.966 1086.17 203.005C1086.47 203.182 1086.79 203.3 1087.77 203.615C1090.46 204.46 1091.16 204.774 1091.31 204.873C1091.91 205.246 1091.97 205.954 1091.71 206.071C1091.63 206.111 1091.63 206.111 1089.91 205.619C1089.24 205.423 1088.49 205.58 1087.81 205.344C1086.15 204.755 1084.73 203.674 1083.13 202.966C1082.12 202.534 1081.03 202.396 1080.04 201.905C1079.96 201.865 1079.88 201.806 1079.82 201.748C1079.88 201.689 1079.88 201.689 1080.6 201.531C1080.62 201.512 1080.62 201.472 1080.63 201.453C1080.48 201.354 1080.3 201.276 1080.12 201.197C1078.76 200.549 1078.74 200.509 1078.72 200.372C1078.87 200.332 1079.03 200.372 1079.15 200.273C1078.93 199.979 1078.42 199.88 1078.52 199.389C1078.22 199.055 1077.75 198.917 1077.49 198.544C1077.57 198.544 1077.71 198.524 1077.79 198.544C1079.45 198.957 1085.5 201.217 1086.09 201.59C1085.78 201.649 1085.48 201.492 1085.16 201.453C1085.62 201.826 1086.86 202.101 1087.4 202.219C1089.24 202.632 1090.17 203.674 1090.17 203.674C1090.03 203.772 1088.01 203.182 1087.79 203.123Z" fill="url(#paint25_radial_1_80)"/>
<path d="M1106.96 218.552C1106.8 218.552 1089.97 216.823 1085.5 212.44C1084.29 211.241 1087.28 211.084 1087.3 211.084C1088.84 211.044 1096.42 213.639 1097.98 214.268C1099.38 214.838 1100.47 213.54 1100.17 213.206C1100.04 213.049 1099.82 212.99 1099.3 212.833C1096.57 212.066 1097.92 211.202 1098.22 211.202C1098.93 211.162 1099.54 211.575 1100.21 211.673C1101 211.772 1101.78 211.477 1102.59 211.555C1102.82 211.575 1103.61 211.693 1104.13 211.811C1104.54 211.988 1105.87 213.344 1105.85 213.678C1105.51 213.658 1105.47 213.658 1104.82 213.442C1104.07 213.187 1103.02 212.833 1102.8 212.97C1102.39 213.246 1103.73 214.936 1103.79 215.015C1104.62 215.781 1105.77 216.056 1106.52 216.921C1108 218.572 1107.41 218.572 1106.96 218.552Z" fill="url(#paint26_radial_1_80)"/>
<path d="M770.002 425.255C770.378 418.592 770.695 409.689 771.387 403.065C771.683 401.061 771.96 399.233 772.217 397.523C773.819 392.256 773.957 391.41 777.102 372.759C777.062 372.837 777.023 372.936 776.983 372.995C784.676 347.621 784.676 347.621 784.814 346.383C784.775 346.422 784.735 346.461 784.715 346.501C787.425 338.56 788.67 335.848 792.349 327.947L800.575 311.949C802.849 308.961 805.48 306.328 809.355 303.871C805.737 306.151 802.83 308.784 800.575 311.949C803.739 306.799 807.813 299.842 811.175 294.83C825.631 275.235 825.908 274.842 834.866 265.27L844.437 255.64L844.457 255.6C844.813 255.266 845.169 254.952 845.545 254.637C845.129 255.188 844.971 255.404 840.996 259.492C841.728 259.079 842.321 258.529 842.994 258.057C841.866 260.081 839.869 261.221 838.287 262.794C838.386 262.872 838.544 262.971 838.643 263.049C845.327 257.644 851.003 251.139 857.746 245.793C854.384 247.876 851.714 250.962 848.056 252.633C848.926 251.08 859.17 242.275 865.913 238.226C870.758 235.317 871.292 234.826 871.787 234.354C871.51 234.433 871.154 234.57 870.877 234.708C871.411 234.276 871.707 234.04 873.052 233.234C873.151 233.312 873.289 233.43 873.408 233.509C873.843 233.352 874.674 233.037 877.897 230.856C877.601 230.974 877.225 231.092 876.928 231.19C877.482 229.912 883.395 227.22 883.83 227.082C883.553 227.75 883.553 227.75 882.564 228.91C884.621 228.202 885.669 226.04 887.706 225.313C887.33 226.237 886.302 226.689 885.906 227.593C886.658 229.205 886.658 229.205 886.519 230.187C886.321 231.662 881.556 239.995 881.516 240.073C877.956 245.498 878.095 247.385 878.134 247.601C878.827 252.652 878.827 252.652 881.615 254.618C882.643 255.345 882.623 255.699 882.07 257.035C881.991 257.212 874.535 274.547 867.653 271.383C865.439 270.361 866.546 266.725 867.08 264.975C866.506 265.388 854.186 277.554 851.892 281.406C850.805 283.234 849.757 284.964 847.878 284.964C847.502 284.276 847.305 279.46 848.491 277.259C851.24 272.208 850.607 271.618 849.223 270.361C849.183 269.142 849.322 268.69 852.901 266.331C855.373 264.7 855.373 264.7 858.735 259.315C860.02 257.251 857.904 254.677 859.783 252.711C864.727 247.601 864.727 247.601 864.865 247.306C864.944 247.11 865.063 246.854 865.142 246.677C865.063 246.559 864.964 246.402 864.885 246.304C863.046 246.913 856.915 250.942 856.461 252.2C856.619 252.22 856.817 252.239 856.955 252.259C852.189 262.833 852.189 262.833 847.68 267C843.745 270.636 837.773 270.085 833.818 273.682C834.51 273.584 835.083 273.21 835.696 272.975C835.815 273.053 835.973 273.132 836.072 273.21C835.835 273.682 835.518 274.095 835.222 274.547C837.516 273.898 839.711 272.896 842.104 272.581C839.493 276.159 835.775 278.812 833.739 282.841C836.309 282.743 836.487 279.028 839.256 279.244C839.335 279.382 839.434 279.539 839.533 279.677C839.493 279.716 836.408 285.376 836.072 285.789C835.657 286.32 833.561 288.993 833.699 290.192C835.281 290.054 835.281 290.054 835.578 290.133C835.795 290.624 835.874 291.155 836.072 291.646C835.993 291.744 835.874 291.902 835.795 292H835.855C843.112 291.489 843.112 291.489 843.171 292.196C843.468 292.373 843.864 292.629 844.18 292.806C845.683 291.941 847.601 291.41 849.598 290.997L846.098 291.607C846.692 291.174 848.274 289.995 851.101 290.133C852.07 290.172 852.288 290.192 854.977 287.106C856.955 284.846 859.308 281.563 859.17 278.733C859.13 277.574 860.89 272.64 862.215 272.503C862.373 272.503 866.151 272.483 865.498 274.311C865.221 275.097 860.396 283.47 856.955 287.42C855.571 289.012 855.492 289.229 855.472 289.327C855.65 289.523 855.689 289.563 856.718 289.759C857.449 289.877 858.418 290.034 859.15 290.152C859.368 290.447 859.644 290.84 859.862 291.135C863.698 291.017 863.698 291.017 864.766 292.039C864.568 293.081 864.213 295.027 862.907 298.584C863.085 298.918 863.342 299.35 863.52 299.665C866.724 299.586 866.724 299.586 868.543 300.255C868.524 300.431 868.524 300.431 867.159 303.792C867.911 304.303 868.998 304.834 869.868 305.109C869.888 305.895 870.106 306.957 870.422 307.664C874.12 307.487 874.713 307.035 876.335 305.876C875.939 306.583 875.346 307.487 874.871 308.136C874.99 308.49 875.148 308.981 875.247 309.335C875.999 309.649 877.007 310.023 877.798 310.219C879.598 309.079 879.598 309.079 882.485 309.001C882.643 309.335 882.841 309.787 882.999 310.121C882.287 310.75 881.318 311.595 880.587 312.244C880.883 312.46 881.279 312.735 881.575 312.951C864.232 317.747 866.961 335.062 867.06 335.2C875.148 334.63 882.92 332.232 890.969 331.406C890.573 332.094 889.96 332.959 889.406 333.549C889.426 333.765 888.517 355.149 885.748 355.974C886.499 362.578 886.499 362.578 886.638 363.187C881.022 362.755 879.855 362.656 877.442 363.207C876.513 366.98 876.513 366.98 876.473 367.059L863.323 362.715C859.684 362.263 858.774 357.684 860.732 354.618C858.636 346.029 858.537 345.99 853.119 343.867C853.039 336.929 853.039 336.929 852.446 336.457C849.935 334.374 847.977 337.696 845.643 337.715C843.508 333.942 841.728 331.505 838.386 334.354C838.228 334.492 819.856 355.443 818.057 361.32C816.692 365.762 817.325 365.84 825.077 366.902C823.554 369.457 818.867 373.506 818.828 373.525C818.156 371.442 819.481 369.417 819.085 367.354C818.729 367.393 818.274 367.452 817.938 367.511C816.969 366.076 816.574 364.366 815.664 362.892C816.811 358.903 816.811 358.902 816.791 357.448C816.435 357.369 815.98 357.232 815.624 357.153C815.15 357.802 814.537 358.647 814.042 359.276C814.438 357.389 814.438 357.389 820.647 349.98C820.568 349.626 820.45 349.154 820.37 348.8C823.297 347.503 825.591 346.481 833.383 330.679C833.007 330.09 832.255 329.461 831.603 329.205L813.963 349.803C813.904 349.901 813.904 349.901 808.644 364.917L803.047 377.653C802.948 376.906 802.889 375.923 802.889 375.176C802.889 372.149 804.056 369.359 804.649 366.43C806.567 356.976 806.567 356.976 805.618 356.269C803.917 356.623 800.338 358.745 799.606 361.497C799.25 360.848 798.835 359.944 798.598 359.256C798.222 359.237 797.708 359.197 797.352 359.178C796.185 350.569 802.375 343.12 801.307 334.531C800.674 334.315 799.685 334.374 799.072 334.649C799.23 334.964 799.428 335.396 799.567 335.711C798.479 336.968 798.024 337.303 796.759 338.069C796.383 339.582 796.383 339.582 796.798 341.941C795.671 343.218 795.137 344.85 794.168 346.206C789.995 343.808 796.225 339.563 794.979 336.064C793.12 335.671 792.803 336.281 792.27 337.696C792.448 338.03 792.705 338.482 792.883 338.816C792.23 339.858 792.23 339.858 791.281 343.553C791.479 343.847 791.755 344.241 791.973 344.555C788.967 351.925 782.145 357.664 782.421 366.45C782.718 366.627 783.153 366.862 783.469 367.02C787.069 364.622 786.891 356.682 792.724 358.215C792.764 358.902 793.14 359.826 793.614 360.337C794.306 360.101 795.256 359.846 795.948 359.689C795.79 360.337 795.315 361.182 794.821 361.634C796.165 362.774 797.965 362.086 799.428 362.794C799.547 363.58 799.606 364.661 799.586 365.447C799.25 365.546 798.815 365.683 798.479 365.762C797.906 370.164 796.818 378.36 791.36 382.92C791.103 382.664 790.767 382.33 790.51 382.075C790.529 381.721 790.549 381.249 790.549 380.896C788.769 382.37 788.196 384.846 786.119 386.084C785.862 385.396 785.645 384.433 785.566 383.706C785.071 384.217 784.26 384.767 783.588 385.023C782.678 401.69 782.54 404.264 784.379 408.765C786.792 408.569 787.187 408.058 787.958 405.699C788.611 405.719 789.541 406.092 790.015 406.564C798.044 405.974 797.293 394.398 805.677 394.26C807.24 397.032 806.013 400.235 807.081 403.065C807.437 403.203 807.872 403.38 808.228 403.517C809.969 402.26 828.36 385.632 829.665 383.451C830.08 382.782 829.526 381.544 829.091 380.876C828.083 379.284 828.083 379.284 828.854 369.437C830.851 368.12 831.267 367.904 832.473 367.275C834.095 368.494 834.095 368.494 840.818 366.961C841.372 367.491 842.064 368.297 842.46 368.965C851.2 365.585 858.26 375.098 866.942 372.11C867.891 372.031 868.069 372.012 868.227 372.012C870.679 372.503 871.529 372.68 874.199 369.496C874.674 369.162 874.694 369.162 874.713 369.162C875.049 369.457 875.524 369.811 875.801 370.145C877.442 372.13 876.196 374.94 877.798 376.945C879.796 379.421 883.513 379.382 885.352 382.094C885.906 382.9 885.649 384.335 885.689 385.298C886.242 395.793 886.242 395.793 889.09 397.149C891.641 398.368 896.031 401.749 896.565 402.613C898.147 405.149 909.795 425.216 909.795 425.235C910.27 430.601 906.69 435.121 906.611 440.369C906.532 444.771 912.86 446.855 910.863 451.965C907.877 459.61 903.724 466.686 900.164 474.056C898.681 477.162 887.468 487.775 885.352 487.578C874.812 486.596 864.648 482.645 853.85 483.805C853.494 483.844 853.099 484.139 852.822 484.355C850.884 485.967 852.268 488.895 850.37 490.526C848.511 492.138 846.078 491.332 843.982 492C842.598 496.167 842.598 496.167 844.318 500.177C826.184 503.518 814.734 506.545 806.468 510.534C814.616 506.603 826.362 503.459 844.318 500.177C849.104 511.34 849.104 511.34 848.372 514.544C847.225 519.575 845.643 526.474 852.11 541.608C855.096 548.565 860.811 553.695 864.746 560.004C868.405 565.88 868.82 573.015 872.222 579.009C885.392 602.319 885.768 602.712 887.884 604.874C889.327 606.329 890.099 607.154 891.602 610.515C884.858 612.598 876.908 607.213 874.298 605.464L863.837 598.153L850.607 587.677C847.621 584.591 845.841 580.542 842.657 577.614C838.999 574.253 834.134 572.641 830.515 569.202C821.893 561.006 813.904 544.752 813.073 542.728C809.731 534.63 798.341 522.248 794.959 518.671C789.639 512.814 782.5 497.425 780.74 491.391C782.105 490.959 782.105 490.959 784.478 491.45C785.012 490.703 785.012 490.703 783.905 481.073C783.489 477.515 784.3 473.997 784.359 470.44C784.537 461.222 782.738 452.063 783.568 442.845L786.021 413.777C785.427 414.681 785.427 414.681 784.814 418.887C784.181 418.376 783.667 417.334 783.489 416.548C777.497 438.482 783.845 460.475 783.133 482.429C780.721 481.309 780.721 481.309 779.633 481.544C773.226 467.826 773.226 467.826 772.929 466.057C772.988 466.45 773.068 466.961 773.127 467.354C772.988 466.627 772.811 465.664 772.692 464.937L772.573 464.131L771.881 459.06C771.584 456.741 771.228 453.832 770.695 445.951C770.714 446.363 770.714 446.757 770.734 447.13C770.418 440.349 769.963 431.8 770.002 425.255ZM771.505 450.687C771.98 449.685 771.98 449.685 771.624 441.43C771.861 444.044 771.861 444.044 772 445.204C772.633 427.319 772.356 425.687 772 423.427C770.952 424.999 770.517 438.227 770.675 445.833C771.011 448.958 771.149 449.449 771.505 450.687Z" fill="url(#paint27_radial_1_80)"/>
<path d="M776.706 372.563C776.627 372.857 776.528 373.25 776.469 373.545L775.262 378.872C775.282 378.793 775.302 378.695 775.341 378.616C774.926 381.78 774.293 384.905 773.66 388.03C775.5 376.316 776.172 373.919 778.901 364.17C779.395 362.657 779.85 361.242 780.285 359.905C777.477 369.477 777.378 369.87 776.192 374.901C776.35 374.135 776.528 373.349 776.706 372.563Z" fill="url(#paint28_radial_1_80)"/>
<path d="M780.999 357.449C780.88 357.764 780.761 358.058 780.643 358.353C780.999 357.213 781.473 356.093 781.73 354.914C781.592 355.287 781.453 355.661 781.335 356.054L784.182 347.661L784.143 347.779C784.499 346.856 784.578 346.659 784.677 346.521C783.55 349.843 782.185 354.029 780.247 359.945C780.504 359.159 780.741 358.353 780.999 357.449Z" fill="url(#paint29_radial_1_80)"/>
<path d="M771.981 398.29C772.337 394.85 772.989 391.431 773.642 388.05C773.226 390.684 772.772 393.789 772.198 397.543C772.139 397.779 772.06 398.034 771.981 398.29Z" fill="url(#paint30_radial_1_80)"/>
<path d="M908.925 286.124C908.945 286.183 908.984 286.262 909.004 286.321C909.914 288.07 910.566 291.411 910.566 291.45C910.784 292.787 910.725 293.436 910.27 293.986C909.499 294.91 905.919 294.517 903.309 292.866C902.656 292.453 902.043 291.961 901.351 291.608C900.54 291.195 899.433 291.49 898.8 290.625C898.444 290.134 898.583 288.974 899.235 287.205C899.571 286.301 899.947 285.751 900.362 285.161C901.035 284.159 901.074 283.805 900.619 282.763C900.422 282.331 900.105 281.584 900.362 280.66C900.6 279.756 901.312 279.108 901.865 278.734C902.142 278.538 902.538 278.341 902.834 278.184C903.665 277.791 904.574 277.594 905.385 277.221C905.998 276.946 906.196 276.73 906.295 276.612C906.374 276.533 906.374 276.533 906.453 276.533C906.671 276.592 912.089 277.928 908.688 279.815C908.47 279.933 908.352 280.012 907.877 280.051C907.996 280.169 908.213 280.267 908.371 280.346C910.606 281.427 911.14 281.977 911.654 282.488C912.01 282.862 912.406 283.491 912.267 284.473C912.129 284.827 911.931 285.318 911.061 285.751C910.388 286.065 909.617 285.947 908.925 286.124Z" fill="url(#paint31_radial_1_80)"/>
<path d="M1133.54 223.015L1133.52 222.995C1133.52 222.995 1133.52 222.995 1133.54 223.015C1134.05 223.27 1138.36 225.747 1138.58 226.042C1138.36 226.022 1138.12 226.022 1133.54 223.015Z" fill="url(#paint32_radial_1_80)"/>
<path d="M794.86 387.323C794.821 387.303 794.781 387.284 794.742 387.264C794.761 387.244 794.742 387.205 794.761 387.185C794.781 387.166 796.818 384.552 796.818 384.532C797.194 384.119 797.569 384.001 797.708 383.962C798.38 383.805 799.072 383.825 799.725 383.569C800.892 383.137 800.892 383.137 800.991 383.137C801.524 383.176 801.663 383.608 801.346 384.159C800.694 385.358 796.106 387.736 794.86 387.323Z" fill="url(#paint33_radial_1_80)"/>
<path d="M838.405 355.267C837.99 355.719 837.08 355.503 836.902 356.309C836.744 357.036 837.041 357.803 836.843 358.53C836.665 359.139 836.25 359.237 836.072 359.277C835.577 359.395 833.066 358.608 833.026 356.604C833.026 356.388 833.066 356.073 833.086 355.857C833.204 355.031 833.521 354.245 833.639 353.4C833.758 352.516 833.699 351.612 833.837 350.707C834.035 349.292 834.549 349.135 835.043 349.076C835.854 349.096 837.812 349.843 838.504 351.12C838.919 351.887 839.018 354.619 838.405 355.267Z" fill="url(#paint34_radial_1_80)"/>
<path d="M850.884 354.874C850.864 354.874 849.855 353.734 849.855 353.675C849.756 353.263 850.468 352.929 851.714 352.791C853.059 352.653 855.234 352.948 854.384 353.911C853.909 354.442 852.149 355.189 851.418 355.149C851.18 355.149 851.062 355.032 850.884 354.874Z" fill="url(#paint35_radial_1_80)"/>
<path d="M838.426 343.592C838.624 343.769 838.841 343.946 838.762 344.398C838.742 344.555 838.564 344.87 838.406 345.086C838.386 345.105 836.448 347.385 836.31 347.425C835.875 347.208 836.27 343.789 836.666 342C836.666 341.98 837.279 339.268 837.674 339.032C837.694 339.032 837.714 339.032 837.734 339.032C837.754 339.052 837.813 339.13 837.852 339.307C837.872 339.366 837.892 339.425 837.892 339.484C838.05 340.349 837.754 341.175 837.754 342.039C837.734 342.983 838.129 343.336 838.426 343.592Z" fill="url(#paint36_radial_1_80)"/>
<path d="M786.832 393.435C786.832 393.435 785.685 393.651 785.586 393.533C785.408 393.356 785.171 390.781 785.171 390.762C785.171 390.722 785.171 390.644 785.171 390.605C785.171 390.329 785.23 390.31 785.309 390.29C785.645 390.29 785.922 390.506 786.259 390.506C786.476 390.506 786.733 390.428 786.951 390.27C787.247 390.094 787.445 389.759 787.781 389.622C788.058 389.504 788.157 389.661 788.216 389.72C788.533 390.113 788.197 392.098 787.425 393.002C787.168 393.317 786.931 393.415 786.832 393.435Z" fill="url(#paint37_radial_1_80)"/>
<path d="M1157.78 240.977C1157.76 240.997 1157.72 241.036 1157.7 241.056C1157.6 241.036 1157.48 240.997 1157.4 240.938C1156.02 239.994 1154.83 238.835 1153.47 237.872C1151 236.162 1148.33 234.727 1145.89 232.958C1145.32 232.545 1145.32 232.545 1144.61 231.209C1144.63 231.17 1144.65 231.111 1144.67 231.052C1145.54 231.229 1146.15 231.838 1146.9 232.231C1146.27 231.7 1146.27 231.7 1146.17 231.248C1146.21 231.229 1146.25 231.209 1146.27 231.189C1146.35 231.209 1146.47 231.248 1146.57 231.288C1149.61 232.565 1149.61 232.565 1163.04 243.532C1164.21 244.495 1165.13 245.242 1166.1 247.247C1166.06 247.266 1166.02 247.286 1165.99 247.306C1162.78 245.832 1160.53 243.08 1157.78 240.977Z" fill="url(#paint38_radial_1_80)"/>
<path d="M1138.95 228.32C1138.62 228.359 1137.55 227.75 1136.5 227.18C1132.35 224.861 1130.23 223.957 1130.21 223.957C1128.87 223.446 1127.48 223.092 1126.2 222.424C1125.19 221.893 1121.33 219.24 1121.29 219.201C1120.54 218.69 1120.5 218.591 1120.42 218.454C1120.96 218.414 1121.57 218.748 1121.59 218.768C1122.76 219.436 1123.79 220.34 1124.95 221.009C1123.51 219.574 1121.81 218.434 1120.38 216.96C1120.42 216.96 1120.48 216.98 1120.54 216.98C1120.58 216.999 1125.39 219.456 1125.55 220.124C1125.64 220.616 1126.3 221.834 1129.98 222.679C1130 222.66 1130.03 222.62 1130.05 222.601C1129.98 222.483 1129.88 222.385 1129.78 222.286C1129.74 222.267 1129.7 222.227 1129.68 222.188C1129.18 221.638 1127.48 221.323 1128.18 220.537C1128.27 220.557 1138.1 225.274 1138.18 226.63C1138.14 226.649 1138.14 226.649 1133.44 224.075C1133.91 224.861 1134.8 225.116 1135.45 225.647C1135.33 225.647 1135.29 225.647 1134.15 225.018C1133.83 224.841 1133.26 224.546 1132.07 224.114C1133.16 224.841 1136.64 226.669 1138.62 227.534C1139.33 227.868 1139.33 228.261 1138.95 228.32Z" fill="url(#paint39_radial_1_80)"/>
<path d="M1166.3 252.514C1165.59 252.691 1165.04 252.062 1164.37 252.102C1164.33 252.141 1164.29 252.18 1164.27 252.22C1164.58 253.065 1165.37 253.556 1165.81 254.303C1165 254.323 1158.39 251.394 1154.66 248.407C1153.45 247.444 1152.95 247.051 1152.28 246.795C1152.24 246.815 1152.18 246.854 1152.14 246.874C1152.46 247.463 1152.46 247.463 1152.5 247.581C1152.18 247.896 1149.67 248.426 1149.65 248.426C1147.3 247.64 1147.3 247.64 1145 245.085C1144.93 244.987 1144.91 244.967 1144.91 244.948C1145.14 244.908 1145.14 244.908 1147.34 246.068C1147.1 245.301 1144.81 243.572 1143.23 243.65C1142.65 243.67 1142.55 243.65 1142.34 243.493C1142.32 243.493 1141.13 242.412 1141.33 241.43C1142.57 240.742 1143.09 239.366 1142.41 238.56C1141.84 237.852 1136.76 231.642 1136.88 231.15C1137.11 231.032 1137.37 230.993 1137.63 230.915C1137.67 230.836 1137.71 230.738 1137.73 230.679C1137.75 230.698 1137.77 230.718 1137.79 230.718C1140.14 232.703 1141.74 235.455 1144.49 237.027C1144.75 235.907 1143.58 235.533 1143.24 234.727C1143.3 234.688 1143.4 234.629 1143.46 234.57C1144.55 234.963 1145.44 235.789 1146.61 236.025C1146.29 235.514 1145.74 235.199 1145.46 234.649C1145.5 234.61 1145.54 234.57 1145.58 234.531C1147.12 234.983 1148.27 236.182 1149.73 236.732C1148.82 235.474 1147.32 234.924 1146.29 233.804C1147.22 233.902 1159.3 241.665 1159.01 243.1C1158.85 243.159 1158.67 243.257 1158.53 243.356C1158.77 243.749 1158.77 243.768 1160.21 244.614C1162.6 246.068 1162.72 246.343 1162.7 246.677C1162.59 246.736 1162.39 246.756 1162.27 246.736C1160.92 246.481 1159.84 245.577 1158.51 245.282C1157.56 245.066 1156.63 245.478 1155.68 245.282C1157.36 246.579 1159.62 247.247 1160.59 247.542C1166.82 249.468 1167.41 252.239 1166.3 252.514Z" fill="url(#paint40_radial_1_80)"/>
<path d="M1111.05 263.894C1110.85 263.364 1111.39 263.383 1111.8 263.442C1111.82 263.442 1113.64 263.776 1114.12 264.346C1114.77 265.152 1114.61 266.292 1114.33 266.508C1113.64 267.098 1111.33 264.641 1111.05 263.894Z" fill="url(#paint41_radial_1_80)"/>
<path d="M1114.12 259.492C1114.04 259.472 1113.8 259.334 1113.7 259.138C1113.5 258.725 1113.82 258.037 1114.04 257.821C1114.43 257.447 1114.97 257.231 1115.34 256.838C1115.99 256.15 1116.35 255.207 1117.1 254.598C1117.22 254.519 1117.38 254.401 1117.52 254.322C1118.27 253.851 1119.22 253.929 1119.99 253.477C1120.48 253.183 1120.48 252.514 1120.98 252.219C1121.04 252.18 1121.14 252.2 1121.19 252.219C1121.89 252.554 1124.24 255.836 1124.34 255.973C1124.64 256.406 1125.03 256.976 1125.31 257.428L1127.88 261.555C1126.36 261.673 1126.36 261.673 1126.24 262.44C1126.08 263.403 1126.08 263.403 1125.94 263.383C1125.74 263.344 1125.33 263.01 1124.5 262.322C1123.29 261.319 1121.27 259.629 1118.92 259.374C1117.3 259.197 1115.74 260.061 1114.12 259.492Z" fill="url(#paint42_radial_1_80)"/>
<path d="M1118.35 262.322C1118.39 262.322 1121.77 263.05 1122.86 263.914C1123.51 264.425 1123.61 265.841 1123.25 266.116C1122.54 266.627 1118.29 264.131 1117.52 262.951C1117.28 262.558 1117.22 262.146 1118.35 262.322Z" fill="url(#paint43_radial_1_80)"/>
<path d="M1127.05 451.493C1128.33 452.024 1127.6 454.029 1126.81 454.304C1126.28 454.5 1122.93 455.129 1122.99 453.734C1123.03 452.908 1125.37 451.139 1127.05 451.493Z" fill="url(#paint44_radial_1_80)"/>
<path d="M893.362 285.239C893.6 285.259 893.56 285.396 893.501 285.632L891.879 285.75C892.749 285.357 893.085 285.239 893.362 285.239Z" fill="url(#paint45_radial_1_80)"/>
<path d="M1050.34 302.259C1048.8 300.255 1048.12 298.918 1048.32 298.289C1048.4 298.27 1048.52 298.23 1048.6 298.23C1049.45 298.505 1051.68 300.412 1053.42 302.534C1055.52 305.109 1056.96 308.136 1059.02 310.73C1060.13 312.106 1061.65 313.089 1062.68 314.543C1063.08 315.093 1062.76 315.251 1062.58 315.349C1062.3 315.487 1062.3 315.487 1056.05 315.998C1052.48 316.292 1049.87 316.607 1047.08 317.354C1046.76 317.432 1046.35 317.59 1046.01 317.609C1045 317.668 1043.95 316.666 1042.96 317.688C1042.47 318.199 1042.43 319.142 1042.39 319.771C1042.35 320.439 1042.03 320.498 1041.84 320.479C1040.83 320.361 1039.6 318.454 1039.46 316.823C1039.27 314.209 1041.26 310.16 1043.26 308.018C1044.31 306.898 1044.31 306.898 1047.97 307.704C1049.09 307.939 1049.33 307.723 1049.59 306.78C1050.08 305.031 1050.52 304.716 1051.19 304.362C1051.55 304.166 1051.55 304.048 1051.37 303.714C1051.17 303.242 1050.68 302.711 1050.34 302.259Z" fill="url(#paint46_radial_1_80)"/>
<path d="M904.357 269.929C904.16 271.207 905.129 272.386 904.634 273.663C904.239 273.821 903.428 273.722 901.688 272.425C901.055 271.953 900.501 271.521 900.066 271.776C898.286 272.759 900.343 274.666 899.75 276.061C898.504 278.872 897.06 279.245 895.221 279.736C892.334 280.483 891.978 280.582 891.444 280.955C891.365 281.407 891.622 281.879 891.365 282.331C890.594 283.707 889.229 284.63 888.537 286.085C888.181 287.559 890 286.714 891.325 286.085C891.899 285.81 891.899 285.81 893.52 285.692C892.868 287.559 890.752 288.463 890.317 290.487C890.079 291.568 891.108 292.158 892.571 292.846C892.967 293.023 893.56 293.317 893.342 293.75C893.224 293.986 892.571 294.713 889.071 294.634C887.588 294.595 884.483 294.497 884.404 295.519C884.325 296.442 885.037 296.423 886.105 296.403C887.133 296.383 887.449 296.678 887.845 297.032C888.596 297.72 888.715 298.781 889.368 299.508C890.178 300.432 891.306 300.983 892.136 301.867C892.116 301.946 892.116 302.064 892.097 302.162C891.622 302.28 891.622 302.28 884.938 301.435C881.556 301.022 878.135 301.277 874.754 300.786C874.714 300.786 874.674 300.786 874.635 300.766L868.821 298.821C868.781 298.762 868.781 298.683 868.762 298.624C869.968 297.425 871.51 298.486 872.816 298.015C873.448 296.266 871.807 294.674 872.479 292.944C873.666 289.839 874.892 289.898 875.9 289.957C878.155 290.074 879.697 286.949 879.697 286.91C879.678 286.871 879.658 286.812 879.638 286.773C879.5 286.733 879.5 286.733 877.74 287.126C876.949 287.402 875.841 287.775 875.92 287.382C875.92 287.362 875.94 287.343 875.94 287.323C876.059 287.166 876.256 286.871 876.87 286.399C879.599 284.296 883.039 283.255 885.531 280.798C886.737 279.618 887.588 278.125 889.051 277.201C891.582 275.609 893.896 275.275 895.063 275.216H895.083C893.599 273.899 891.661 267.433 895.636 267.276C896.348 267.256 897.179 267.354 897.713 267.433C900.224 267.767 900.679 267.826 900.699 267.158C900.738 265.861 898.484 263.404 900.323 263.286C900.382 263.286 905.267 263.384 905.999 265.114C906.058 265.271 905.979 265.526 905.939 265.684C905.682 267.158 904.595 268.396 904.357 269.929Z" fill="url(#paint47_radial_1_80)"/>
<path d="M1228.44 333.588C1227.8 332.114 1227.45 330.561 1226.87 329.087C1226.52 328.203 1226.12 327.338 1225.79 326.454C1225.75 326.355 1225.71 326.218 1225.67 326.12C1225.65 326.08 1225.41 325.294 1225.81 325.373C1225.87 325.392 1225.94 325.432 1226 325.471C1227.33 326.552 1228.83 333.392 1228.58 333.804C1228.52 333.745 1228.48 333.647 1228.44 333.588Z" fill="url(#paint48_radial_1_80)"/>
<path d="M936.433 237.44C936.433 237.362 936.413 237.244 936.433 237.165C936.709 236.674 937.501 235.75 938.45 235.377C938.608 235.318 938.825 235.239 938.984 235.2C940.407 234.807 941.91 235.16 943.314 234.59C944.303 234.197 945.035 233.215 946.221 233.274C947.586 233.608 948.871 234.158 950.236 234.492C951.561 234.807 952.945 234.728 954.25 235.16C955.081 235.435 954.488 236.458 955.14 236.831C955.832 237.244 956.564 236.477 957.276 236.89C957.375 236.949 957.533 237.047 957.632 237.106C957.889 238.266 956.841 239.602 958.126 240.624C958.522 240.467 961.508 238.03 962.002 237.106C963.129 235.003 967.856 233.686 969.181 234.748C968.805 235.809 967.5 235.593 966.907 236.359C967.282 237.912 969.121 237.656 969.873 238.757C969.438 239.072 967.955 238.855 967.104 238.698C965.621 238.443 960.994 240.035 963.584 242.157C962.477 243.513 960.994 242.354 959.748 242.708C958.443 243.061 958.423 243.553 958.423 244.693C958.126 244.948 957.849 245.066 955.239 244.791C953.538 244.614 952.945 244.575 952.391 244.614C951.146 244.693 949.979 245.243 948.733 245.322C948.575 245.322 948.377 245.341 948.219 245.341C947.784 245.341 947.171 245.322 943.71 244.476C940.585 243.71 935.8 240.27 936.057 239.268C936.215 238.619 936.769 238.167 936.967 237.538C936.808 237.421 936.808 237.421 936.433 237.44Z" fill="url(#paint49_radial_1_80)"/>
<path d="M1122.82 445.931C1121.45 447.7 1112.87 448.349 1112.73 447.346C1112.65 446.816 1123.63 434.237 1123.75 434.158C1124.87 433.392 1128.29 431.033 1134.62 432.311C1138.16 433.47 1140.63 435.849 1140.65 435.927C1140.2 436.36 1137.49 435.966 1135.27 434.689C1132.09 432.881 1129.97 433.903 1129.78 434.453C1129.95 434.768 1130.37 435.22 1131.4 434.65C1131.44 434.669 1131.48 434.709 1131.52 434.728C1131.38 436.242 1128.85 436.89 1127.17 437.303C1124.06 438.089 1123.86 438.738 1123.21 440.683C1122.89 441.666 1122.68 442.256 1122.04 443.062C1121.59 443.632 1121.25 444.044 1121.23 444.359C1121.13 445.44 1122.32 445.381 1122.82 445.931Z" fill="url(#paint50_radial_1_80)"/>
<path d="M1109.17 456.387C1108.28 456.879 1108.99 458.51 1107.73 458.628C1105.53 458.844 1105.79 455.916 1103.91 455.719C1103.71 455.699 1103.52 455.719 1102.86 455.817C1099.5 456.387 1093.73 456.564 1093.71 456.545C1093.43 456.505 1093.23 456.446 1093.21 456.191C1093.15 455.228 1093.96 454.422 1093.71 453.419C1092.92 450.314 1108.88 448.938 1109.88 449.096C1110.14 449.174 1110.18 449.194 1110.28 449.292C1110.28 449.528 1110.28 449.528 1110.04 449.744C1107.69 451.906 1108.46 454.422 1108.58 454.52C1108.88 454.776 1110.16 454.579 1111.9 454.304C1115.12 453.793 1115.44 453.891 1115.62 453.931C1115.58 453.989 1115.56 454.088 1115.5 454.107C1113.54 455.306 1111.15 455.267 1109.17 456.387Z" fill="url(#paint51_radial_1_80)"/>
<path d="M1077.04 309.06C1078.4 309.571 1075.28 311.084 1074.64 311.379C1070.53 313.305 1069.09 311.222 1069.07 311.202C1068.55 310.082 1075.53 308.805 1077.04 309.06Z" fill="url(#paint52_radial_1_80)"/>
<path d="M819.224 564.111C823.732 569.909 823.851 569.948 826.817 570.99C829.23 571.854 830.001 572.935 833.64 578.222C835.459 580.836 836.132 581.367 837.931 582.782C843.409 587.047 850.805 596.442 851.022 597.208C849.045 597.228 849.045 597.228 841.491 590.054C835.341 584.197 829.942 577.672 824.049 571.56C824.069 571.736 824.069 571.736 824.583 572.582C824.345 572.424 824.345 572.424 823.792 571.717C822.407 569.987 818.156 564.288 817.483 562.244C817.523 562.224 817.582 562.185 817.641 562.185C818.116 562.696 818.116 562.696 819.224 564.111Z" fill="url(#paint53_radial_1_80)"/>
<path d="M972.009 521.64C972.325 519.97 970.091 517.69 972.207 516.609C973.71 515.842 975.213 516.962 976.716 516.648C981.58 515.587 984.784 511.381 989.431 509.966C996.372 507.843 1003.55 506.605 1010.59 504.856C1014.68 503.362 1015.04 498.664 1017.57 495.952C1021.86 493.161 1025.09 488.661 1029.58 486.105C1035.45 482.784 1042.69 483.904 1048.5 480.406C1053.11 477.635 1056.19 472.918 1061.14 470.559C1061.85 470.225 1062.88 469.891 1063.67 469.773C1087.56 466.196 1106.44 463.366 1108.58 482.194C1115.66 477.182 1133.89 485.103 1132.21 473.409C1131.18 466.333 1134.23 461.105 1134.27 461.105C1139.8 458.315 1145.44 461.204 1151.02 460.83C1149.18 454.757 1149.18 454.757 1150.52 451.927C1148.11 446.306 1148.11 446.306 1147.22 441.215C1148.27 440.292 1157.58 432.843 1159.56 453.715C1162.76 453.519 1164.82 457.98 1168.5 455.897C1177.1 451.003 1180.05 444.773 1181.04 441.491C1182.24 437.442 1178.82 434.278 1178.9 430.445C1178.96 428.008 1182.26 426.809 1181.39 424.018C1180.26 420.402 1173.54 413.582 1171.96 412.363C1169.15 410.201 1158.21 412.658 1158.14 412.697C1157.84 412.461 1157.44 412.127 1157.17 411.891C1158 410.987 1159.24 410.673 1160.17 409.926C1160.09 409.572 1159.99 409.101 1159.92 408.727C1157.72 407.469 1140.38 405.976 1140.3 406.015C1132.86 409.965 1137.39 420.343 1130.25 424.45C1121.83 415.626 1135.35 407.784 1133.87 398.9C1132.31 389.702 1123.07 387.56 1117.91 381.683C1118.03 381.663 1118.03 381.663 1118.05 381.683C1118.27 381.428 1118.58 381.093 1118.8 380.838C1118.76 380.504 1118.7 380.052 1118.66 379.737C1118.35 379.639 1117.91 379.521 1117.58 379.423C1117.54 379.03 1117.48 378.499 1117.44 378.086C1117.75 377.968 1118.19 377.811 1118.51 377.693L1116.78 360.83C1116.65 363.326 1116.67 370.913 1116.67 370.932C1115.86 370.421 1115.86 370.421 1115.14 359.317C1114.53 360.496 1113.46 361.439 1113.17 362.815C1111.64 360.221 1112.16 356.801 1109.8 354.541C1109.74 354.482 1099.76 349.096 1099.03 349.136C1098.1 340.429 1098.1 340.429 1093.19 335.869C1092.36 335.908 1092.36 335.909 1078.1 327.713C1078.24 328.008 1078.44 328.401 1078.58 328.715C1077.85 328.99 1076.8 329.246 1076.01 329.226C1076.01 329.6 1076.01 330.091 1076.01 330.464C1084.25 336.282 1084.25 336.282 1084.37 337.992C1078.78 338.09 1061.57 328.145 1064.66 320.441C1067.03 322.013 1067.13 324.902 1068.53 327.044C1070.37 326.533 1071.87 326.121 1073.1 325.747C1071.86 325.492 1070.93 324.175 1070.91 324.155C1070.91 324.136 1070.89 324.116 1070.89 324.096C1070.91 324.077 1070.91 324.077 1070.91 324.057C1071 324.037 1071.04 324.037 1071.38 324.077C1073.6 324.411 1074.86 323.939 1075.3 323.723C1076.38 323.173 1076.56 322.544 1076.48 321.62C1076.46 321.266 1076.5 321.227 1076.54 321.207C1076.56 321.207 1076.58 321.227 1076.6 321.247C1076.72 321.423 1077.41 323.153 1076.78 324.45C1078.92 323.448 1079.29 322.367 1080.12 319.772C1082.14 319.045 1082.28 318.868 1083.13 317.827C1080.1 317.001 1077.93 316.431 1077.29 313.404C1078.84 311.891 1078.84 311.891 1100.33 325.256C1085.52 309.965 1085.52 309.965 1070.33 305.386C1066.87 307.744 1051.33 300.079 1048.96 295.794C1049.73 293.927 1049.73 293.927 1048.6 291.176C1048.82 290.861 1049.07 290.429 1049.29 290.114C1050.54 289.839 1051.78 289.584 1053.03 289.328C1054.1 289.328 1054.12 289.328 1054.12 289.328C1054.87 289.407 1057.16 289.623 1061.24 292.276C1061.37 291.981 1061.55 291.569 1061.69 291.254C1060.44 289.505 1059.85 289.269 1055.26 287.5C1064.18 288.267 1072.9 288.994 1082.47 289.957C1073.67 289.033 1066.02 288.345 1055.2 287.481C1054.97 287.363 1054.61 287.206 1054.47 286.989C1054.27 286.439 1057.85 283.373 1062.36 284.552C1063.39 284.808 1063.39 284.808 1063.91 284.631C1064.22 283.766 1063.51 282.803 1064.14 281.958C1064.99 280.838 1066.67 281.113 1067.52 279.973C1067.88 279.501 1067.64 279.069 1066.95 278.145C1065.96 276.769 1065.96 276.769 1068.14 272.917C1073.62 263.208 1073.62 263.208 1076.28 268.279C1076.7 269.065 1075.65 269.89 1076.32 270.676C1077.12 271.58 1078.54 270.755 1079.29 271.757C1080.99 274.077 1080.99 274.077 1081.47 274.214C1084.45 275.118 1086.51 272.72 1089.1 272.15C1089.55 271.345 1088.53 266.058 1086.96 264.8C1088.49 264.289 1090.09 265.036 1091.59 264.485C1091.95 264.348 1092.16 264.112 1092.64 263.326C1092.8 263.051 1093.17 262.422 1096.91 261.203C1097.74 260.928 1097.94 260.948 1098.57 261.007C1101.99 261.911 1105.65 261.164 1108.99 262.54C1108.4 265.684 1112.3 268.534 1109.65 271.836C1110.16 273.369 1112.18 273.9 1112.28 275.708C1112.39 277.811 1110.26 279.029 1110.2 281.054C1110.2 281.132 1110.04 289.269 1114.77 290.35C1115.8 290.586 1118.15 291.333 1117.64 293.043C1117.87 293.338 1117.99 293.436 1118.94 294.163C1120.19 298.88 1117.06 304.776 1122.48 308.491C1124.18 305.916 1127.19 305.169 1129.52 303.518C1128.25 299.804 1128.79 298.467 1129.5 296.757C1129.14 296.482 1128.53 295.971 1128.18 295.676C1128.23 295.48 1128.18 295.067 1128.23 294.871C1128.65 294.812 1129.18 294.772 1129.6 294.792C1131.83 292.65 1134.52 294.595 1136.92 293.947C1139.35 293.298 1140.59 290.842 1142.93 290.016C1143.32 289.878 1143.88 289.741 1144.29 289.662C1146.43 289.309 1147.95 290.861 1149.79 291.392C1150.44 290.861 1150.44 290.861 1151.25 286.026C1151.55 284.336 1151.55 284.336 1155.54 284.022C1156.45 278.872 1143.82 269.556 1138.44 265.586C1139.05 263.955 1140.87 264.682 1141.9 263.856C1131.42 262.009 1131.42 262.009 1125.45 255.68C1129.5 256.388 1130.35 256.525 1133.65 254.658C1129.76 253.263 1124.71 255.7 1121.75 251.16C1122.05 250.944 1122.54 250.786 1122.9 250.767C1122.88 250.747 1120.94 248.408 1118.9 249.686C1112.1 247.249 1112.1 247.249 1110.3 245.676C1109.9 245.342 1109.45 244.831 1109.19 244.379C1108.46 243.161 1109.67 241.844 1109.01 240.606C1108.4 239.466 1106.98 239.584 1106.17 238.738C1105.73 238.168 1105.65 237.461 1105.34 236.832C1105.39 236.773 1111.13 230.955 1113.05 239.19C1116.57 241.215 1119.1 249.411 1123.39 245.617C1123.01 243.082 1117.87 241.451 1120.27 238.955C1122.99 239.977 1124.1 242.709 1126.12 244.477C1126.59 243.121 1123.83 239.505 1123.79 239.466C1123.92 239.407 1123.92 239.407 1126.38 239.308C1122.14 232.547 1122.14 232.547 1122.14 231.722C1122.32 231.584 1122.6 231.388 1122.78 231.25C1120.36 227.536 1120.36 227.536 1109.11 220.951C1109.9 220.853 1109.9 220.853 1111.15 221.089C1120.17 223.192 1132.35 239.996 1132.45 240.153C1132.35 240.35 1132.23 240.586 1132.15 240.782C1131.18 240.782 1130.25 240.566 1129.28 240.507C1129.24 240.684 1129.18 240.92 1129.14 241.097C1131.14 242.08 1131.46 242.256 1132.39 243.141C1132.41 243.613 1132.41 243.613 1132.41 243.613C1132.41 243.613 1132.41 243.613 1132.39 243.613C1132.21 243.652 1131.99 243.691 1131.81 243.75C1133.73 247.032 1137.92 248.153 1139.51 251.769C1140.97 250.256 1140.97 250.256 1138.22 247.327C1139.8 246.915 1139.8 246.915 1144.93 250.944C1145.2 251.16 1146.92 252.241 1153.25 251.946C1153.67 251.356 1153.59 250.57 1154.02 249.981C1159.14 251.297 1160.67 254.246 1163.71 260.142C1164.27 258.648 1162.96 257.429 1163.14 255.995C1165.91 256.427 1168.16 258.687 1171.19 258.235C1169.92 256.997 1167.88 256.545 1167.41 254.521C1167.57 254.442 1167.79 254.324 1167.94 254.246C1168.62 254.619 1168.74 254.678 1170.69 254.462C1170.91 254.147 1171.25 253.754 1171.54 253.499C1172.95 253.793 1173.74 254.973 1174.83 255.72C1174.63 255.346 1174.31 254.855 1174.05 254.521C1174.81 255.071 1174.81 255.071 1176.03 256.25C1175.4 254.933 1175.4 254.933 1173.46 252.555C1176.8 255.602 1176.8 255.602 1182.89 260.751C1182.91 260.771 1182.91 260.771 1182.91 260.771C1180.98 258.943 1178.9 257.272 1176.94 255.484C1176.96 255.503 1181.31 258.746 1186.77 264.151C1186.59 263.817 1186.3 263.404 1186.06 263.11C1189.44 266.883 1193.93 271.895 1197.31 275.649C1211.89 294.517 1212.16 294.871 1218.61 305.504L1218.55 305.425C1218.45 305.287 1218.33 305.091 1218.23 304.934C1222.54 315.743 1222.54 315.743 1223.08 318.672C1223.35 319.537 1223.73 320.677 1224.01 321.522C1223.81 321.856 1223.55 322.269 1223.35 322.603C1224.72 326.907 1224.72 326.907 1226.2 334.258C1226.56 336.007 1226.14 337.638 1225.61 339.23C1225.83 339.151 1226.16 339.073 1226.7 339.034C1226.95 339.014 1227.07 338.975 1227.17 338.876C1227.25 338.798 1227.29 338.758 1227.43 338.247C1227.49 337.972 1227.76 337.088 1227.98 337.048C1227.98 337.048 1227.98 337.048 1228 337.068C1228 337.088 1228.56 339.603 1227.94 341.687C1227.45 343.397 1226.22 343.161 1226.2 343.161C1225.89 343.063 1225.59 342.748 1225.39 342.296C1225.23 341.883 1225.19 341.431 1225.19 341.235C1225.17 340.96 1225.25 340.684 1225.25 340.39C1225.25 340.37 1225.23 340.331 1225.23 340.311C1224.64 341.982 1224.03 343.633 1224.15 345.421C1224.74 345.087 1225.53 344.674 1226.14 344.379C1233.4 353.381 1235.95 398.487 1231.11 406.919C1230.47 407.017 1230.47 407.017 1219.95 428.46C1220.7 428.46 1221.69 428.499 1222.45 428.539C1221.18 431.192 1211.89 443.122 1211.81 443.22C1210.96 442.002 1210.09 440.724 1214.36 434.69C1216.29 431.958 1218.49 428.853 1222.21 413.857C1217.54 417.237 1217.05 419.458 1216.43 422.249C1216 424.234 1215.48 426.494 1214.59 427.91C1212.7 430.917 1210.36 433.629 1208.35 436.557C1205.72 440.351 1201.27 442.493 1199.07 446.66C1197.29 450.021 1198.14 454.521 1194.5 457.076C1194.01 457.43 1193.22 457.705 1192.66 457.921C1191.64 458.315 1190.33 459.042 1189.24 459.317C1185.48 460.28 1181.65 460.87 1177.87 461.774C1174.02 462.697 1169.92 460.496 1166.12 462.638C1157.46 467.532 1157.46 467.532 1154.42 467.866C1153.96 467.906 1153.35 467.984 1152.89 468.043C1139.29 469.93 1133.65 486.675 1118.76 486.145C1112.14 475.158 1108.04 488.346 1106.6 494.517C1106.15 496.463 1106.15 496.463 1109.86 504.6C1109.9 504.738 1113.52 519.38 1111.96 522.132C1111.7 522.584 1111.39 523.193 1111.11 523.606C1106.22 530.819 1086.17 550.532 1085.99 550.669C1081.09 554.875 1074.47 555.819 1069.3 559.514C1065.37 562.324 1062.42 567.847 1061.02 575.06C1060.96 575.394 1053.27 609.651 1039.88 628.362C1022.91 652.104 1006.5 649.471 1006.34 649.431C1022.14 641.334 1022.14 641.334 1020.66 634.691C1022.85 632.372 1022.85 632.372 1027 621.012C1026.35 620.795 1026.35 620.795 1023.39 620.894C1023.41 620.579 1023.41 620.579 1027 615.626C1024.24 613.17 1024.24 613.17 1024.43 611.224C1024.22 611.106 1023.94 610.929 1023.74 610.791C1018.84 612.285 1017.2 608.256 1018.46 606.409L1019.91 604.404C1008.75 604.109 1004.01 577.261 1003.97 577.006C1002.36 573.586 998.152 571.542 996.412 570.835C992.457 569.203 992.397 564.585 989.589 562.049C988.324 560.909 987.197 560.89 986.247 561.007C984.606 561.224 984.487 561.224 984.27 559.691C983.815 556.33 984.131 552.949 983.953 549.569C983.855 547.682 984.982 545.736 983.716 543.908C982.253 541.786 981.719 541 982.747 539.584C982.945 539.329 983.143 538.936 983.222 538.621C973.888 535.241 970.565 525.178 970.546 525.099C970.546 524.981 970.526 524.824 970.546 524.726C970.902 523.566 971.811 522.76 972.009 521.64ZM1206.19 311.911C1202.89 310.83 1199.41 309.808 1195.81 308.825C1199.39 309.808 1202.87 310.83 1206.19 311.911ZM1100.27 503.342C1096.06 502.812 1091.77 502.301 1087.26 501.789C1091.41 502.281 1095.7 502.792 1100.27 503.342ZM1005.65 562.108C1005.83 560.477 1006.38 555.131 1007.23 545.697C1006.71 551.2 1006.18 556.684 1005.61 562.462C1005.63 562.344 1005.65 562.226 1005.65 562.108ZM1010.14 510.752C1010.12 511.066 1010.1 511.361 1010.06 511.656C1010.1 511.361 1010.12 511.047 1010.14 510.752Z" fill="url(#paint54_radial_1_80)"/>
<path d="M1088.07 457.607C1089.36 458.472 1087.7 460.123 1086.13 460.378C1085.03 460.555 1081.45 460.064 1081.31 459.71C1081.23 459.533 1081.49 459.081 1084.14 458.275C1087.04 457.352 1087.48 457.45 1088.07 457.607Z" fill="url(#paint55_radial_1_80)"/>
</g>
<path d="M1087.04 333.071C1013.5 274 890.5 319.5 868 356.5" stroke="white" stroke-dasharray="2 4"/>
<path d="M1111.75 497.11C1130.95 506.042 1166.58 512.63 1155.47 467.53" stroke="white" stroke-dasharray="2 4"/>
<path d="M1134.92 399.828C1100.68 389.278 1029.79 397.626 1020.11 515.411" stroke="white" stroke-dasharray="2 4"/>
<path d="M1148.3 234.425C1174.09 228.801 1212.05 234.29 1157.55 301.236" stroke="white" stroke-dasharray="2 4"/>
<path d="M849.948 494.302C815 472.5 811 415 840.5 384.5" stroke="white" stroke-dasharray="2 4"/>
<path d="M839.724 340.373C828.42 308.389 839.724 271.993 884.808 264.548" stroke="white" stroke-dasharray="2 4"/>
<circle r="2.83164" transform="matrix(-1 0 0 1 867.97 357.611)" fill="white"/>
<circle r="2.83164" transform="matrix(-1 0 0 1 884.742 264.071)" fill="white"/>
<circle r="2.83164" transform="matrix(-1 0 0 1 839.523 341.826)" fill="white"/>
<circle r="3.08906" transform="matrix(-1 0 0 1 850.208 493.787)" fill="white"/>
<ellipse rx="2.57422" ry="2.31679" transform="matrix(-1 0 0 1 841.456 384.383)" fill="white"/>
<circle r="3.34648" transform="matrix(-1 0 0 1 1087.29 334.443)" fill="white"/>
<ellipse rx="2.57422" ry="2.83164" transform="matrix(-1 0 0 1 1021.14 517.727)" fill="white"/>
<ellipse rx="2.57422" ry="2.31679" transform="matrix(-1 0 0 1 1133.89 400.343)" fill="white"/>
<ellipse rx="2.83164" ry="3.08906" transform="matrix(-1 0 0 1 1158.34 301.751)" fill="white"/>
<ellipse rx="2.83164" ry="2.57422" transform="matrix(-1 0 0 1 1110.98 496.876)" fill="white"/>
<ellipse rx="2.57422" ry="3.08906" transform="matrix(-1 0 0 1 1155 466.5)" fill="white"/>
<circle opacity="0.1" cx="1011" cy="432" r="302.5" stroke="white"/>
<circle opacity="0.1" cx="1011" cy="432" r="368.5" stroke="white"/>
<circle opacity="0.1" cx="1011" cy="432" r="431.5" stroke="white"/>
<path opacity="0.1" d="M1250.5 431C1250.5 563.826 1143.27 671.5 1011 671.5C878.73 671.5 771.5 563.826 771.5 431C771.5 298.174 878.73 190.5 1011 190.5C1143.27 190.5 1250.5 298.174 1250.5 431Z" stroke="white"/>
<path d="M1170.94 299.367C1174 309.532 1176.33 320.271 1177.82 331.422C1176.33 320.271 1174 309.544 1170.94 299.367Z" fill="white"/>
</g>
<defs>
<filter id="filter0_d_1_80" x="770" y="189" width="483.591" height="480.536" filterUnits="userSpaceOnUse" color-interpolation-filters="sRGB">
<feFlood flood-opacity="0" result="BackgroundImageFix"/>
<feColorMatrix in="SourceAlpha" type="matrix" values="0 0 0 0 0 0 0 0 0 0 0 0 0 0 0 0 0 0 127 0" result="hardAlpha"/>
<feOffset dx="10" dy="10"/>
<feGaussianBlur stdDeviation="5"/>
<feColorMatrix type="matrix" values="0 0 0 0 0 0 0 0 0 0 0 0 0 0 0 0 0 0 0.5 0"/>
<feBlend mode="normal" in2="BackgroundImageFix" result="effect1_dropShadow_1_80"/>
<feBlend mode="normal" in="SourceGraphic" in2="effect1_dropShadow_1_80" result="shape"/>
</filter>
<radialGradient id="paint0_radial_1_80" cx="0" cy="0" r="1" gradientUnits="userSpaceOnUse" gradientTransform="translate(996 414.104) rotate(-180) scale(636.5 663.021)">
<stop stop-color="#0C055B"/>
<stop offset="1" stop-color="#050040"/>
</radialGradient>
<radialGradient id="paint1_radial_1_80" cx="0" cy="0" r="1" gradientUnits="userSpaceOnUse" gradientTransform="translate(240.432 240.432) rotate(90) scale(240.432)">
<stop stop-color="white" stop-opacity="0"/>
<stop offset="0.649105" stop-color="white" stop-opacity="0"/>
<stop offset="0.869002" stop-color="white" stop-opacity="0.03"/>
<stop offset="0.935114" stop-color="white" stop-opacity="0.05"/>
<stop offset="1" stop-color="white" stop-opacity="0.1"/>
</radialGradient>
<radialGradient id="paint2_radial_1_80" cx="0" cy="0" r="1" gradientUnits="userSpaceOnUse" gradientTransform="translate(961.263 290.065) rotate(180) scale(780.099 775.317)">
<stop offset="0.0672" stop-color="#C0C0C0"/>
<stop offset="0.2938" stop-color="#4C4C4C"/>
<stop offset="0.349" stop-color="#414141"/>
<stop offset="0.5124" stop-color="#242424"/>
<stop offset="0.6762" stop-color="#101010"/>
<stop offset="0.839" stop-color="#040404"/>
<stop offset="1"/>
</radialGradient>
<radialGradient id="paint3_radial_1_80" cx="0" cy="0" r="1" gradientUnits="userSpaceOnUse" gradientTransform="translate(961.255 290.069) rotate(180) scale(780.135 775.352)">
<stop offset="0.0672" stop-color="#C0C0C0"/>
<stop offset="0.2938" stop-color="#4C4C4C"/>
<stop offset="0.349" stop-color="#414141"/>
<stop offset="0.5124" stop-color="#242424"/>
<stop offset="0.6762" stop-color="#101010"/>
<stop offset="0.839" stop-color="#040404"/>
<stop offset="1"/>
</radialGradient>
<radialGradient id="paint4_radial_1_80" cx="0" cy="0" r="1" gradientUnits="userSpaceOnUse" gradientTransform="translate(961.261 290.063) rotate(180) scale(780.103 775.318)">
<stop offset="0.0672" stop-color="#C0C0C0"/>
<stop offset="0.2938" stop-color="#4C4C4C"/>
<stop offset="0.349" stop-color="#414141"/>
<stop offset="0.5124" stop-color="#242424"/>
<stop offset="0.6762" stop-color="#101010"/>
<stop offset="0.839" stop-color="#040404"/>
<stop offset="1"/>
</radialGradient>
<radialGradient id="paint5_radial_1_80" cx="0" cy="0" r="1" gradientUnits="userSpaceOnUse" gradientTransform="translate(961.264 290.061) rotate(180) scale(780.086 775.302)">
<stop offset="0.0672" stop-color="#C0C0C0"/>
<stop offset="0.2938" stop-color="#4C4C4C"/>
<stop offset="0.349" stop-color="#414141"/>
<stop offset="0.5124" stop-color="#242424"/>
<stop offset="0.6762" stop-color="#101010"/>
<stop offset="0.839" stop-color="#040404"/>
<stop offset="1"/>
</radialGradient>
<radialGradient id="paint6_radial_1_80" cx="0" cy="0" r="1" gradientUnits="userSpaceOnUse" gradientTransform="translate(961.256 290.063) rotate(180) scale(780.116 775.331)">
<stop offset="0.0672" stop-color="#C0C0C0"/>
<stop offset="0.2938" stop-color="#4C4C4C"/>
<stop offset="0.349" stop-color="#414141"/>
<stop offset="0.5124" stop-color="#242424"/>
<stop offset="0.6762" stop-color="#101010"/>
<stop offset="0.839" stop-color="#040404"/>
<stop offset="1"/>
</radialGradient>
<radialGradient id="paint7_radial_1_80" cx="0" cy="0" r="1" gradientUnits="userSpaceOnUse" gradientTransform="translate(961.259 290.06) rotate(180) scale(780.107 775.324)">
<stop offset="0.0672" stop-color="#C0C0C0"/>
<stop offset="0.2938" stop-color="#4C4C4C"/>
<stop offset="0.349" stop-color="#414141"/>
<stop offset="0.5124" stop-color="#242424"/>
<stop offset="0.6762" stop-color="#101010"/>
<stop offset="0.839" stop-color="#040404"/>
<stop offset="1"/>
</radialGradient>
<radialGradient id="paint8_radial_1_80" cx="0" cy="0" r="1" gradientUnits="userSpaceOnUse" gradientTransform="translate(961.263 290.063) rotate(180) scale(780.095 775.31)">
<stop offset="0.0672" stop-color="#C0C0C0"/>
<stop offset="0.2938" stop-color="#4C4C4C"/>
<stop offset="0.349" stop-color="#414141"/>
<stop offset="0.5124" stop-color="#242424"/>
<stop offset="0.6762" stop-color="#101010"/>
<stop offset="0.839" stop-color="#040404"/>
<stop offset="1"/>
</radialGradient>
<radialGradient id="paint9_radial_1_80" cx="0" cy="0" r="1" gradientUnits="userSpaceOnUse" gradientTransform="translate(961.262 290.061) rotate(180) scale(780.098 775.314)">
<stop offset="0.0672" stop-color="#C0C0C0"/>
<stop offset="0.2938" stop-color="#4C4C4C"/>
<stop offset="0.349" stop-color="#414141"/>
<stop offset="0.5124" stop-color="#242424"/>
<stop offset="0.6762" stop-color="#101010"/>
<stop offset="0.839" stop-color="#040404"/>
<stop offset="1"/>
</radialGradient>
<radialGradient id="paint10_radial_1_80" cx="0" cy="0" r="1" gradientUnits="userSpaceOnUse" gradientTransform="translate(961.259 290.062) rotate(180) scale(780.108 775.323)">
<stop offset="0.0672" stop-color="#C0C0C0"/>
<stop offset="0.2938" stop-color="#4C4C4C"/>
<stop offset="0.349" stop-color="#414141"/>
<stop offset="0.5124" stop-color="#242424"/>
<stop offset="0.6762" stop-color="#101010"/>
<stop offset="0.839" stop-color="#040404"/>
<stop offset="1"/>
</radialGradient>
<radialGradient id="paint11_radial_1_80" cx="0" cy="0" r="1" gradientUnits="userSpaceOnUse" gradientTransform="translate(961.265 290.066) rotate(180) scale(780.092 775.308)">
<stop offset="0.0672" stop-color="#C0C0C0"/>
<stop offset="0.2938" stop-color="#4C4C4C"/>
<stop offset="0.349" stop-color="#414141"/>
<stop offset="0.5124" stop-color="#242424"/>
<stop offset="0.6762" stop-color="#101010"/>
<stop offset="0.839" stop-color="#040404"/>
<stop offset="1"/>
</radialGradient>
<radialGradient id="paint12_radial_1_80" cx="0" cy="0" r="1" gradientUnits="userSpaceOnUse" gradientTransform="translate(961.262 290.062) rotate(180) scale(780.098 775.314)">
<stop offset="0.0672" stop-color="#C0C0C0"/>
<stop offset="0.2938" stop-color="#4C4C4C"/>
<stop offset="0.349" stop-color="#414141"/>
<stop offset="0.5124" stop-color="#242424"/>
<stop offset="0.6762" stop-color="#101010"/>
<stop offset="0.839" stop-color="#040404"/>
<stop offset="1"/>
</radialGradient>
<radialGradient id="paint13_radial_1_80" cx="0" cy="0" r="1" gradientUnits="userSpaceOnUse" gradientTransform="translate(961.261 290.063) rotate(180) scale(780.108 775.319)">
<stop offset="0.0672" stop-color="#C0C0C0"/>
<stop offset="0.2938" stop-color="#4C4C4C"/>
<stop offset="0.349" stop-color="#414141"/>
<stop offset="0.5124" stop-color="#242424"/>
<stop offset="0.6762" stop-color="#101010"/>
<stop offset="0.839" stop-color="#040404"/>
<stop offset="1"/>
</radialGradient>
<radialGradient id="paint14_radial_1_80" cx="0" cy="0" r="1" gradientUnits="userSpaceOnUse" gradientTransform="translate(961.262 290.062) rotate(180) scale(780.094 775.309)">
<stop offset="0.0672" stop-color="#C0C0C0"/>
<stop offset="0.2938" stop-color="#4C4C4C"/>
<stop offset="0.349" stop-color="#414141"/>
<stop offset="0.5124" stop-color="#242424"/>
<stop offset="0.6762" stop-color="#101010"/>
<stop offset="0.839" stop-color="#040404"/>
<stop offset="1"/>
</radialGradient>
<radialGradient id="paint15_radial_1_80" cx="0" cy="0" r="1" gradientUnits="userSpaceOnUse" gradientTransform="translate(961.262 290.061) rotate(180) scale(780.101 775.317)">
<stop offset="0.0672" stop-color="#C0C0C0"/>
<stop offset="0.2938" stop-color="#4C4C4C"/>
<stop offset="0.349" stop-color="#414141"/>
<stop offset="0.5124" stop-color="#242424"/>
<stop offset="0.6762" stop-color="#101010"/>
<stop offset="0.839" stop-color="#040404"/>
<stop offset="1"/>
</radialGradient>
<radialGradient id="paint16_radial_1_80" cx="0" cy="0" r="1" gradientUnits="userSpaceOnUse" gradientTransform="translate(961.262 290.063) rotate(180) scale(780.099 775.314)">
<stop offset="0.0672" stop-color="#C0C0C0"/>
<stop offset="0.2938" stop-color="#4C4C4C"/>
<stop offset="0.349" stop-color="#414141"/>
<stop offset="0.5124" stop-color="#242424"/>
<stop offset="0.6762" stop-color="#101010"/>
<stop offset="0.839" stop-color="#040404"/>
<stop offset="1"/>
</radialGradient>
<radialGradient id="paint17_radial_1_80" cx="0" cy="0" r="1" gradientUnits="userSpaceOnUse" gradientTransform="translate(961.258 290.067) rotate(180) scale(780.121 775.342)">
<stop offset="0.0672" stop-color="#C0C0C0"/>
<stop offset="0.2938" stop-color="#4C4C4C"/>
<stop offset="0.349" stop-color="#414141"/>
<stop offset="0.5124" stop-color="#242424"/>
<stop offset="0.6762" stop-color="#101010"/>
<stop offset="0.839" stop-color="#040404"/>
<stop offset="1"/>
</radialGradient>
<radialGradient id="paint18_radial_1_80" cx="0" cy="0" r="1" gradientUnits="userSpaceOnUse" gradientTransform="translate(961.262 290.062) rotate(180) scale(780.081 775.299)">
<stop offset="0.0672" stop-color="#C0C0C0"/>
<stop offset="0.2938" stop-color="#4C4C4C"/>
<stop offset="0.349" stop-color="#414141"/>
<stop offset="0.5124" stop-color="#242424"/>
<stop offset="0.6762" stop-color="#101010"/>
<stop offset="0.839" stop-color="#040404"/>
<stop offset="1"/>
</radialGradient>
<radialGradient id="paint19_radial_1_80" cx="0" cy="0" r="1" gradientUnits="userSpaceOnUse" gradientTransform="translate(961.262 290.062) rotate(180) scale(780.089 775.306)">
<stop offset="0.0672" stop-color="#C0C0C0"/>
<stop offset="0.2938" stop-color="#4C4C4C"/>
<stop offset="0.349" stop-color="#414141"/>
<stop offset="0.5124" stop-color="#242424"/>
<stop offset="0.6762" stop-color="#101010"/>
<stop offset="0.839" stop-color="#040404"/>
<stop offset="1"/>
</radialGradient>
<radialGradient id="paint20_radial_1_80" cx="0" cy="0" r="1" gradientUnits="userSpaceOnUse" gradientTransform="translate(961.265 290.065) rotate(180) scale(780.086 775.302)">
<stop offset="0.0672" stop-color="#C0C0C0"/>
<stop offset="0.2938" stop-color="#4C4C4C"/>
<stop offset="0.349" stop-color="#414141"/>
<stop offset="0.5124" stop-color="#242424"/>
<stop offset="0.6762" stop-color="#101010"/>
<stop offset="0.839" stop-color="#040404"/>
<stop offset="1"/>
</radialGradient>
<radialGradient id="paint21_radial_1_80" cx="0" cy="0" r="1" gradientUnits="userSpaceOnUse" gradientTransform="translate(961.262 290.061) rotate(180) scale(780.095 775.311)">
<stop offset="0.0672" stop-color="#C0C0C0"/>
<stop offset="0.2938" stop-color="#4C4C4C"/>
<stop offset="0.349" stop-color="#414141"/>
<stop offset="0.5124" stop-color="#242424"/>
<stop offset="0.6762" stop-color="#101010"/>
<stop offset="0.839" stop-color="#040404"/>
<stop offset="1"/>
</radialGradient>
<radialGradient id="paint22_radial_1_80" cx="0" cy="0" r="1" gradientUnits="userSpaceOnUse" gradientTransform="translate(961.266 290.058) rotate(180) scale(780.071 775.288)">
<stop offset="0.0672" stop-color="#C0C0C0"/>
<stop offset="0.2938" stop-color="#4C4C4C"/>
<stop offset="0.349" stop-color="#414141"/>
<stop offset="0.5124" stop-color="#242424"/>
<stop offset="0.6762" stop-color="#101010"/>
<stop offset="0.839" stop-color="#040404"/>
<stop offset="1"/>
</radialGradient>
<radialGradient id="paint23_radial_1_80" cx="0" cy="0" r="1" gradientUnits="userSpaceOnUse" gradientTransform="translate(961.26 290.065) rotate(180) scale(780.114 775.326)">
<stop offset="0.0672" stop-color="#C0C0C0"/>
<stop offset="0.2938" stop-color="#4C4C4C"/>
<stop offset="0.349" stop-color="#414141"/>
<stop offset="0.5124" stop-color="#242424"/>
<stop offset="0.6762" stop-color="#101010"/>
<stop offset="0.839" stop-color="#040404"/>
<stop offset="1"/>
</radialGradient>
<radialGradient id="paint24_radial_1_80" cx="0" cy="0" r="1" gradientUnits="userSpaceOnUse" gradientTransform="translate(961.264 290.06) rotate(180) scale(780.08 775.294)">
<stop offset="0.0672" stop-color="#C0C0C0"/>
<stop offset="0.2938" stop-color="#4C4C4C"/>
<stop offset="0.349" stop-color="#414141"/>
<stop offset="0.5124" stop-color="#242424"/>
<stop offset="0.6762" stop-color="#101010"/>
<stop offset="0.839" stop-color="#040404"/>
<stop offset="1"/>
</radialGradient>
<radialGradient id="paint25_radial_1_80" cx="0" cy="0" r="1" gradientUnits="userSpaceOnUse" gradientTransform="translate(961.261 290.061) rotate(180) scale(780.094 775.308)">
<stop offset="0.0672" stop-color="#C0C0C0"/>
<stop offset="0.2938" stop-color="#4C4C4C"/>
<stop offset="0.349" stop-color="#414141"/>
<stop offset="0.5124" stop-color="#242424"/>
<stop offset="0.6762" stop-color="#101010"/>
<stop offset="0.839" stop-color="#040404"/>
<stop offset="1"/>
</radialGradient>
<radialGradient id="paint26_radial_1_80" cx="0" cy="0" r="1" gradientUnits="userSpaceOnUse" gradientTransform="translate(961.261 290.062) rotate(180) scale(780.096 775.313)">
<stop offset="0.0672" stop-color="#C0C0C0"/>
<stop offset="0.2938" stop-color="#4C4C4C"/>
<stop offset="0.349" stop-color="#414141"/>
<stop offset="0.5124" stop-color="#242424"/>
<stop offset="0.6762" stop-color="#101010"/>
<stop offset="0.839" stop-color="#040404"/>
<stop offset="1"/>
</radialGradient>
<radialGradient id="paint27_radial_1_80" cx="0" cy="0" r="1" gradientUnits="userSpaceOnUse" gradientTransform="translate(961.261 290.062) rotate(180) scale(780.096 775.312)">
<stop offset="0.0672" stop-color="#C0C0C0"/>
<stop offset="0.2938" stop-color="#4C4C4C"/>
<stop offset="0.349" stop-color="#414141"/>
<stop offset="0.5124" stop-color="#242424"/>
<stop offset="0.6762" stop-color="#101010"/>
<stop offset="0.839" stop-color="#040404"/>
<stop offset="1"/>
</radialGradient>
<radialGradient id="paint28_radial_1_80" cx="0" cy="0" r="1" gradientUnits="userSpaceOnUse" gradientTransform="translate(961.26 290.063) rotate(180) scale(780.093 775.311)">
<stop offset="0.0672" stop-color="#C0C0C0"/>
<stop offset="0.2938" stop-color="#4C4C4C"/>
<stop offset="0.349" stop-color="#414141"/>
<stop offset="0.5124" stop-color="#242424"/>
<stop offset="0.6762" stop-color="#101010"/>
<stop offset="0.839" stop-color="#040404"/>
<stop offset="1"/>
</radialGradient>
<radialGradient id="paint29_radial_1_80" cx="0" cy="0" r="1" gradientUnits="userSpaceOnUse" gradientTransform="translate(961.261 290.063) rotate(180) scale(780.091 775.312)">
<stop offset="0.0672" stop-color="#C0C0C0"/>
<stop offset="0.2938" stop-color="#4C4C4C"/>
<stop offset="0.349" stop-color="#414141"/>
<stop offset="0.5124" stop-color="#242424"/>
<stop offset="0.6762" stop-color="#101010"/>
<stop offset="0.839" stop-color="#040404"/>
<stop offset="1"/>
</radialGradient>
<radialGradient id="paint30_radial_1_80" cx="0" cy="0" r="1" gradientUnits="userSpaceOnUse" gradientTransform="translate(961.268 290.062) rotate(180) scale(780.115 775.343)">
<stop offset="0.0672" stop-color="#C0C0C0"/>
<stop offset="0.2938" stop-color="#4C4C4C"/>
<stop offset="0.349" stop-color="#414141"/>
<stop offset="0.5124" stop-color="#242424"/>
<stop offset="0.6762" stop-color="#101010"/>
<stop offset="0.839" stop-color="#040404"/>
<stop offset="1"/>
</radialGradient>
<radialGradient id="paint31_radial_1_80" cx="0" cy="0" r="1" gradientUnits="userSpaceOnUse" gradientTransform="translate(961.261 290.063) rotate(180) scale(780.097 775.314)">
<stop offset="0.0672" stop-color="#C0C0C0"/>
<stop offset="0.2938" stop-color="#4C4C4C"/>
<stop offset="0.349" stop-color="#414141"/>
<stop offset="0.5124" stop-color="#242424"/>
<stop offset="0.6762" stop-color="#101010"/>
<stop offset="0.839" stop-color="#040404"/>
<stop offset="1"/>
</radialGradient>
<radialGradient id="paint32_radial_1_80" cx="0" cy="0" r="1" gradientUnits="userSpaceOnUse" gradientTransform="translate(961.263 290.065) rotate(180) scale(780.097 775.313)">
<stop offset="0.0672" stop-color="#C0C0C0"/>
<stop offset="0.2938" stop-color="#4C4C4C"/>
<stop offset="0.349" stop-color="#414141"/>
<stop offset="0.5124" stop-color="#242424"/>
<stop offset="0.6762" stop-color="#101010"/>
<stop offset="0.839" stop-color="#040404"/>
<stop offset="1"/>
</radialGradient>
<radialGradient id="paint33_radial_1_80" cx="0" cy="0" r="1" gradientUnits="userSpaceOnUse" gradientTransform="translate(961.261 290.061) rotate(180) scale(780.101 775.315)">
<stop offset="0.0672" stop-color="#C0C0C0"/>
<stop offset="0.2938" stop-color="#4C4C4C"/>
<stop offset="0.349" stop-color="#414141"/>
<stop offset="0.5124" stop-color="#242424"/>
<stop offset="0.6762" stop-color="#101010"/>
<stop offset="0.839" stop-color="#040404"/>
<stop offset="1"/>
</radialGradient>
<radialGradient id="paint34_radial_1_80" cx="0" cy="0" r="1" gradientUnits="userSpaceOnUse" gradientTransform="translate(961.261 290.063) rotate(180) scale(780.1 775.316)">
<stop offset="0.0672" stop-color="#C0C0C0"/>
<stop offset="0.2938" stop-color="#4C4C4C"/>
<stop offset="0.349" stop-color="#414141"/>
<stop offset="0.5124" stop-color="#242424"/>
<stop offset="0.6762" stop-color="#101010"/>
<stop offset="0.839" stop-color="#040404"/>
<stop offset="1"/>
</radialGradient>
<radialGradient id="paint35_radial_1_80" cx="0" cy="0" r="1" gradientUnits="userSpaceOnUse" gradientTransform="translate(961.26 290.063) rotate(180) scale(780.091 775.313)">
<stop offset="0.0672" stop-color="#C0C0C0"/>
<stop offset="0.2938" stop-color="#4C4C4C"/>
<stop offset="0.349" stop-color="#414141"/>
<stop offset="0.5124" stop-color="#242424"/>
<stop offset="0.6762" stop-color="#101010"/>
<stop offset="0.839" stop-color="#040404"/>
<stop offset="1"/>
</radialGradient>
<radialGradient id="paint36_radial_1_80" cx="0" cy="0" r="1" gradientUnits="userSpaceOnUse" gradientTransform="translate(961.264 290.062) rotate(180) scale(780.113 775.324)">
<stop offset="0.0672" stop-color="#C0C0C0"/>
<stop offset="0.2938" stop-color="#4C4C4C"/>
<stop offset="0.349" stop-color="#414141"/>
<stop offset="0.5124" stop-color="#242424"/>
<stop offset="0.6762" stop-color="#101010"/>
<stop offset="0.839" stop-color="#040404"/>
<stop offset="1"/>
</radialGradient>
<radialGradient id="paint37_radial_1_80" cx="0" cy="0" r="1" gradientUnits="userSpaceOnUse" gradientTransform="translate(961.265 290.062) rotate(180) scale(780.109 775.321)">
<stop offset="0.0672" stop-color="#C0C0C0"/>
<stop offset="0.2938" stop-color="#4C4C4C"/>
<stop offset="0.349" stop-color="#414141"/>
<stop offset="0.5124" stop-color="#242424"/>
<stop offset="0.6762" stop-color="#101010"/>
<stop offset="0.839" stop-color="#040404"/>
<stop offset="1"/>
</radialGradient>
<radialGradient id="paint38_radial_1_80" cx="0" cy="0" r="1" gradientUnits="userSpaceOnUse" gradientTransform="translate(961.26 290.062) rotate(180) scale(780.099 775.315)">
<stop offset="0.0672" stop-color="#C0C0C0"/>
<stop offset="0.2938" stop-color="#4C4C4C"/>
<stop offset="0.349" stop-color="#414141"/>
<stop offset="0.5124" stop-color="#242424"/>
<stop offset="0.6762" stop-color="#101010"/>
<stop offset="0.839" stop-color="#040404"/>
<stop offset="1"/>
</radialGradient>
<radialGradient id="paint39_radial_1_80" cx="0" cy="0" r="1" gradientUnits="userSpaceOnUse" gradientTransform="translate(961.261 290.062) rotate(180) scale(780.1 775.315)">
<stop offset="0.0672" stop-color="#C0C0C0"/>
<stop offset="0.2938" stop-color="#4C4C4C"/>
<stop offset="0.349" stop-color="#414141"/>
<stop offset="0.5124" stop-color="#242424"/>
<stop offset="0.6762" stop-color="#101010"/>
<stop offset="0.839" stop-color="#040404"/>
<stop offset="1"/>
</radialGradient>
<radialGradient id="paint40_radial_1_80" cx="0" cy="0" r="1" gradientUnits="userSpaceOnUse" gradientTransform="translate(961.262 290.062) rotate(180) scale(780.097 775.312)">
<stop offset="0.0672" stop-color="#C0C0C0"/>
<stop offset="0.2938" stop-color="#4C4C4C"/>
<stop offset="0.349" stop-color="#414141"/>
<stop offset="0.5124" stop-color="#242424"/>
<stop offset="0.6762" stop-color="#101010"/>
<stop offset="0.839" stop-color="#040404"/>
<stop offset="1"/>
</radialGradient>
<radialGradient id="paint41_radial_1_80" cx="0" cy="0" r="1" gradientUnits="userSpaceOnUse" gradientTransform="translate(961.261 290.063) rotate(180) scale(780.097 775.312)">
<stop offset="0.0672" stop-color="#C0C0C0"/>
<stop offset="0.2938" stop-color="#4C4C4C"/>
<stop offset="0.349" stop-color="#414141"/>
<stop offset="0.5124" stop-color="#242424"/>
<stop offset="0.6762" stop-color="#101010"/>
<stop offset="0.839" stop-color="#040404"/>
<stop offset="1"/>
</radialGradient>
<radialGradient id="paint42_radial_1_80" cx="0" cy="0" r="1" gradientUnits="userSpaceOnUse" gradientTransform="translate(961.262 290.062) rotate(180) scale(780.093 775.308)">
<stop offset="0.0672" stop-color="#C0C0C0"/>
<stop offset="0.2938" stop-color="#4C4C4C"/>
<stop offset="0.349" stop-color="#414141"/>
<stop offset="0.5124" stop-color="#242424"/>
<stop offset="0.6762" stop-color="#101010"/>
<stop offset="0.839" stop-color="#040404"/>
<stop offset="1"/>
</radialGradient>
<radialGradient id="paint43_radial_1_80" cx="0" cy="0" r="1" gradientUnits="userSpaceOnUse" gradientTransform="translate(961.261 290.062) rotate(180) scale(780.099 775.316)">
<stop offset="0.0672" stop-color="#C0C0C0"/>
<stop offset="0.2938" stop-color="#4C4C4C"/>
<stop offset="0.349" stop-color="#414141"/>
<stop offset="0.5124" stop-color="#242424"/>
<stop offset="0.6762" stop-color="#101010"/>
<stop offset="0.839" stop-color="#040404"/>
<stop offset="1"/>
</radialGradient>
<radialGradient id="paint44_radial_1_80" cx="0" cy="0" r="1" gradientUnits="userSpaceOnUse" gradientTransform="translate(961.264 290.057) rotate(180) scale(780.107 775.32)">
<stop offset="0.0672" stop-color="#C0C0C0"/>
<stop offset="0.2938" stop-color="#4C4C4C"/>
<stop offset="0.349" stop-color="#414141"/>
<stop offset="0.5124" stop-color="#242424"/>
<stop offset="0.6762" stop-color="#101010"/>
<stop offset="0.839" stop-color="#040404"/>
<stop offset="1"/>
</radialGradient>
<radialGradient id="paint45_radial_1_80" cx="0" cy="0" r="1" gradientUnits="userSpaceOnUse" gradientTransform="translate(961.26 290.062) rotate(180) scale(780.078 775.289)">
<stop offset="0.0672" stop-color="#C0C0C0"/>
<stop offset="0.2938" stop-color="#4C4C4C"/>
<stop offset="0.349" stop-color="#414141"/>
<stop offset="0.5124" stop-color="#242424"/>
<stop offset="0.6762" stop-color="#101010"/>
<stop offset="0.839" stop-color="#040404"/>
<stop offset="1"/>
</radialGradient>
<radialGradient id="paint46_radial_1_80" cx="0" cy="0" r="1" gradientUnits="userSpaceOnUse" gradientTransform="translate(961.262 290.062) rotate(180) scale(780.095 775.312)">
<stop offset="0.0672" stop-color="#C0C0C0"/>
<stop offset="0.2938" stop-color="#4C4C4C"/>
<stop offset="0.349" stop-color="#414141"/>
<stop offset="0.5124" stop-color="#242424"/>
<stop offset="0.6762" stop-color="#101010"/>
<stop offset="0.839" stop-color="#040404"/>
<stop offset="1"/>
</radialGradient>
<radialGradient id="paint47_radial_1_80" cx="0" cy="0" r="1" gradientUnits="userSpaceOnUse" gradientTransform="translate(961.261 290.063) rotate(180) scale(780.094 775.31)">
<stop offset="0.0672" stop-color="#C0C0C0"/>
<stop offset="0.2938" stop-color="#4C4C4C"/>
<stop offset="0.349" stop-color="#414141"/>
<stop offset="0.5124" stop-color="#242424"/>
<stop offset="0.6762" stop-color="#101010"/>
<stop offset="0.839" stop-color="#040404"/>
<stop offset="1"/>
</radialGradient>
<radialGradient id="paint48_radial_1_80" cx="0" cy="0" r="1" gradientUnits="userSpaceOnUse" gradientTransform="translate(961.261 290.062) rotate(180) scale(780.096 775.312)">
<stop offset="0.0672" stop-color="#C0C0C0"/>
<stop offset="0.2938" stop-color="#4C4C4C"/>
<stop offset="0.349" stop-color="#414141"/>
<stop offset="0.5124" stop-color="#242424"/>
<stop offset="0.6762" stop-color="#101010"/>
<stop offset="0.839" stop-color="#040404"/>
<stop offset="1"/>
</radialGradient>
<radialGradient id="paint49_radial_1_80" cx="0" cy="0" r="1" gradientUnits="userSpaceOnUse" gradientTransform="translate(961.261 290.062) rotate(180) scale(780.1 775.315)">
<stop offset="0.0672" stop-color="#C0C0C0"/>
<stop offset="0.2938" stop-color="#4C4C4C"/>
<stop offset="0.349" stop-color="#414141"/>
<stop offset="0.5124" stop-color="#242424"/>
<stop offset="0.6762" stop-color="#101010"/>
<stop offset="0.839" stop-color="#040404"/>
<stop offset="1"/>
</radialGradient>
<radialGradient id="paint50_radial_1_80" cx="0" cy="0" r="1" gradientUnits="userSpaceOnUse" gradientTransform="translate(961.262 290.062) rotate(180) scale(780.094 775.31)">
<stop offset="0.0672" stop-color="#C0C0C0"/>
<stop offset="0.2938" stop-color="#4C4C4C"/>
<stop offset="0.349" stop-color="#414141"/>
<stop offset="0.5124" stop-color="#242424"/>
<stop offset="0.6762" stop-color="#101010"/>
<stop offset="0.839" stop-color="#040404"/>
<stop offset="1"/>
</radialGradient>
<radialGradient id="paint51_radial_1_80" cx="0" cy="0" r="1" gradientUnits="userSpaceOnUse" gradientTransform="translate(961.262 290.063) rotate(180) scale(780.096 775.314)">
<stop offset="0.0672" stop-color="#C0C0C0"/>
<stop offset="0.2938" stop-color="#4C4C4C"/>
<stop offset="0.349" stop-color="#414141"/>
<stop offset="0.5124" stop-color="#242424"/>
<stop offset="0.6762" stop-color="#101010"/>
<stop offset="0.839" stop-color="#040404"/>
<stop offset="1"/>
</radialGradient>
<radialGradient id="paint52_radial_1_80" cx="0" cy="0" r="1" gradientUnits="userSpaceOnUse" gradientTransform="translate(961.261 290.062) rotate(180) scale(780.102 775.319)">
<stop offset="0.0672" stop-color="#C0C0C0"/>
<stop offset="0.2938" stop-color="#4C4C4C"/>
<stop offset="0.349" stop-color="#414141"/>
<stop offset="0.5124" stop-color="#242424"/>
<stop offset="0.6762" stop-color="#101010"/>
<stop offset="0.839" stop-color="#040404"/>
<stop offset="1"/>
</radialGradient>
<radialGradient id="paint53_radial_1_80" cx="0" cy="0" r="1" gradientUnits="userSpaceOnUse" gradientTransform="translate(961.261 290.061) rotate(180) scale(780.098 775.313)">
<stop offset="0.0672" stop-color="#C0C0C0"/>
<stop offset="0.2938" stop-color="#4C4C4C"/>
<stop offset="0.349" stop-color="#414141"/>
<stop offset="0.5124" stop-color="#242424"/>
<stop offset="0.6762" stop-color="#101010"/>
<stop offset="0.839" stop-color="#040404"/>
<stop offset="1"/>
</radialGradient>
<radialGradient id="paint54_radial_1_80" cx="0" cy="0" r="1" gradientUnits="userSpaceOnUse" gradientTransform="translate(961.262 290.063) rotate(180) scale(780.097 775.313)">
<stop offset="0.0672" stop-color="#C0C0C0"/>
<stop offset="0.2938" stop-color="#4C4C4C"/>
<stop offset="0.349" stop-color="#414141"/>
<stop offset="0.5124" stop-color="#242424"/>
<stop offset="0.6762" stop-color="#101010"/>
<stop offset="0.839" stop-color="#040404"/>
<stop offset="1"/>
</radialGradient>
<radialGradient id="paint55_radial_1_80" cx="0" cy="0" r="1" gradientUnits="userSpaceOnUse" gradientTransform="translate(961.261 290.065) rotate(180) scale(780.094 775.306)">
<stop offset="0.0672" stop-color="#C0C0C0"/>
<stop offset="0.2938" stop-color="#4C4C4C"/>
<stop offset="0.349" stop-color="#414141"/>
<stop offset="0.5124" stop-color="#242424"/>
<stop offset="0.6762" stop-color="#101010"/>
<stop offset="0.839" stop-color="#040404"/>
<stop offset="1"/>
</radialGradient>
<clipPath id="clip0_1_80">
<rect width="1440" height="749" fill="white"/>
</clipPath>
</defs>
</svg>
