<svg width="26" height="20" viewBox="0 0 26 20" fill="none" xmlns="http://www.w3.org/2000/svg">
<path fill-rule="evenodd" clip-rule="evenodd" d="M0.221843 0.371876C0.238303 0.35151 0.255547 0.331803 0.273528 0.312801C0.368034 0.212831 0.478461 0.136595 0.597235 0.0844217C0.715954 0.0321215 0.84677 0.00223445 0.984323 0.000120468L1.00372 0H24.9963L25.0157 0.000120467C25.1532 0.00223445 25.284 0.0321214 25.4028 0.0844216C25.5213 0.136502 25.6316 0.212558 25.726 0.312264C25.8958 0.491495 26 0.733581 26 1V1.00308V18C26 18.5304 25.7893 19.0391 25.4142 19.4142C25.0391 19.7893 24.5304 20 24 20H2C1.46957 20 0.960861 19.7893 0.585787 19.4142C0.210714 19.0391 0 18.5304 0 18V1.00318V1C0 0.978909 0.000652891 0.957971 0.00193963 0.937204C0.0151687 0.7237 0.0953924 0.528335 0.221843 0.371876ZM2 3.27324V16.7268L9.33829 10L2 3.27324ZM22.4292 18H3.57084L10.8182 11.3566L12.3243 12.7372C12.7066 13.0876 13.2934 13.0876 13.6757 12.7372L15.1818 11.3566L22.4292 18ZM24 16.7268V3.27323L16.6617 10L24 16.7268ZM14.5161 9.25368L22.4292 2H3.5708L11.4852 9.2549L11.5009 9.26925L13 10.6434L14.4977 9.2705C14.5038 9.2648 14.5099 9.2592 14.5161 9.25368Z" fill="url(#paint0_linear_2_749)"/>
<defs>
<linearGradient id="paint0_linear_2_749" x1="3.65625" y1="-6.38162" x2="24.6888" y2="12.0836" gradientUnits="userSpaceOnUse">
<stop stop-color="#6CE4E6"/>
<stop offset="0.327443" stop-color="#6E98DC"/>
<stop offset="0.667979" stop-color="#8B59DC"/>
<stop offset="1" stop-color="#CF30DB"/>
</linearGradient>
</defs>
</svg>
