<svg width="88" height="29" viewBox="0 0 88 29" fill="none" xmlns="http://www.w3.org/2000/svg">
<g clip-path="url(#clip0_1008_1096)">
<path d="M10.7415 0.00512695H11.5171C14.21 0.0638229 16.8589 1.1497 18.7614 3.07199C18.0589 3.79101 17.3418 4.48069 16.654 5.19972C15.5856 4.23123 14.2978 3.48286 12.8928 3.21873C10.8147 2.77851 8.57554 3.17471 6.83399 4.3633C4.93146 5.61059 3.64359 7.72364 3.36553 9.98344C3.0582 12.2139 3.68749 14.5617 5.13634 16.2932C6.52666 17.9808 8.64871 19.0373 10.8439 19.1107C12.8928 19.228 15.0295 18.5971 16.5223 17.159C17.6931 16.1465 18.2345 14.6057 18.4102 13.109C15.9808 13.109 13.5514 13.1237 11.122 13.109V10.0862H21.3518C21.8786 13.3291 21.1176 16.9829 18.659 19.3014C17.0198 20.9449 14.7514 21.9134 12.4391 22.1041C10.2 22.3243 7.8877 21.8987 5.89736 20.8128C3.51188 19.5362 1.60934 17.3791 0.672714 14.8405C-0.205378 12.5074 -0.220012 9.86604 0.599539 7.51821C1.34592 5.37581 2.78013 3.48286 4.62413 2.1622C6.39494 0.856218 8.54627 0.137193 10.7415 0.00512695Z" fill="#4385F5"/>
<path d="M69.4278 0.765503H72.5596V21.72C71.5206 21.72 70.4669 21.7346 69.4278 21.7053C69.4424 14.7351 69.4278 7.75032 69.4278 0.765503Z" fill="#34A853"/>
<path d="M28.3184 8.02916C30.2502 7.66231 32.343 8.07318 33.9382 9.23242C35.387 10.2596 36.3969 11.8737 36.7042 13.6346C37.0993 15.6743 36.6017 17.9048 35.2846 19.5189C33.865 21.3238 31.5381 22.2923 29.2697 22.1455C27.1915 22.0281 25.1719 20.9863 23.9426 19.2841C22.5523 17.4058 22.2157 14.8232 22.9767 12.6221C23.7377 10.2596 25.889 8.4547 28.3184 8.02916ZM28.7574 10.8172C27.9672 11.0226 27.2354 11.4775 26.7086 12.1232C25.289 13.8254 25.3768 16.5988 26.9427 18.1836C27.8355 19.0933 29.1819 19.5189 30.4258 19.2694C31.582 19.064 32.5918 18.2863 33.1479 17.2591C34.1138 15.5129 33.8357 13.1064 32.3576 11.7417C31.4064 10.8612 30.016 10.4944 28.7574 10.8172Z" fill="#EA4235"/>
<path d="M43.8313 8.02914C46.0412 7.60359 48.4559 8.2199 50.1097 9.77534C52.8025 12.1965 53.0952 16.7308 50.7975 19.5189C49.4072 21.2797 47.1534 22.2482 44.9289 22.1455C42.8069 22.0868 40.7141 21.0303 39.4555 19.2841C38.0359 17.3618 37.7286 14.7205 38.5335 12.4754C39.3384 10.1862 41.4459 8.44001 43.8313 8.02914ZM44.2704 10.8172C43.4801 11.0226 42.7484 11.4775 42.2215 12.1085C40.8166 13.7813 40.8751 16.5107 42.3825 18.1102C43.2752 19.064 44.6655 19.5335 45.9534 19.2694C47.0949 19.0493 48.1193 18.2863 48.6755 17.2591C49.6267 15.4982 49.3487 13.0917 47.8559 11.727C46.9047 10.8465 45.5143 10.4944 44.2704 10.8172Z" fill="#FABC05"/>
<path d="M56.9881 8.88032C58.6711 7.82379 60.9103 7.53031 62.725 8.4401C63.2957 8.68956 63.7641 9.1151 64.2177 9.54065C64.2324 9.14445 64.2177 8.73358 64.2324 8.32271C65.2129 8.33738 66.1935 8.32271 67.1886 8.33738V21.2798C67.174 23.2315 66.6764 25.3005 65.2715 26.7239C63.7348 28.294 61.3786 28.7783 59.2565 28.4554C56.9881 28.1179 55.0124 26.4598 54.1343 24.3614C55.0124 23.9358 55.9344 23.5983 56.8418 23.2021C57.354 24.4054 58.3931 25.4326 59.6956 25.6674C60.9981 25.9022 62.5055 25.5793 63.3543 24.4935C64.2616 23.3782 64.2616 21.8521 64.2177 20.4875C63.5445 21.1478 62.7689 21.7347 61.8323 21.9549C59.798 22.5271 57.5589 21.8228 55.993 20.4434C54.4124 19.0641 53.4758 16.9363 53.5636 14.8233C53.6075 12.4314 54.9539 10.1276 56.9881 8.88032ZM60.0175 10.7586C59.1248 10.9053 58.2906 11.4042 57.7199 12.0939C56.3442 13.7374 56.3442 16.3641 57.7345 17.9782C58.5248 18.932 59.798 19.4603 61.0273 19.3282C62.1835 19.2108 63.2518 18.4771 63.8226 17.4646C64.7885 15.7478 64.6275 13.4146 63.325 11.9178C62.5201 10.9934 61.2322 10.5385 60.0175 10.7586Z" fill="#4385F5"/>
<path d="M76.3208 9.62876C78.0769 7.98527 80.7844 7.42766 83.0382 8.29342C85.1749 9.10049 86.5359 11.1402 87.2237 13.2386C84.048 14.5592 80.8868 15.8652 77.7111 17.1859C78.1501 18.0223 78.8233 18.7853 79.7307 19.0935C81.0039 19.5484 82.5259 19.387 83.5943 18.5359C84.0187 18.213 84.3553 17.7875 84.6773 17.3766C85.4822 17.9196 86.2871 18.4478 87.092 18.9908C85.9505 20.7076 84.0333 21.9109 81.9698 22.1017C79.6868 22.3805 77.2574 21.5 75.7793 19.7098C73.3499 16.8924 73.584 12.1674 76.3208 9.62876ZM77.8867 12.3434C77.3891 13.0625 77.1842 13.9429 77.1988 14.8087C79.3209 13.9282 81.443 13.0478 83.565 12.1527C83.2138 11.3309 82.365 10.832 81.5015 10.7C80.1112 10.4505 78.6623 11.1989 77.8867 12.3434Z" fill="#EA4235"/>
</g>
<defs>
<clipPath id="clip0_1008_1096">
<rect width="87.2237" height="28.5459" fill="white"/>
</clipPath>
</defs>
</svg>
