<svg width="22" height="28" viewBox="0 0 22 28" fill="none" xmlns="http://www.w3.org/2000/svg">
<path fill-rule="evenodd" clip-rule="evenodd" d="M4.63604 4.63604C6.32387 2.94821 8.61305 2 11 2C13.3869 2 15.6761 2.94821 17.364 4.63604C19.0518 6.32387 20 8.61305 20 11C20 15.1399 17.6882 18.9096 15.2454 21.7188C14.0362 23.1094 12.8245 24.2305 11.9149 25.0037C11.5551 25.3095 11.2438 25.5599 11 25.75C10.7562 25.5599 10.4449 25.3095 10.0851 25.0037C9.1755 24.2305 7.96377 23.1094 6.75461 21.7188C4.31185 18.9096 2 15.1399 2 11C2 8.61305 2.94821 6.32387 4.63604 4.63604ZM10.999 28H2C1.44772 28 1 27.5523 1 27C1 26.4477 1.44772 26 2 26H8.18414C7.31679 25.2262 6.28192 24.2232 5.24539 23.0312C2.68815 20.0904 0 15.8601 0 11C0 8.08262 1.15893 5.28473 3.22183 3.22183C5.28473 1.15893 8.08262 0 11 0C13.9174 0 16.7153 1.15893 18.7782 3.22183C20.8411 5.28473 22 8.08262 22 11C22 15.8601 19.3118 20.0904 16.7546 23.0312C15.7181 24.2232 14.6832 25.2262 13.8159 26H20C20.5523 26 21 26.4477 21 27C21 27.5523 20.5523 28 20 28H11.001C11.0003 28 10.9997 28 10.999 28ZM11 8C9.34315 8 8 9.34315 8 11C8 12.6569 9.34315 14 11 14C12.6569 14 14 12.6569 14 11C14 9.34315 12.6569 8 11 8ZM6 11C6 8.23858 8.23858 6 11 6C13.7614 6 16 8.23858 16 11C16 13.7614 13.7614 16 11 16C8.23858 16 6 13.7614 6 11Z" fill="url(#paint0_linear_2_750)"/>
<defs>
<linearGradient id="paint0_linear_2_750" x1="3.09375" y1="-8.93426" x2="27.6841" y2="4.11389" gradientUnits="userSpaceOnUse">
<stop stop-color="#6CE4E6"/>
<stop offset="0.327443" stop-color="#6E98DC"/>
<stop offset="0.667979" stop-color="#8B59DC"/>
<stop offset="1" stop-color="#CF30DB"/>
</linearGradient>
</defs>
</svg>
