<svg width="196" height="38" viewBox="0 0 196 38" fill="none" xmlns="http://www.w3.org/2000/svg">
<path d="M0 23.899L3.40485 21.3537C4.04395 22.5878 4.80426 23.5024 5.68577 24.0974C6.56729 24.6704 7.54797 24.9569 8.62783 24.9569C9.68565 24.9569 10.501 24.6814 11.074 24.1304C11.647 23.5574 11.9335 22.8082 11.9335 21.8826C11.9335 21.4198 11.8674 21.0121 11.7352 20.6595C11.6029 20.2848 11.3715 19.9322 11.041 19.6016C10.7104 19.2711 10.2697 18.9405 9.7187 18.6099C9.16776 18.2794 8.47356 17.9378 7.63612 17.5852C6.62238 17.1444 5.70781 16.7037 4.89241 16.2629C4.09905 15.8001 3.42689 15.2932 2.87594 14.7423C2.325 14.1693 1.89526 13.5302 1.58673 12.825C1.30023 12.0977 1.15699 11.2603 1.15699 10.3127C1.15699 9.32098 1.34431 8.40641 1.71895 7.56897C2.11564 6.73153 2.65556 6.00428 3.33874 5.38722C4.04395 4.77016 4.87037 4.28532 5.818 3.93272C6.78767 3.58011 7.83447 3.40381 8.9584 3.40381C10.6994 3.40381 12.1869 3.75641 13.4211 4.46162C14.6772 5.1448 15.702 6.08141 16.4954 7.27145L13.3219 10.1143C12.815 9.34302 12.22 8.74799 11.5368 8.32927C10.8757 7.91055 10.0823 7.70119 9.15674 7.70119C8.27522 7.70119 7.55899 7.94361 7.00804 8.42844C6.4571 8.89124 6.18162 9.46422 6.18162 10.1474C6.18162 10.478 6.24774 10.7865 6.37997 11.073C6.53423 11.3595 6.77665 11.646 7.10721 11.9325C7.45982 12.219 7.92262 12.5055 8.4956 12.7919C9.06859 13.0784 9.7738 13.409 10.6112 13.7836C11.7131 14.2464 12.6608 14.7423 13.4541 15.2712C14.2695 15.7781 14.9307 16.3511 15.4375 16.9902C15.9664 17.6072 16.3521 18.3124 16.5945 19.1058C16.859 19.8992 16.9912 20.8027 16.9912 21.8165C16.9912 22.9404 16.7818 23.9651 16.3631 24.8907C15.9664 25.7943 15.4045 26.5766 14.6772 27.2378C13.95 27.8769 13.0905 28.3727 12.0988 28.7253C11.1071 29.0779 10.0272 29.2542 8.85923 29.2542C7.77937 29.2542 6.76563 29.122 5.818 28.8576C4.89241 28.5931 4.05497 28.2295 3.30568 27.7667C2.57843 27.2818 1.92831 26.7199 1.35533 26.0808C0.804383 25.4196 0.352606 24.6924 0 23.899Z" fill="white"/>
<path d="M19.473 20.7917C19.473 19.5796 19.6824 18.4557 20.1011 17.4199C20.5198 16.3621 21.1038 15.4475 21.8531 14.6762C22.6245 13.9049 23.539 13.2988 24.5969 12.8581C25.6767 12.4173 26.8668 12.1969 28.167 12.1969C29.0705 12.1969 29.93 12.3071 30.7454 12.5275C31.5608 12.7258 32.233 12.9793 32.7619 13.2878V18.1141C32.1228 17.497 31.4727 17.0342 30.8115 16.7257C30.1724 16.4172 29.4342 16.2629 28.5967 16.2629C27.2745 16.2629 26.2277 16.6816 25.4563 17.5191C24.707 18.3565 24.3324 19.4253 24.3324 20.7256C24.3324 21.9817 24.685 23.0396 25.3902 23.899C26.0954 24.7585 27.1422 25.1882 28.5306 25.1882C29.3681 25.1882 30.1063 25.045 30.7454 24.7585C31.3845 24.45 32.0567 24.0092 32.7619 23.4362L32.6627 28.1303C32.1118 28.4609 31.4506 28.7253 30.6793 28.9237C29.908 29.144 29.1146 29.2542 28.2992 29.2542C26.9769 29.2542 25.7759 29.0449 24.696 28.6262C23.6162 28.2074 22.6796 27.6345 21.8862 26.9072C21.1149 26.1579 20.5198 25.2654 20.1011 24.2296C19.6824 23.1938 19.473 22.0479 19.473 20.7917Z" fill="white"/>
<path d="M35.4849 20.6264C35.4849 19.4143 35.7053 18.3014 36.1461 17.2877C36.5868 16.2519 37.2039 15.3594 37.9973 14.6101C38.7906 13.8608 39.7272 13.2768 40.8071 12.8581C41.909 12.4173 43.11 12.1969 44.4103 12.1969C45.7105 12.1969 46.9006 12.4063 47.9804 12.825C49.0823 13.2437 50.0299 13.8277 50.8233 14.577C51.6167 15.3263 52.2337 16.2299 52.6745 17.2877C53.1152 18.3235 53.3356 19.4694 53.3356 20.7256C53.3356 21.9817 53.1152 23.1387 52.6745 24.1965C52.2337 25.2323 51.6167 26.1249 50.8233 26.8741C50.0299 27.6234 49.0823 28.2074 47.9804 28.6262C46.8785 29.0449 45.6664 29.2542 44.3442 29.2542C43.066 29.2542 41.8759 29.0449 40.774 28.6262C39.6942 28.2074 38.7576 27.6234 37.9642 26.8741C37.1929 26.1249 36.5868 25.2213 36.1461 24.1635C35.7053 23.0836 35.4849 21.9046 35.4849 20.6264ZM40.2782 20.6925C40.2782 22.0589 40.6528 23.1497 41.4021 23.9651C42.1514 24.7585 43.1541 25.1552 44.4103 25.1552C45.6664 25.1552 46.6692 24.7585 47.4184 23.9651C48.1677 23.1497 48.5424 22.0699 48.5424 20.7256C48.5424 19.4033 48.1677 18.3345 47.4184 17.5191C46.6692 16.7037 45.6664 16.296 44.4103 16.296C43.1541 16.296 42.1514 16.7037 41.4021 17.5191C40.6528 18.3345 40.2782 19.3923 40.2782 20.6925Z" fill="white"/>
<path d="M55.6612 20.6264C55.6612 19.4143 55.8816 18.3014 56.3224 17.2877C56.7631 16.2519 57.3802 15.3594 58.1735 14.6101C58.9669 13.8608 59.9035 13.2768 60.9834 12.8581C62.0853 12.4173 63.2863 12.1969 64.5866 12.1969C65.8868 12.1969 67.0768 12.4063 68.1567 12.825C69.2586 13.2437 70.2062 13.8277 70.9996 14.577C71.7929 15.3263 72.41 16.2299 72.8508 17.2877C73.2915 18.3235 73.5119 19.4694 73.5119 20.7256C73.5119 21.9817 73.2915 23.1387 72.8508 24.1965C72.41 25.2323 71.7929 26.1249 70.9996 26.8741C70.2062 27.6234 69.2586 28.2074 68.1567 28.6262C67.0548 29.0449 65.8427 29.2542 64.5204 29.2542C63.2422 29.2542 62.0522 29.0449 60.9503 28.6262C59.8705 28.2074 58.9338 27.6234 58.1405 26.8741C57.3692 26.1249 56.7631 25.2213 56.3224 24.1635C55.8816 23.0836 55.6612 21.9046 55.6612 20.6264ZM60.4545 20.6925C60.4545 22.0589 60.8291 23.1497 61.5784 23.9651C62.3277 24.7585 63.3304 25.1552 64.5866 25.1552C65.8427 25.1552 66.8454 24.7585 67.5947 23.9651C68.344 23.1497 68.7187 22.0699 68.7187 20.7256C68.7187 19.4033 68.344 18.3345 67.5947 17.5191C66.8454 16.7037 65.8427 16.296 64.5866 16.296C63.3304 16.296 62.3277 16.7037 61.5784 17.5191C60.8291 18.3345 60.4545 19.3923 60.4545 20.6925Z" fill="white"/>
<path d="M81.5894 12.6267L81.5563 14.5109H81.5894C82.3387 13.7396 83.132 13.1556 83.9695 12.7589C84.8069 12.3622 85.7325 12.1639 86.7462 12.1639C87.9143 12.1639 88.9721 12.3953 89.9197 12.8581C90.8894 13.2988 91.7158 13.9049 92.399 14.6762C93.0821 15.4475 93.6 16.3511 93.9526 17.3868C94.3273 18.4226 94.5146 19.5355 94.5146 20.7256C94.5146 21.8936 94.3273 22.9955 93.9526 24.0313C93.578 25.045 93.0491 25.9375 92.3659 26.7089C91.6827 27.4802 90.8673 28.0862 89.9197 28.527C88.9721 28.9677 87.9253 29.1881 86.7793 29.1881C85.7435 29.1881 84.7959 29.0008 83.9364 28.6262C83.099 28.2515 82.3166 27.6675 81.5894 26.8741H81.5563C81.6004 27.381 81.6224 27.8438 81.6224 28.2625C81.6224 28.6813 81.6224 29.111 81.6224 29.5517V37.0226H76.8292V12.6267H81.5894ZM81.358 20.6925C81.358 21.3096 81.4572 21.8936 81.6555 22.4445C81.8538 22.9734 82.1403 23.4362 82.515 23.8329C82.8896 24.2296 83.3304 24.5492 83.8372 24.7916C84.3661 25.0119 84.9391 25.1221 85.5562 25.1221C86.1953 25.1221 86.7683 25.0119 87.2751 24.7916C87.782 24.5712 88.2118 24.2627 88.5644 23.866C88.917 23.4693 89.1924 23.0065 89.3908 22.4776C89.5891 21.9266 89.6883 21.3426 89.6883 20.7256C89.6883 19.4033 89.3247 18.3234 88.5974 17.486C87.8922 16.6486 86.8895 16.2299 85.5893 16.2299C84.3111 16.2299 83.2863 16.6486 82.515 17.486C81.7436 18.3234 81.358 19.3923 81.358 20.6925Z" fill="white"/>
<path d="M104.498 22.7687C104.498 21.3953 104.751 20.1199 105.258 18.9427C105.765 17.7654 106.452 16.7517 107.319 15.9014C108.185 15.0349 109.191 14.3645 110.335 13.8903C111.496 13.3998 112.731 13.1545 114.039 13.1545C115.608 13.1545 116.99 13.4652 118.184 14.0865C119.377 14.7078 120.514 15.6562 121.593 16.9315L120.121 18.305C119.353 17.2749 118.461 16.4819 117.448 15.926C116.45 15.3537 115.33 15.0676 114.088 15.0676C113.041 15.0676 112.06 15.2638 111.145 15.6562C110.229 16.0486 109.428 16.5882 108.741 17.2749C108.071 17.9616 107.539 18.7792 107.147 19.7275C106.754 20.6595 106.558 21.6732 106.558 22.7687C106.558 23.8806 106.754 24.9025 107.147 25.8345C107.556 26.7665 108.087 27.5758 108.741 28.2626C109.411 28.9329 110.188 29.4643 111.071 29.8567C111.954 30.2328 112.87 30.4208 113.818 30.4208C114.734 30.4208 115.567 30.2737 116.32 29.9794C117.088 29.6687 117.75 29.2518 118.306 28.7285C118.878 28.2053 119.328 27.5922 119.655 26.8891C119.998 26.1697 120.195 25.4012 120.244 24.5836V24.5591H114.922V22.6706H122.451V23.1121C122.451 24.4855 122.239 25.7445 121.813 26.8891C121.405 28.0173 120.816 28.9902 120.048 29.8077C119.295 30.6089 118.388 31.2302 117.325 31.6717C116.262 32.1131 115.077 32.3339 113.769 32.3339C112.477 32.3339 111.267 32.0886 110.139 31.5981C109.011 31.0912 108.03 30.4127 107.196 29.5624C106.362 28.6958 105.7 27.6821 105.209 26.5212C104.735 25.344 104.498 24.0931 104.498 22.7687Z" fill="white"/>
<path d="M125.88 31.9905V13.4979H127.915V30.0775H133.679V31.9905H125.88Z" fill="white"/>
<path d="M134.7 22.6951C134.7 21.3707 134.954 20.1281 135.461 18.9672C135.984 17.8063 136.679 16.8007 137.545 15.9505C138.428 15.0839 139.45 14.4053 140.611 13.9148C141.772 13.408 143.007 13.1545 144.315 13.1545C145.606 13.1545 146.825 13.408 147.969 13.9148C149.13 14.4053 150.144 15.0839 151.01 15.9505C151.893 16.8007 152.588 17.8145 153.095 18.9917C153.602 20.1526 153.855 21.4116 153.855 22.7687C153.855 24.1095 153.594 25.3603 153.07 26.5212C152.564 27.6821 151.869 28.6958 150.986 29.5624C150.119 30.4127 149.097 31.0912 147.92 31.5981C146.759 32.0886 145.525 32.3339 144.217 32.3339C142.941 32.3339 141.731 32.0886 140.587 31.5981C139.442 31.1076 138.428 30.4372 137.545 29.587C136.679 28.7204 135.984 27.6985 135.461 26.5212C134.954 25.344 134.7 24.0686 134.7 22.6951ZM136.761 22.7197C136.761 23.8315 136.965 24.8616 137.374 25.8099C137.783 26.7419 138.33 27.5513 139.017 28.238C139.704 28.9084 140.497 29.4398 141.396 29.8322C142.295 30.2083 143.236 30.3963 144.217 30.3963C145.263 30.3963 146.244 30.2001 147.16 29.8077C148.092 29.4153 148.901 28.8757 149.588 28.189C150.274 27.5022 150.814 26.6929 151.206 25.7609C151.615 24.8289 151.82 23.8233 151.82 22.7442C151.82 21.6487 151.615 20.635 151.206 19.703C150.814 18.7546 150.274 17.9371 149.588 17.2504C148.917 16.5636 148.124 16.0322 147.209 15.6562C146.293 15.2638 145.32 15.0676 144.29 15.0676C143.276 15.0676 142.312 15.2638 141.396 15.6562C140.48 16.0486 139.679 16.5882 138.993 17.2749C138.306 17.9616 137.758 18.771 137.349 19.703C136.957 20.635 136.761 21.6405 136.761 22.7197Z" fill="white"/>
<path d="M157.28 31.9905V13.4979H160.247C162.275 13.4979 163.82 13.9148 164.883 14.7487C165.946 15.5826 166.477 16.768 166.477 18.305C166.477 19.237 166.232 20.0545 165.741 20.7576C165.251 21.4443 164.638 21.943 163.902 22.2537V22.2782C165.226 22.5398 166.248 23.063 166.968 23.8479C167.703 24.6327 168.071 25.6137 168.071 26.791C168.071 28.4915 167.483 29.7832 166.305 30.6661C165.144 31.549 163.542 31.9905 161.498 31.9905H157.28ZM161.67 30.0775C162.422 30.0775 163.068 29.9957 163.607 29.8322C164.163 29.6524 164.613 29.4153 164.956 29.121C165.316 28.8103 165.578 28.4506 165.741 28.0418C165.905 27.6331 165.986 27.1916 165.986 26.7174C165.986 26.2432 165.905 25.8099 165.741 25.4175C165.578 25.0088 165.308 24.6572 164.932 24.3629C164.556 24.0686 164.073 23.8397 163.485 23.6762C162.896 23.5127 162.169 23.4309 161.302 23.4309H159.315V30.0775H161.67ZM160.713 21.7141C161.972 21.7141 162.904 21.4034 163.509 20.7821C164.131 20.1608 164.441 19.3596 164.441 18.3786C164.441 17.3975 164.131 16.6536 163.509 16.1467C162.904 15.6235 161.948 15.3619 160.64 15.3619H159.315V21.7141H160.713Z" fill="white"/>
<path d="M177.813 12.5168H177.886L186.25 31.9905H184.018L181.835 26.7665H173.594L171.362 31.9905H169.18L177.813 12.5168ZM181.05 24.8534L179.432 20.9783C179.154 20.3079 178.876 19.6457 178.598 18.9917C178.336 18.3377 178.066 17.6755 177.788 17.0051C177.51 17.6918 177.224 18.3622 176.93 19.0162C176.636 19.6703 176.349 20.3325 176.071 21.0029L174.428 24.8534H181.05Z" fill="white"/>
<path d="M188.201 31.9905V13.4979H190.236V30.0775H196V31.9905H188.201Z" fill="white"/>
<path fill-rule="evenodd" clip-rule="evenodd" d="M99.7795 36.6667C96.0477 22.7819 105.048 8.02192 120.202 3.44164C122.768 2.66592 125.349 2.23107 127.889 2.11007C124.382 1.68894 120.733 1.97003 117.136 3.05732C103.206 7.26784 95.3261 21.974 99.5367 35.9044C99.6141 36.1606 99.6951 36.4147 99.7795 36.6667Z" fill="white"/>
</svg>
