<svg width="25" height="25" viewBox="0 0 25 25" fill="none" xmlns="http://www.w3.org/2000/svg">
<path fill-rule="evenodd" clip-rule="evenodd" d="M6.35831 2.00092L6.35806 2.00032L10.3692 9.22164L8.46354 12.1333L8.46342 12.1335C9.40101 14.0439 10.9502 15.5861 12.8648 16.5151L12.865 16.515L13.9999 15.7582L14.9742 17.5123L13.9791 18.1759L13.9764 18.1778C13.6904 18.37 13.3594 18.4848 13.0157 18.5108C12.671 18.5369 12.3254 18.4727 12.013 18.3247L12.0059 18.3213L12.0059 18.3213C9.67896 17.1962 7.79692 15.3227 6.66124 13.0009L7.55954 12.5615L6.65788 12.994C6.50894 12.6834 6.4431 12.3396 6.46679 11.996C6.4904 11.6534 6.60218 11.3229 6.79124 11.0363L8.86963 7.86065L6.35831 2.00092ZM14.9743 17.5123L14.9742 17.5123L17.9999 22.9596C13.7565 22.9596 9.68686 21.2739 6.68629 18.2733C3.68571 15.2727 2 11.2031 2 6.95965C2.00006 5.74312 2.44355 4.56832 3.24742 3.65523C4.04928 2.74443 5.15486 2.15632 6.35806 2.00032L10.3692 9.22162L10.3692 9.22164L13.9999 15.7582L13.9999 15.7582L14.9743 17.5123ZM14.9743 17.5123L17.104 16.0922L22.9587 18.6013L22.9593 18.6015C22.8033 19.8047 22.2152 20.9103 21.3044 21.7122C20.3913 22.516 19.2165 22.9595 18 22.9596L14.9743 17.5123ZM13.9999 15.7582L15.9945 14.4282C16.2713 14.2436 16.5898 14.131 16.9211 14.1005C17.2524 14.0701 17.5861 14.1228 17.8919 14.2539L23.7436 16.7617L23.745 16.7623C24.1428 16.9317 24.4749 17.2256 24.6913 17.5999C24.9081 17.9746 24.9971 18.4096 24.9451 18.8394L24.9443 18.846L24.9443 18.846C24.7284 20.5353 23.9042 22.088 22.6259 23.2133C21.3477 24.3387 19.7031 24.9595 18.0001 24.9596H18C13.2261 24.9596 8.64773 23.0632 5.27208 19.6875C1.89642 16.3119 0 11.7335 0 6.9596V6.95954C8.95262e-05 5.25651 0.620932 3.6119 1.74628 2.33365C2.87163 1.0554 4.42431 0.231173 6.11361 0.0152887L6.12023 0.0144424L6.12023 0.0144645C6.54998 -0.0375421 6.985 0.0515227 7.35973 0.268242C7.73392 0.484647 8.02776 0.816631 8.19712 1.21429L8.19786 1.21602L10.7079 7.07281C10.8378 7.37595 10.8908 7.7065 10.862 8.03505C10.8333 8.36359 10.7237 8.67993 10.5431 8.95588L10.3692 9.22162L13.9999 15.7582ZM14.9615 1.69976C15.1049 1.16643 15.6536 0.850353 16.1869 0.993788C18.0513 1.49522 19.7513 2.47774 21.1165 3.84296C22.4817 5.20817 23.4643 6.90814 23.9657 8.77259C24.1091 9.30592 23.7931 9.85455 23.2597 9.99799C22.7264 10.1414 22.1778 9.82535 22.0343 9.29201C21.6239 7.76598 20.8197 6.37458 19.7023 5.25717C18.5849 4.13976 17.1935 3.33557 15.6675 2.92516C15.1341 2.78172 14.8181 2.23309 14.9615 1.69976ZM13.9259 5.56451C14.0694 5.03117 14.618 4.7151 15.1513 4.85853C16.3377 5.17759 17.4194 5.80278 18.2881 6.67147C19.1568 7.54016 19.782 8.62185 20.101 9.80821C20.2444 10.3415 19.9284 10.8902 19.395 11.0336C18.8617 11.177 18.3131 10.861 18.1696 10.3276C17.9416 9.4797 17.4948 8.70657 16.8739 8.08568C16.253 7.46479 15.4799 7.01795 14.6319 6.78991C14.0986 6.64647 13.7825 6.09784 13.9259 5.56451Z" fill="url(#paint0_linear_2_748)"/>
<defs>
<linearGradient id="paint0_linear_2_748" x1="3.50994" y1="-7.96413" x2="28.0646" y2="8.61849" gradientUnits="userSpaceOnUse">
<stop stop-color="#6CE4E6"/>
<stop offset="0.327443" stop-color="#6E98DC"/>
<stop offset="0.667979" stop-color="#8B59DC"/>
<stop offset="1" stop-color="#CF30DB"/>
</linearGradient>
</defs>
</svg>
