<svg width="68" height="56" viewBox="0 0 68 56" fill="none" xmlns="http://www.w3.org/2000/svg">
<path d="M46.8584 18.4906H64.1213M46.8584 38.0183H64.1213M37.8721 28.2491H66M31.1507 28.2492L47.0568 12.3431C47.7873 11.6125 47.7873 10.4227 47.0568 9.69211C42.0992 4.73451 35.5029 2 28.4997 2C13.9817 2 2 13.7521 2 28.2492C2 42.7671 13.9922 54.4984 28.4997 54.4984C35.5134 54.4984 42.0992 51.7639 47.0568 46.8063C47.7873 46.0757 47.7873 44.8858 47.0568 44.1552L31.1507 28.2492ZM58.3079 9.69208C57.5773 8.96148 56.3875 8.96148 55.6569 9.69208L54.1748 11.1741C50.0313 15.3176 38.7489 26.6001 38.4149 26.9341C37.6739 27.6751 37.6947 28.8649 38.4149 29.5851C38.7384 29.9086 50.0626 41.2329 54.1957 45.3659L55.6569 46.8271C56.0222 47.1924 56.5023 47.3803 56.9824 47.3803C57.4625 47.3803 57.9426 47.1924 58.3079 46.8271C63.2655 41.8695 66 35.2733 66 28.27C66 21.2668 63.2655 14.6497 58.3079 9.69208Z" stroke="url(#paint0_linear_1008_1215)" stroke-width="3" stroke-miterlimit="10" stroke-linecap="round" stroke-linejoin="round"/>
<defs>
<linearGradient id="paint0_linear_1008_1215" x1="11" y1="-14.7512" x2="65.6409" y2="30.2342" gradientUnits="userSpaceOnUse">
<stop stop-color="#6CE4E6"/>
<stop offset="0.327443" stop-color="#6E98DC"/>
<stop offset="0.667979" stop-color="#8B59DC"/>
<stop offset="1" stop-color="#CF30DB"/>
</linearGradient>
</defs>
</svg>
