<svg width="76" height="66" viewBox="0 0 76 66" fill="none" xmlns="http://www.w3.org/2000/svg">
<path d="M26.718 55.865H48.5782V38.8626H26.718V55.865ZM29.1469 41.2915H46.1493V53.4361H29.1469V41.2915ZM32.7903 52.9721L44.0072 47.3638L32.7903 41.7554V52.9721ZM35.2192 45.6854L38.5758 47.3638L35.2192 49.0422V45.6854ZM60.7228 43.7204C63.4014 43.7204 65.5806 41.5412 65.5806 38.8626C65.5806 36.1839 63.4014 34.0048 60.7228 34.0048C58.0442 34.0048 55.865 36.1839 55.865 38.8626C55.865 41.5412 58.0442 43.7204 60.7228 43.7204ZM60.7228 36.4337C62.062 36.4337 63.1517 37.5233 63.1517 38.8626C63.1517 40.2018 62.062 41.2915 60.7228 41.2915C59.3836 41.2915 58.2939 40.2018 58.2939 38.8626C58.2939 37.5233 59.3836 36.4337 60.7228 36.4337ZM55.865 53.4361H65.5806V46.1493H55.865V53.4361ZM58.2939 48.5782H63.1517V51.0071H58.2939V48.5782ZM58.2939 57.0794C58.2939 57.7501 57.7501 58.2939 57.0794 58.2939C56.4087 58.2939 55.865 57.7501 55.865 57.0794C55.865 56.4087 56.4087 55.865 57.0794 55.865C57.7501 55.865 58.2939 56.4087 58.2939 57.0794ZM63.1517 57.0794C63.1517 57.7501 62.6079 58.2939 61.9372 58.2939C61.2666 58.2939 60.7228 57.7501 60.7228 57.0794C60.7228 56.4087 61.2666 55.865 61.9372 55.865C62.6079 55.865 63.1517 56.4087 63.1517 57.0794ZM64.2726 0L62.1168 5.3896L57.7909 9.71565H35.2192V8.50119C35.2192 6.49218 33.5847 4.85782 31.5759 4.85782H29.1469C27.1381 4.85782 25.5036 6.49218 25.5036 8.50119V9.71565H23.0747C21.0658 9.71565 19.4313 11.35 19.4313 13.359V15.7879C19.4313 17.7969 21.0658 19.4313 23.0747 19.4313H26.718V29.2691C24.3422 29.7534 22.4667 31.629 21.9824 34.0048H20.6458C19.0626 34.0048 17.7127 35.0202 17.2113 36.4337H13.6458L8.78795 34.0048H0V60.7228H8.78795L13.6458 58.2939H17.2114C17.7127 59.7073 19.0627 60.7228 20.6459 60.7228H21.9826C22.5468 63.491 25.0002 65.5806 27.9326 65.5806H69.5109L71.9398 64.3661C74.01 63.331 75.2963 61.2499 75.2963 58.935V35.7926C75.2963 33.4777 74.01 31.3966 71.9397 30.3614L69.5107 29.1469H65.5806V17.5053L69.9065 13.1794L75.2963 11.0238V7.99825L67.298 0L64.2726 0ZM27.9325 8.50119C27.9325 7.83157 28.4773 7.28673 29.1469 7.28673H31.5759C32.2455 7.28673 32.7903 7.83157 32.7903 8.50119V9.71565H27.9325V8.50119ZM23.0747 17.0024C22.405 17.0024 21.8602 16.4575 21.8602 15.7879V13.359C21.8602 12.6894 22.405 12.1446 23.0747 12.1446H36.4337V17.0024H34.0048V29.1469H29.1469V17.0024H23.0747ZM55.865 29.1469H36.4337V19.4313H55.865V29.1469ZM9.71565 37.1842L12.1446 38.3987V56.3287L9.71565 57.5432V37.1842ZM14.5735 43.7204H17.0024V46.1493H14.5735V43.7204ZM14.5735 48.5782H17.0024V51.0071H14.5735V48.5782ZM19.4313 46.1493H21.8602V48.5782H19.4313V46.1493ZM21.8602 43.7204H19.4313V41.2915H21.8602V43.7204ZM17.0024 41.2915H14.5735V38.8626H17.0024V41.2915ZM14.5735 53.4361H17.0024V55.865H14.5735V53.4361ZM19.4313 51.0071H21.8602V53.4361H19.4313V51.0071ZM24.2891 36.4337H49.7927C50.4623 36.4337 51.0071 36.9785 51.0071 37.6481V57.0794C51.0071 57.749 50.4623 58.2939 49.7927 58.2939H24.2891V36.4337ZM20.6458 36.4337H21.8602V38.8626H19.4313V37.6481C19.4313 36.9785 19.9761 36.4337 20.6458 36.4337ZM2.42891 36.4337H7.28674V58.2939H2.42891V36.4337ZM19.4313 57.0794V55.865H21.8602V58.2939H20.6458C19.9761 58.2939 19.4313 57.749 19.4313 57.0794ZM24.498 60.7228H49.7927C51.8016 60.7228 53.4361 59.0883 53.4361 57.0794V37.6481C53.4361 35.6393 51.8016 34.0048 49.7927 34.0048H24.498C24.9993 32.5913 26.3493 31.5758 27.9325 31.5758H68.0095V63.1517H27.9325C26.3493 63.1517 24.9994 62.1363 24.498 60.7228ZM72.8673 35.7926V58.9348C72.8673 60.3237 72.0956 61.5724 70.8532 62.1936L70.4384 62.4012V32.3264L70.8532 32.5337C72.0956 33.1549 72.8673 34.4037 72.8673 35.7926ZM58.2939 29.1469V17.0024H38.8626V12.1446H57.7908L63.1517 17.5055V29.1469H58.2939ZM64.3662 15.2848L60.0114 10.9301L63.1517 7.78982L67.5064 12.1446L64.3662 15.2848ZM72.8673 9.37924L69.5165 10.7197L64.5767 5.7799L65.917 2.42891H66.2921L72.8673 9.00413V9.37924Z" fill="url(#paint0_linear_1014_1391)"/>
<defs>
<linearGradient id="paint0_linear_1014_1391" x1="37.6481" y1="65.5806" x2="37.6481" y2="0" gradientUnits="userSpaceOnUse">
<stop stop-color="#9F2FFF"/>
<stop offset="1" stop-color="#0BB1D3"/>
</linearGradient>
</defs>
</svg>
