<svg width="73" height="73" viewBox="0 0 73 73" fill="none" xmlns="http://www.w3.org/2000/svg">
<path d="M59.2002 13.0455L50.1111 0.0304639L22.9878 0L13.8705 12.9937L36.504 40.7205L59.2002 13.0455ZM43.1647 14.1485L36.5098 34.9795L29.9037 14.1341L43.1647 14.1485ZM30.5572 11.7798L36.5454 3.24527L42.5158 11.7941L30.5572 11.7798ZM45.634 14.1519L55.2388 14.1623L39.4998 33.354L45.634 14.1519ZM46.5146 11.7987L49.7777 3.66717L55.4635 11.8097L46.5146 11.7987ZM44.4948 10.5135L38.8089 2.37216L47.7579 2.38251L44.4948 10.5135ZM28.5817 10.4968L25.3364 2.35664L34.2865 2.36757L28.5817 10.4968ZM26.5573 11.7752L17.6083 11.7648L23.3114 3.63498L26.5573 11.7752ZM27.4327 14.1307L33.5226 33.3459L17.8296 14.1203L27.4327 14.1307ZM56.2383 38.1403L57.0706 40.8021L51.5331 43.5709H43.2423C41.9887 43.5709 40.7655 43.8686 39.647 44.4124L35.6459 42.411L19.3137 41.3223L20.3334 38.0604L2.69193 33.0218L0.0151215 32.9764V58.8742H13.8297L14.3981 57.0549L18.7688 60.5525L18.3791 61.0716C17.9239 61.6791 17.6727 62.4315 17.6727 63.1908V63.5828C17.6727 65.5297 19.2574 67.1144 21.2042 67.1144C21.66 67.1144 22.0992 67.0046 22.5125 66.8385C22.9137 68.3479 24.2794 69.4687 25.9129 69.4687C26.3687 69.4687 26.8079 69.3589 27.2211 69.1928C27.6224 70.7022 28.9881 71.8231 30.6216 71.8231C31.6085 71.8231 32.538 71.3862 33.1996 70.6694C33.6945 72.0242 34.9831 73.0002 36.5075 73.0002H36.7104C37.653 73.0002 38.5405 72.6329 39.2067 71.965L40.0781 71.0942C40.7052 71.5558 41.4674 71.8231 42.2514 71.8231C43.893 71.8231 45.2707 70.7327 45.7404 69.2434C46.1312 69.3825 46.5405 69.4687 46.9601 69.4687C48.9408 69.4687 50.5514 67.8886 50.6209 65.924C52.5855 65.8544 54.1651 64.2444 54.1651 62.2631C54.1651 61.7343 54.0461 61.2262 53.8357 60.7583L56.8045 60.0157L62.0972 56.8917L62.7174 58.8742H72.9998V32.9764H70.4386L56.2383 38.1403ZM2.36947 56.5198V35.3778L17.3669 39.6623L12.099 56.5198H2.36947ZM21.2042 64.76C20.5547 64.76 20.0271 64.2312 20.0271 63.5828V63.1908C20.0271 62.9385 20.111 62.6879 20.2627 62.4844L22.6182 59.3449C22.8384 59.0495 23.1901 58.8742 23.5586 58.8742C24.2087 58.8742 24.7358 59.4024 24.7358 60.0513V60.4433C24.7358 60.6951 24.6524 60.9457 24.5007 61.1492L22.1452 64.2887C21.925 64.5841 21.5727 64.76 21.2042 64.76ZM25.9129 67.1144C25.2634 67.1144 24.7358 66.5856 24.7358 65.9372V65.5452C24.7358 65.2928 24.8197 65.0422 24.9714 64.8388L27.3269 61.6993C27.5471 61.4038 27.8988 61.2285 28.2673 61.2285C28.9174 61.2285 29.4444 61.7567 29.4444 62.4057V62.7977C29.4444 63.0494 29.3611 63.3 29.2094 63.5035L26.8539 66.643C26.6337 66.9385 26.2814 67.1144 25.9129 67.1144ZM31.5625 68.9985C31.3424 69.2928 30.9901 69.4687 30.6216 69.4687C29.9721 69.4687 29.4444 68.9399 29.4444 68.2915V67.8995C29.4444 67.6472 29.5284 67.3966 29.6801 67.1931L32.0356 64.0536C32.2557 63.7582 32.6075 63.5828 32.976 63.5828C33.626 63.5828 34.1531 64.1111 34.1531 64.76V65.152C34.1531 65.4038 34.0698 65.6544 33.918 65.8579L31.5625 68.9985ZM38.8618 68.4927C38.8618 68.8071 38.7394 69.1037 38.5169 69.3262L37.5427 70.301C37.3225 70.5194 37.0196 70.6459 36.7104 70.6459H36.5075C35.858 70.6459 35.3303 70.1171 35.3303 69.4687V69.267C35.3303 68.9531 35.4527 68.6565 35.6752 68.4335L36.65 67.4592C36.8702 67.2402 37.1725 67.1144 37.4823 67.1144H37.6847C38.3347 67.1144 38.8618 67.6426 38.8618 68.2915V68.4927ZM50.4916 63.5828C50.1438 63.5828 49.8036 63.4414 49.5575 63.1966L43.2256 56.8647L41.561 58.5293L42.7382 59.7065L47.8935 64.8612C48.143 65.1106 48.2792 65.4411 48.2792 65.7946C48.2792 66.5218 47.6872 67.1144 46.9601 67.1144C46.6123 67.1144 46.272 66.973 46.026 66.7281L39.6941 60.3962L38.0295 62.0608L43.1848 67.2155C43.4343 67.465 43.5705 67.7955 43.5705 68.149C43.5705 68.8761 42.9785 69.4687 42.2514 69.4687C41.9036 69.4687 41.5633 69.3273 41.3173 69.0824L41.1731 68.9376C41.1915 68.7905 41.2162 68.6445 41.2162 68.4927V68.2915C41.2162 66.3441 39.632 64.76 37.6847 64.76H37.4823C37.1455 64.76 36.8219 64.8221 36.5075 64.9129V64.76C36.5075 62.8126 34.9234 61.2285 32.976 61.2285C32.5207 61.2285 32.0816 61.3377 31.6683 61.5038C31.2671 59.9944 29.9014 58.8742 28.2673 58.8742C27.812 58.8742 27.3729 58.9834 26.9596 59.1495C26.5584 57.6401 25.1927 56.5198 23.5586 56.5198C22.4521 56.5198 21.3962 57.048 20.7346 57.9321L20.1828 58.6678L15.1511 54.6431L18.5912 43.6341L35.0147 44.7291L37.2421 45.8425L32.4759 48.8222C31.3154 49.5482 30.6216 50.7972 30.6216 52.1663V52.5773C30.6216 54.7517 32.3908 56.5198 34.5653 56.5198C35.2786 56.5198 35.9804 56.3255 36.5937 55.9571L41.0127 53.3061C41.872 52.7906 43.0314 52.9348 43.7366 53.6413L51.425 61.3297C51.6745 61.5791 51.8107 61.9096 51.8107 62.2631C51.8107 62.9902 51.2187 63.5828 50.4916 63.5828ZM56.0642 57.7746L52.1711 58.7477L45.4001 51.9767C43.9476 50.5242 41.5674 50.2276 39.8005 51.2869L35.3797 53.939C35.1337 54.0873 34.8527 54.1655 34.5653 54.1655C33.6881 54.1655 32.976 53.4533 32.976 52.5773V52.1663C32.976 51.6157 33.2553 51.1116 33.7238 50.8196L40.1241 46.8196C41.0598 46.2345 42.1381 45.9253 43.2423 45.9253H52.0901L57.7817 43.0789L61.3776 54.5868L56.0642 57.7746ZM70.6455 56.5198H64.4481L59.1554 39.5836L70.6455 35.406V56.5198Z" fill="url(#paint0_linear_1014_1396)"/>
<defs>
<linearGradient id="paint0_linear_1014_1396" x1="36.5077" y1="73" x2="36.5077" y2="-0.000234962" gradientUnits="userSpaceOnUse">
<stop stop-color="#9F2FFF"/>
<stop offset="1" stop-color="#0BB1D3"/>
</linearGradient>
</defs>
</svg>
