<svg width="68" height="64" viewBox="0 0 68 64" fill="none" xmlns="http://www.w3.org/2000/svg">
<path d="M46.6728 17.8435L55.455 10.6675M29.6714 10.7823L38.4224 17.8644M12.0548 22.4016L21.9844 11.3872M59.4498 26.4798C55.8409 26.4798 52.91 29.4107 52.91 33.0195V62.1617H66V33.0195C66 29.4107 63.0587 26.4798 59.4498 26.4798ZM42.5528 42.8657C38.9439 42.8657 36.013 45.7966 36.013 49.4055V62.1617H49.103V49.4159C49.103 45.807 46.1617 42.8657 42.5528 42.8657ZM25.4368 31.8201C21.8279 31.8201 18.897 34.751 18.897 38.3598V62.1512H31.987V38.3598C31.987 34.7614 29.0456 31.8201 25.4368 31.8201ZM8.53977 48.8735C4.9309 48.8735 2 51.8044 2 55.4133V62.1617H15.09V55.4133C15.09 51.8149 12.1486 48.8735 8.53977 48.8735ZM13.807 26.3442C13.807 29.2751 11.4289 31.6636 8.48761 31.6636C5.55671 31.6636 3.16819 29.2751 3.16819 26.3442C3.16819 23.4029 5.55671 21.0248 8.48761 21.0248C9.85398 21.0248 11.1056 21.5358 12.0548 22.3911C13.1395 23.3716 13.807 24.7797 13.807 26.3442ZM30.8501 7.44456C30.8501 10.3766 28.4731 12.7536 25.5411 12.7536C22.609 12.7536 20.2321 10.3766 20.2321 7.44456C20.2321 4.51248 22.609 2.13557 25.5411 2.13557C28.4731 2.13557 30.8501 4.51248 30.8501 7.44456ZM47.8618 21.2021C47.8618 24.1341 45.4849 26.5111 42.5528 26.5111C39.6207 26.5111 37.2438 24.1341 37.2438 21.2021C37.2438 18.27 39.6207 15.8931 42.5528 15.8931C45.4849 15.8931 47.8618 18.27 47.8618 21.2021ZM64.8735 7.30899C64.8735 10.2411 62.4966 12.618 59.5645 12.618C56.6325 12.618 54.2555 10.2411 54.2555 7.30899C54.2555 4.37691 56.6325 2 59.5645 2C62.4966 2 64.8735 4.37691 64.8735 7.30899Z" stroke="url(#paint0_linear_1008_1219)" stroke-width="3" stroke-miterlimit="10" stroke-linecap="round" stroke-linejoin="round"/>
<defs>
<linearGradient id="paint0_linear_1008_1219" x1="11" y1="-17.1964" x2="71.4678" y2="26.245" gradientUnits="userSpaceOnUse">
<stop stop-color="#6CE4E6"/>
<stop offset="0.327443" stop-color="#6E98DC"/>
<stop offset="0.667979" stop-color="#8B59DC"/>
<stop offset="1" stop-color="#CF30DB"/>
</linearGradient>
</defs>
</svg>
