<svg width="68" height="61" viewBox="0 0 68 61" fill="none" xmlns="http://www.w3.org/2000/svg">
<path d="M24.1212 43.4538C27.6871 45.8277 31.9786 47.2063 36.6019 47.2063C49.0826 47.2063 59.1999 37.0891 59.1999 24.598C59.1999 12.1173 49.0826 2 36.6019 2C24.1108 2 13.9935 12.1173 13.9935 24.598C13.9935 29.2938 15.424 33.6476 17.8808 37.2653M24.1212 43.4538C21.654 41.8264 19.529 39.7221 17.8808 37.2653M24.1212 43.4538L9.50502 58.07C7.79462 59.7804 4.99578 59.7804 3.28538 58.07C1.57499 56.3596 1.57499 53.5815 3.28538 51.8607L17.8808 37.2653M24.1212 43.4538C21.654 41.8264 19.529 39.7117 17.8808 37.2653M59.1999 3.59637H66M66 3.59637L38.3848 33.0256L24.2663 18.907L8.8105 34.3524L2 27.542M66 3.59637V9.41173" stroke="url(#paint0_linear_1008_1216)" stroke-width="3" stroke-miterlimit="10" stroke-linecap="round" stroke-linejoin="round"/>
<defs>
<linearGradient id="paint0_linear_1008_1216" x1="11" y1="-16.3002" x2="69.4703" y2="27.7635" gradientUnits="userSpaceOnUse">
<stop stop-color="#6CE4E6"/>
<stop offset="0.327443" stop-color="#6E98DC"/>
<stop offset="0.667979" stop-color="#8B59DC"/>
<stop offset="1" stop-color="#CF30DB"/>
</linearGradient>
</defs>
</svg>
