<svg width="68" height="67" viewBox="0 0 68 67" fill="none" xmlns="http://www.w3.org/2000/svg">
<path d="M27.9195 21.2356C27.091 21.2356 26.4195 21.9071 26.4195 22.7356C26.4195 23.564 27.091 24.2356 27.9195 24.2356V21.2356ZM48.655 24.2356C49.4835 24.2356 50.155 23.564 50.155 22.7356C50.155 21.9071 49.4835 21.2356 48.655 21.2356V24.2356ZM27.9195 28.493C27.091 28.493 26.4195 29.1646 26.4195 29.993C26.4195 30.8215 27.091 31.493 27.9195 31.493V28.493ZM48.655 31.493C49.4835 31.493 50.155 30.8215 50.155 29.993C50.155 29.1646 49.4835 28.493 48.655 28.493V31.493ZM27.9195 35.7505C27.091 35.7505 26.4195 36.422 26.4195 37.2505C26.4195 38.0789 27.091 38.7505 27.9195 38.7505V35.7505ZM42.4344 38.7505C43.2628 38.7505 43.9344 38.0789 43.9344 37.2505C43.9344 36.422 43.2628 35.7505 42.4344 35.7505V38.7505ZM11.6364 29.8745C12.2982 29.3761 12.4306 28.4357 11.9322 27.7739C11.4338 27.1122 10.4934 26.9797 9.83162 27.4781L11.6364 29.8745ZM2.85451 44.4561H4.35451L4.35451 44.4536L2.85451 44.4561ZM4.75181 52.8747L6.17044 53.3621C6.29744 52.9924 6.27511 52.5877 6.10819 52.2342L4.75181 52.8747ZM2.19097 60.3292L0.772333 59.8418L0.770254 59.848L2.19097 60.3292ZM6.65949 64.7977L6.17214 63.3791C6.16475 63.3816 6.15737 63.3842 6.15002 63.3869L6.65949 64.7977ZM14.1139 62.2368L14.7588 60.8825C14.4044 60.7138 13.9979 60.6907 13.6266 60.8182L14.1139 62.2368ZM39.6779 56.9338C40.1675 56.2655 40.0226 55.3269 39.3544 54.8373C38.6861 54.3477 37.7475 54.4925 37.2579 55.1608L39.6779 56.9338ZM50.1313 51.8914C49.3478 51.6225 48.4945 52.0396 48.2256 52.8232C47.9566 53.6068 48.3738 54.46 49.1574 54.7289L50.1313 51.8914ZM60.4579 57.0218L60.952 55.6055L60.9449 55.6031L60.4579 57.0218ZM65.7662 51.7135L64.3475 52.2005L64.3491 52.2052L65.7662 51.7135ZM63.4733 40.413C63.2044 39.6294 62.3512 39.2122 61.5676 39.4812C60.784 39.7501 60.3669 40.6034 60.6358 41.3869L63.4733 40.413ZM50.3146 54.6779C51.0586 54.3135 51.3662 53.4149 51.0017 52.671C50.6373 51.927 49.7387 51.6194 48.9948 51.9839L50.3146 54.6779ZM60.7156 40.2551C60.3537 41.0004 60.6645 41.8978 61.4098 42.2597C62.155 42.6215 63.0524 42.3107 63.4143 41.5655L60.7156 40.2551ZM27.9195 24.2356H48.655V21.2356H27.9195V24.2356ZM27.9195 31.493H48.655V28.493H27.9195V31.493ZM27.9195 38.7505H42.4344V35.7505H27.9195V38.7505ZM9.83162 27.4781C4.5028 31.4915 1.34335 37.761 1.35451 44.4586L4.35451 44.4536C4.34493 38.7098 7.05365 33.326 11.6364 29.8745L9.83162 27.4781ZM1.35451 44.4561C1.35451 47.5951 2.0689 50.7061 3.39544 53.5152L6.10819 52.2342C4.96719 49.818 4.35451 47.1438 4.35451 44.4561H1.35451ZM3.33319 52.3874L0.772346 59.8418L3.6096 60.8165L6.17044 53.3621L3.33319 52.3874ZM0.770254 59.848C0.153218 61.6697 0.609335 63.6578 1.9701 65.0186L4.09142 62.8972C3.54451 62.3503 3.35783 61.5599 3.61169 60.8104L0.770254 59.848ZM1.9701 65.0186C2.92378 65.9722 4.19631 66.4947 5.50866 66.4947V63.4947C4.99628 63.4947 4.48555 63.2914 4.09142 62.8972L1.9701 65.0186ZM5.50866 66.4947C6.0514 66.4947 6.61917 66.4071 7.16895 66.2085L6.15002 63.3869C5.95332 63.4579 5.73314 63.4947 5.50866 63.4947V66.4947ZM7.14683 66.2163L14.6013 63.6555L13.6266 60.8182L6.17214 63.3791L7.14683 66.2163ZM13.469 63.5911C16.284 64.9316 19.397 65.6341 22.5326 65.6341V62.6341C19.8415 62.6341 17.1692 62.0304 14.7588 60.8825L13.469 63.5911ZM22.5326 65.6341H22.5637V62.6341H22.5326V65.6341ZM22.5637 65.6341C29.3602 65.6341 35.6759 62.396 39.6779 56.9338L37.2579 55.1608C33.8157 59.859 28.3951 62.6341 22.5637 62.6341V65.6341ZM49.1574 54.7289L59.971 58.4406L60.9449 55.6031L50.1313 51.8914L49.1574 54.7289ZM59.9639 58.4381C60.5787 58.6526 61.2133 58.7499 61.8265 58.7499V55.7499C61.5273 55.7499 61.2288 55.7021 60.952 55.6055L59.9639 58.4381ZM61.8265 58.7499C63.3087 58.7499 64.749 58.1698 65.8316 57.0872L63.7103 54.9659C63.1963 55.4799 62.5215 55.7499 61.8265 55.7499V58.7499ZM65.8316 57.0872C67.3758 55.543 67.9017 53.2925 67.1834 51.2219L64.3491 52.2052C64.6883 53.1827 64.447 54.2292 63.7103 54.9659L65.8316 57.0872ZM67.185 51.2266L63.4733 40.413L60.6358 41.3869L64.3475 52.2005L67.185 51.2266ZM48.9948 51.9839C45.5966 53.6487 41.7783 54.5887 37.7421 54.5887V57.5887C42.249 57.5887 46.5176 56.5382 50.3146 54.6779L48.9948 51.9839ZM37.7421 54.5887C23.6306 54.5887 12.1926 43.1507 12.1926 29.0392H9.19256C9.19256 44.8076 21.9737 57.5887 37.7421 57.5887V54.5887ZM12.1926 29.0392C12.1926 14.9284 23.6298 3.5 37.7421 3.5V0.5C21.9745 0.5 9.19256 13.27 9.19256 29.0392H12.1926ZM37.7421 3.5C51.8537 3.5 63.2917 14.938 63.2917 29.0496H66.2917C66.2917 13.2811 53.5105 0.5 37.7421 0.5V3.5ZM63.2917 29.0496C63.2917 33.0661 62.3614 36.8654 60.7156 40.2551L63.4143 41.5655C65.252 37.7807 66.2917 33.5346 66.2917 29.0496H63.2917Z" fill="url(#paint0_linear_1008_1222)"/>
<defs>
<linearGradient id="paint0_linear_1008_1222" x1="11" y1="-18.1004" x2="73.3335" y2="24.6674" gradientUnits="userSpaceOnUse">
<stop stop-color="#6CE4E6"/>
<stop offset="0.327443" stop-color="#6E98DC"/>
<stop offset="0.667979" stop-color="#8B59DC"/>
<stop offset="1" stop-color="#CF30DB"/>
</linearGradient>
</defs>
</svg>
