<svg width="52" height="68" viewBox="0 0 52 68" fill="none" xmlns="http://www.w3.org/2000/svg">
<path d="M38.0013 10.0026H46.0039C48.2083 10.0026 50.0052 11.7995 50.0052 14.0039V61.9987C50.0052 64.2031 48.2083 66 46.0039 66H6.00129C3.79692 66 2 64.2031 2 61.9987V13.9935C2 11.7891 3.79692 9.99216 6.00129 9.99216H14.0039V7.99674C14.0039 6.89977 14.8919 6.00131 15.9993 6.00131H20.335C21.1603 3.67156 23.3856 2 25.9974 2C28.6092 2 30.8345 3.67156 31.6703 6.00131H36.0059C37.1028 6.00131 38.0013 6.88932 38.0013 7.99674V10.0026ZM38.0013 10.0026V12.4682H14.0039V10.0026M40.0385 52.8991H26.6765C25.6422 52.8991 24.8064 53.7349 24.8064 54.7692C24.8064 55.8035 25.6422 56.6392 26.6765 56.6392H40.0385C42.4623 56.681 42.4727 52.8678 40.0385 52.8991ZM13.3562 53.923C11.6637 52.1783 8.95786 54.8841 10.7026 56.5766C11.8935 57.5899 13.9203 60.7868 15.6964 58.9272L21.3379 53.2752C23.0826 51.5828 20.3872 48.8769 18.6843 50.6216L14.3696 54.9468L13.3562 53.923ZM40.0385 37.1237H26.6765C25.6422 37.1237 24.8064 37.9595 24.8064 38.9938C24.8064 40.0281 25.6422 40.8639 26.6765 40.8639H40.0385C42.4623 40.9057 42.4727 37.0819 40.0385 37.1237ZM13.3562 38.1476C11.6637 36.4029 8.95786 39.1087 10.7026 40.8012C11.8935 41.8146 13.9203 45.0114 15.6964 43.1518L21.3379 37.4998C23.0826 35.8074 20.3872 33.1015 18.6843 34.8462L14.3696 39.1714L13.3562 38.1476ZM40.0385 21.3484H26.6765C25.6422 21.3484 24.8064 22.1841 24.8064 23.2184C24.8064 24.2527 25.6422 25.0885 26.6765 25.0885H40.0385C42.4623 25.1303 42.4727 21.3066 40.0385 21.3484ZM13.3562 22.3722C11.6637 20.6275 8.95786 23.3333 10.7026 25.0258C11.8935 26.0392 13.9203 29.236 15.6964 27.3764L21.3379 21.7245C23.0826 20.032 20.3872 17.3262 18.6843 19.0708L14.3696 23.396L13.3562 22.3722Z" stroke="url(#paint0_linear_1008_1218)" stroke-width="3" stroke-miterlimit="10" stroke-linecap="round" stroke-linejoin="round"/>
<defs>
<linearGradient id="paint0_linear_1008_1218" x1="8.75073" y1="-18.4212" x2="63.474" y2="9.29926" gradientUnits="userSpaceOnUse">
<stop stop-color="#6CE4E6"/>
<stop offset="0.327443" stop-color="#6E98DC"/>
<stop offset="0.667979" stop-color="#8B59DC"/>
<stop offset="1" stop-color="#CF30DB"/>
</linearGradient>
</defs>
</svg>
