<svg width="61" height="68" viewBox="0 0 61 68" fill="none" xmlns="http://www.w3.org/2000/svg">
<path d="M35.5643 60.2778C41.5038 59.1292 46.7397 56.0146 50.558 51.6375C48.4264 50.0957 47.7538 47.1673 49.1093 44.8391C50.4545 42.4902 53.3415 41.6107 55.7421 42.7075C56.6941 39.9757 57.2011 37.0474 57.2011 33.9948C57.2011 30.9216 56.6838 27.9725 55.7214 25.22C53.3208 26.3169 50.4338 25.4477 49.0783 23.1091C47.7124 20.7809 48.3643 17.8422 50.5062 16.2901C46.6983 11.9441 41.4831 8.83977 35.5643 7.69119C35.3056 10.3298 33.0912 12.3787 30.3905 12.3787C27.7001 12.3787 25.4857 10.3298 25.227 7.69119C19.2771 8.83977 14.0412 11.9544 10.223 16.3418C12.3649 17.8836 13.0375 20.8223 11.682 23.1609C10.3368 25.4994 7.43947 26.379 5.03882 25.2821C4.09719 28.0139 3.59016 30.9423 3.59016 33.9845C3.59016 37.0681 4.10754 40.0275 5.06986 42.7696C7.47051 41.6728 10.3575 42.542 11.713 44.8805C13.0789 47.1984 12.427 50.1475 10.2954 51.6996C14.1137 56.0352 19.3185 59.1395 25.227 60.2778M35.5643 60.2778C35.2952 57.6495 33.0912 55.611 30.3905 55.611C27.7001 55.611 25.4961 57.6495 25.227 60.2778M35.5643 60.2778C35.585 60.4433 35.5953 60.6296 35.5953 60.8055C35.5953 63.6718 33.2671 66 30.3905 66C27.5242 66 25.196 63.6718 25.196 60.8055C25.196 60.6296 25.2063 60.4433 25.227 60.2778M41.8246 27.393V40.5863L30.4008 47.188M41.8246 27.393L30.4008 20.7913L18.977 27.393M41.8246 27.393L30.4008 33.9948M18.977 27.393V40.5863L30.4008 47.188M18.977 27.393L30.4008 33.9948M30.4008 47.188V33.9948M35.5953 7.1945C35.5953 7.37041 35.585 7.53597 35.5643 7.70154C35.3056 10.3402 33.0912 12.389 30.3905 12.389C27.7001 12.389 25.4857 10.3402 25.227 7.70154C25.2063 7.53597 25.196 7.37041 25.196 7.1945C25.196 4.32821 27.5242 2 30.3905 2C33.2671 2 35.5953 4.32821 35.5953 7.1945ZM11.6923 23.1712C10.3471 25.5098 7.44981 26.3893 5.04916 25.2925C4.89394 25.22 4.74908 25.158 4.59386 25.0648C2.11043 23.6265 1.26194 20.4395 2.70026 17.9664C4.12823 15.4829 7.3153 14.6448 9.79873 16.0728C9.94359 16.1659 10.0885 16.259 10.2333 16.3625C12.3856 17.8939 13.0479 20.843 11.6923 23.1712ZM58.091 50.0336C56.6631 52.5171 53.476 53.3552 50.9926 51.9272C50.8373 51.8341 50.6925 51.741 50.5476 51.6375C48.4057 50.0957 47.7434 47.1673 49.099 44.8391C50.4441 42.4902 53.3311 41.6107 55.7318 42.7075C55.887 42.78 56.0422 42.8524 56.1974 42.9455C58.6808 44.3735 59.5397 47.5502 58.091 50.0336ZM10.3057 51.6996C10.1712 51.7927 10.0264 51.8962 9.86081 51.9893C7.37738 53.4277 4.20066 52.5998 2.76234 50.1164C1.31368 47.633 2.15184 44.4563 4.62492 43.0179C4.76978 42.9248 4.925 42.8524 5.09056 42.78C7.4912 41.6831 10.3782 42.5523 11.7337 44.8909C13.0893 47.1984 12.427 50.1578 10.3057 51.6996ZM56.1767 24.9924C56.0319 25.0855 55.8766 25.158 55.7111 25.2304C53.3104 26.3272 50.4235 25.458 49.0679 23.1195C47.702 20.7913 48.3643 17.8525 50.4959 16.3004C50.6304 16.2073 50.7856 16.1038 50.9305 16.0107C53.4139 14.5724 56.5906 15.4105 58.029 17.8836C59.4983 20.367 58.6498 23.5437 56.1767 24.9924Z" stroke="url(#paint0_linear_1008_1217)" stroke-width="3" stroke-miterlimit="10" stroke-linecap="round" stroke-linejoin="round"/>
<defs>
<linearGradient id="paint0_linear_1008_1217" x1="9.98692" y1="-18.4212" x2="69.8447" y2="17.4526" gradientUnits="userSpaceOnUse">
<stop stop-color="#6CE4E6"/>
<stop offset="0.327443" stop-color="#6E98DC"/>
<stop offset="0.667979" stop-color="#8B59DC"/>
<stop offset="1" stop-color="#CF30DB"/>
</linearGradient>
</defs>
</svg>
