<svg width="75" height="74" viewBox="0 0 75 74" fill="none" xmlns="http://www.w3.org/2000/svg">
<path d="M7.66129 66.8387H10.0484V69.2258H7.66129V66.8387ZM12.4355 69.2258H14.8226V66.8387H12.4355V69.2258ZM17.2097 69.2258H19.5968V66.8387H17.2097V69.2258ZM72.1129 62.0645H74.5V68.0323C74.5 71.3227 71.8227 74 68.5323 74H6.46774C3.17733 74 0.5 71.3227 0.5 68.0323V62.0645H2.8871V22.6774C2.8871 19.387 5.56442 16.7097 8.85484 16.7097H22.0445C22.0136 16.3145 21.9839 15.9194 21.9839 15.5161C21.9839 6.96081 28.9447 0 37.5 0C46.0553 0 53.0161 6.96081 53.0161 15.5161C53.0161 15.9194 52.9864 16.3145 52.9555 16.7097H66.1452C69.4356 16.7097 72.1129 19.387 72.1129 22.6774V62.0645ZM52.5831 19.0968C52.3885 19.9179 52.1402 20.7187 51.8191 21.4839H64.9516C66.2681 21.4839 67.3387 22.5545 67.3387 23.871V62.0645H69.7258V22.6774C69.7258 20.7035 68.1191 19.0968 66.1452 19.0968H52.5831ZM26.7581 65.6452C26.7581 66.3037 27.2931 66.8387 27.9516 66.8387H47.0484C47.7069 66.8387 48.2419 66.3037 48.2419 65.6452V64.4516H26.7581V65.6452ZM64.9516 62.0645V23.871H50.5539C50.0707 24.6228 49.5229 25.3274 48.9209 25.9824L52.5039 29.5642L50.6861 32.6279C50.7112 32.6868 50.7351 32.7451 50.759 32.8022L54.2097 33.6869V42.7014L50.7567 43.5838C50.7328 43.642 50.7089 43.7003 50.6838 43.758L52.5015 46.8217L46.127 53.1962L43.0633 51.3785C43.0044 51.4036 42.9461 51.4275 42.889 51.4514L42.0067 54.9032H32.9921L32.1098 51.4502C32.0515 51.4263 31.9932 51.4024 31.9355 51.3774L28.8718 53.1951L22.4973 46.8205L24.315 43.7568C24.29 43.698 24.2661 43.6397 24.2422 43.5826L20.7903 42.7002V33.6857L24.2433 32.8033C24.2672 32.7451 24.2911 32.6868 24.3162 32.6291L22.4985 29.5654L26.0814 25.9836C25.48 25.3274 24.931 24.6239 24.4485 23.8721H10.0484V62.0657H64.9516V62.0645ZM37.5 31.0323C33.5505 31.0323 30.3387 34.244 30.3387 38.1936C30.3387 42.1431 33.5505 45.3548 37.5 45.3548C41.4496 45.3548 44.6613 42.1431 44.6613 38.1936C44.6613 34.244 41.4496 31.0323 37.5 31.0323ZM32.3808 30.1464C30.7123 29.5607 29.1714 28.7058 27.817 27.6212L25.4952 29.9424L27.0087 32.4933L26.7342 33.0674C26.5588 33.4374 26.4002 33.8157 26.2627 34.205L26.0488 34.8064L23.1774 35.539V40.847L26.0506 41.5795L26.2639 42.181C26.4002 42.5703 26.5588 42.9497 26.7353 43.3186L27.0098 43.8926L25.4963 46.4435L29.2489 50.1961L31.7998 48.6826L32.3738 48.9571C32.7439 49.1325 33.1221 49.291 33.5114 49.4285L34.1128 49.6418L34.8454 52.5161H40.1534L40.886 49.643L41.4874 49.4297C41.8767 49.2933 42.2561 49.1348 42.625 48.9582L43.1991 48.6837L45.7499 50.1972L49.5025 46.4447L47.989 43.8938L48.2635 43.3197C48.4389 42.9497 48.5974 42.5714 48.735 42.1821L48.9483 41.5807L51.8226 40.8481V35.5401L48.9494 34.8076L48.7361 34.2061C48.5998 33.8168 48.4412 33.4374 48.2647 33.0685L47.9902 32.4945L49.5037 29.9436L47.1818 27.6224C45.8274 28.7069 44.2877 29.5631 42.618 30.1476C45.2773 31.8441 47.0484 34.8122 47.0484 38.1936C47.0484 43.4585 42.7649 47.7419 37.5 47.7419C32.2351 47.7419 27.9516 43.4585 27.9516 38.1936C27.9516 34.8122 29.7227 31.8441 32.3808 30.1464ZM24.371 15.5161C24.371 22.7549 30.2612 28.6452 37.5 28.6452C44.7388 28.6452 50.629 22.7549 50.629 15.5161C50.629 8.27733 44.7388 2.3871 37.5 2.3871C30.2612 2.3871 24.371 8.27733 24.371 15.5161ZM5.27419 62.0645H7.66129V23.871C7.66129 22.5545 8.73187 21.4839 10.0484 21.4839H23.1809C22.861 20.7187 22.6127 19.9179 22.4169 19.0968H8.85484C6.88094 19.0968 5.27419 20.7035 5.27419 22.6774V62.0645ZM72.1129 64.4516H50.629V65.6452C50.629 67.6191 49.0223 69.2258 47.0484 69.2258H27.9516C25.9777 69.2258 24.371 67.6191 24.371 65.6452V64.4516H2.8871V68.0323C2.8871 70.0062 4.49384 71.6129 6.46774 71.6129H68.5323C70.5062 71.6129 72.1129 70.0062 72.1129 68.0323V64.4516ZM32.7258 38.1936C32.7258 35.5605 34.867 33.4194 37.5 33.4194C40.133 33.4194 42.2742 35.5605 42.2742 38.1936C42.2742 40.8266 40.133 42.9677 37.5 42.9677C34.867 42.9677 32.7258 40.8266 32.7258 38.1936ZM35.1129 38.1936C35.1129 39.5101 36.1835 40.5806 37.5 40.5806C38.8165 40.5806 39.8871 39.5101 39.8871 38.1936C39.8871 36.877 38.8165 35.8065 37.5 35.8065C36.1835 35.8065 35.1129 36.877 35.1129 38.1936ZM37.5 21.4839C36.1835 21.4839 35.1129 20.4133 35.1129 19.0968H32.7258C32.7258 21.3154 34.2521 23.1681 36.3065 23.7014V26.2581H38.6936V23.7014C40.7479 23.1681 42.2742 21.3154 42.2742 19.0968C42.2742 16.4637 40.133 14.3226 37.5 14.3226C36.1835 14.3226 35.1129 13.252 35.1129 11.9355C35.1129 10.619 36.1835 9.54839 37.5 9.54839C38.8165 9.54839 39.8871 10.619 39.8871 11.9355H42.2742C42.2742 9.71681 40.7479 7.86413 38.6936 7.33088V4.77419H36.3065V7.33088C34.2521 7.86413 32.7258 9.71681 32.7258 11.9355C32.7258 14.5685 34.867 16.7097 37.5 16.7097C38.8165 16.7097 39.8871 17.7803 39.8871 19.0968C39.8871 20.4133 38.8165 21.4839 37.5 21.4839Z" fill="url(#paint0_linear_1011_1388)"/>
<defs>
<linearGradient id="paint0_linear_1011_1388" x1="10.9063" y1="-23.612" x2="83.7056" y2="25.552" gradientUnits="userSpaceOnUse">
<stop stop-color="#6CE4E6"/>
<stop offset="0.327443" stop-color="#6E98DC"/>
<stop offset="0.667979" stop-color="#8B59DC"/>
<stop offset="1" stop-color="#CF30DB"/>
</linearGradient>
</defs>
</svg>
