<svg width="58" height="68" viewBox="0 0 58 68" fill="none" xmlns="http://www.w3.org/2000/svg">
<path d="M18.5565 33.8996L25.5172 40.8602L39.2298 27.1476M55.7183 18.4755V18.4233C55.687 16.7118 55.6557 15.1047 55.6557 13.5393C55.6557 12.2975 54.6539 11.2957 53.412 11.2957C43.832 11.2957 36.5374 8.54062 30.4533 2.63397C29.5871 1.78868 28.1992 1.78868 27.333 2.63397C21.2489 8.55106 13.9648 11.2957 4.37429 11.2957C3.13243 11.2957 2.13059 12.2975 2.13059 13.5393C2.13059 15.1151 2.09929 16.7536 2.06798 18.4755C1.76535 34.557 1.33749 56.5765 28.1574 65.8747C28.3975 65.9582 28.6479 66 28.8879 66C29.1384 66 29.3888 65.9582 29.6184 65.8747C56.4384 56.5869 56.0209 34.557 55.7183 18.4755Z" stroke="url(#paint0_linear_1008_1220)" stroke-width="3" stroke-miterlimit="10" stroke-linecap="round" stroke-linejoin="round"/>
<defs>
<linearGradient id="paint0_linear_1008_1220" x1="9.56365" y1="-18.4212" x2="67.8382" y2="14.6529" gradientUnits="userSpaceOnUse">
<stop stop-color="#6CE4E6"/>
<stop offset="0.327443" stop-color="#6E98DC"/>
<stop offset="0.667979" stop-color="#8B59DC"/>
<stop offset="1" stop-color="#CF30DB"/>
</linearGradient>
</defs>
</svg>
