<svg width="68" height="67" viewBox="0 0 68 67" fill="none" xmlns="http://www.w3.org/2000/svg">
<path d="M9.49081 26.504C9.49081 12.9705 20.4613 2 33.9948 2C47.5282 2 58.4988 12.9705 58.4988 26.504M58.5092 30.6296V52.0185C58.5092 56.686 54.7273 60.4782 50.0495 60.4782H42.3087M9.49081 25.4101H17.8359V45.8717H9.49081V25.4101ZM50.1641 25.4101H58.5092V45.8717H50.1641V25.4101ZM9.49081 28.1501V43.1421C5.35472 43.1421 2 39.7874 2 35.6513C2 31.5048 5.35472 28.1501 9.49081 28.1501ZM58.5092 28.1501V43.1421C62.6453 43.1421 66 39.7874 66 35.6513C65.9896 31.5048 62.6453 28.1501 58.5092 28.1501ZM42.2982 60.4783C42.2982 62.9682 40.2771 64.979 37.7975 64.979H34.3803C31.8903 64.979 29.8795 62.9578 29.8795 60.4783C29.8795 57.9883 31.9007 55.9775 34.3803 55.9775H37.7975C40.2875 55.9671 42.2982 57.9883 42.2982 60.4783Z" stroke="url(#paint0_linear_1008_1221)" stroke-width="3" stroke-miterlimit="10" stroke-linecap="round" stroke-linejoin="round"/>
<defs>
<linearGradient id="paint0_linear_1008_1221" x1="11" y1="-18.0954" x2="73.3236" y2="24.6763" gradientUnits="userSpaceOnUse">
<stop stop-color="#6CE4E6"/>
<stop offset="0.327443" stop-color="#6E98DC"/>
<stop offset="0.667979" stop-color="#8B59DC"/>
<stop offset="1" stop-color="#CF30DB"/>
</linearGradient>
</defs>
</svg>
