<svg width="65" height="66" viewBox="0 0 65 66" fill="none" xmlns="http://www.w3.org/2000/svg">
<path d="M1 65H64M49.3776 7.12704L59.993 2.08373M59.993 2.08373C41.6783 37.8663 4.63983 42.076 4.63983 42.076M59.993 2.08373L61.6503 12.1287M52.9546 21.6944C52.535 21.6944 52.1364 21.8611 51.8427 22.1529C51.549 22.4446 51.3811 22.8406 51.3811 23.2574V61.8117H60.8217V23.2574C60.8217 22.8406 60.6539 22.4446 60.3602 22.1529C60.0665 21.8611 59.6679 21.6944 59.2483 21.6944H52.9546ZM36.1084 34.6569C36.4021 34.3652 36.8007 34.1985 37.2203 34.1985H43.514C43.9336 34.1985 44.3322 34.3652 44.6259 34.6569C44.9196 34.9487 45.0874 35.3447 45.0874 35.7615V61.8117H35.6469V35.7615C35.6469 35.3447 35.8147 34.9487 36.1084 34.6569ZM21.486 42.5345C21.0665 42.5345 20.6679 42.7012 20.3742 42.993C20.0804 43.2848 19.9126 43.6807 19.9126 44.0975V61.8117H29.3532V44.0975C29.3532 43.6807 29.1853 43.2848 28.8916 42.993C28.5979 42.7012 28.1993 42.5345 27.7798 42.5345H21.486ZM5.75178 46.7025C5.3322 46.7025 4.9336 46.8693 4.63989 47.161C4.34618 47.4528 4.17835 47.8488 4.17835 48.2656V61.8117H13.6189V48.2656C13.6189 47.8488 13.4511 47.4528 13.1574 47.161C12.8637 46.8693 12.4651 46.7025 12.0455 46.7025H5.75178ZM32.8881 11.9307C32.7622 11.7848 32.5839 11.691 32.3951 11.6702L30.2657 11.4097L29.5524 9.71118L30.8741 8.04397C30.9895 7.89809 31.0524 7.70011 31.0419 7.51255C31.0314 7.32498 30.9475 7.13742 30.8112 7.00196L27.0349 3.26116C26.8986 3.12569 26.7202 3.04233 26.5314 3.03191C26.3426 3.02149 26.1538 3.07359 25.9965 3.19864L24.3077 4.50114L22.5874 3.79258L22.3251 1.68773C22.3042 1.50016 22.2098 1.32302 22.0629 1.19798C21.9161 1.07294 21.7377 1 21.5384 1H16.1888C16 1 15.8112 1.07294 15.6643 1.19798C15.5175 1.32302 15.423 1.50016 15.4021 1.68773L15.1398 3.79258L13.4196 4.50114L11.7307 3.19864C11.5839 3.08401 11.3951 3.02149 11.1958 3.03191C11.007 3.04233 10.8286 3.12569 10.6923 3.26116L6.91605 7.00196C6.77969 7.13742 6.69577 7.31456 6.68528 7.51255C6.67479 7.71053 6.72724 7.88767 6.85312 8.04397L8.17479 9.71118L7.46151 11.4097L5.33214 11.6702C5.14333 11.691 4.965 11.7848 4.83913 11.9307C4.71326 12.0765 4.63983 12.2537 4.63983 12.4517V17.7451C4.63983 17.9326 4.71326 18.1202 4.83913 18.2661C4.965 18.4119 5.14333 18.5057 5.33214 18.5266L7.46151 18.7871L8.17479 20.4855L6.85312 22.1319C6.73773 22.2778 6.67479 22.4758 6.68528 22.6633C6.69577 22.8613 6.77969 23.0385 6.91605 23.1739L10.6923 26.9147C10.8286 27.0502 11.007 27.1335 11.1958 27.144C11.3846 27.1544 11.5734 27.1023 11.7307 26.9772L13.4196 25.6747L15.1398 26.3833L15.4021 28.4882C15.423 28.6757 15.5175 28.8529 15.6643 28.9779C15.8112 29.1029 15.9895 29.1759 16.1888 29.1759H21.5384C21.7272 29.1759 21.9161 29.1029 22.0629 28.9779C22.2098 28.8529 22.3042 28.6757 22.3251 28.4882L22.5874 26.3833L24.3077 25.6747L25.9965 26.9772C26.1433 27.0919 26.3321 27.1544 26.5314 27.144C26.7202 27.1335 26.8986 27.0502 27.0349 26.9147L30.8112 23.1739C30.9475 23.0385 31.0314 22.8613 31.0419 22.6633C31.0524 22.4758 31 22.2882 30.8741 22.1319L29.5524 20.4647L30.2657 18.7662L32.3951 18.5057C32.5839 18.4849 32.7622 18.3911 32.8881 18.2452C33.014 18.0993 33.0874 17.9222 33.0874 17.7242V12.4412C33.0874 12.2537 33.014 12.0661 32.8881 11.9307ZM23.5 16.9844C23.2482 17.5888 22.8811 18.1306 22.4091 18.5891C21.465 19.5165 20.1958 20.0375 18.8636 20.0375C17.5314 20.0375 16.2622 19.5165 15.3182 18.5891C14.8566 18.1306 14.4895 17.5888 14.2377 16.9844C13.986 16.38 13.8601 15.734 13.8601 15.0879C13.8601 14.4419 13.986 13.7958 14.2377 13.1915C14.4895 12.5871 14.8566 12.0453 15.3182 11.5868C15.7797 11.1283 16.3356 10.7636 16.944 10.5135C17.5524 10.2634 18.2028 10.1384 18.8636 10.1384C21.486 10.055 23.9615 12.4308 23.8776 15.0879C23.8776 15.7444 23.7517 16.3904 23.5 16.9844Z" stroke="url(#paint0_linear_1008_1212)" stroke-width="2" stroke-miterlimit="10" stroke-linecap="round" stroke-linejoin="round"/>
<defs>
<linearGradient id="paint0_linear_1008_1212" x1="9.85938" y1="-19.4212" x2="72.445" y2="22.1847" gradientUnits="userSpaceOnUse">
<stop stop-color="#6CE4E6"/>
<stop offset="0.327443" stop-color="#6E98DC"/>
<stop offset="0.667979" stop-color="#8B59DC"/>
<stop offset="1" stop-color="#CF30DB"/>
</linearGradient>
</defs>
</svg>
