<svg width="66" height="63" viewBox="0 0 66 63" fill="none" xmlns="http://www.w3.org/2000/svg">
<path d="M5.4173 32.3784L6.41729 32.374C6.41487 31.8235 5.96787 31.3784 5.4173 31.3784V32.3784ZM1 32.3784L0.168223 31.8233C-0.036548 32.1301 -0.0557714 32.5248 0.118209 32.85C0.29219 33.1753 0.631116 33.3784 1 33.3784L1 32.3784ZM7.62596 22.4501L8.45773 21.895C8.27223 21.617 7.96014 21.4501 7.62596 21.4501C7.29178 21.4501 6.97969 21.617 6.79418 21.895L7.62596 22.4501ZM14.2519 32.3784V33.3784C14.6208 33.3784 14.9598 33.1753 15.1337 32.85C15.3077 32.5248 15.2885 32.1301 15.0837 31.8233L14.2519 32.3784ZM10.397 32.3784V31.3784C10.1309 31.3784 9.87575 31.4845 9.68807 31.6732C9.50038 31.8618 9.39565 32.1175 9.39705 32.3837L10.397 32.3784ZM38.4845 17.3838C37.943 17.2755 37.4162 17.6268 37.3079 18.1684C37.1997 18.71 37.5509 19.2367 38.0925 19.345L38.4845 17.3838ZM22.386 37.1764C22.1907 36.6598 21.6136 36.3993 21.097 36.5946C20.5804 36.7899 20.3199 37.367 20.5151 37.8836L22.386 37.1764ZM14.5177 11.6394C14.1262 11.2498 13.4931 11.2514 13.1035 11.6428C12.7139 12.0343 12.7154 12.6675 13.1069 13.057L14.5177 11.6394ZM16.522 15.0448L15.8166 15.7536C16.207 16.1422 16.8381 16.1418 17.2281 15.7529L16.522 15.0448ZM23.5474 9.45061C23.9384 9.06061 23.9393 8.42745 23.5493 8.0364C23.1593 7.64535 22.5261 7.6445 22.135 8.0345L23.5474 9.45061ZM38.2997 26.5359C38.2997 25.9836 37.852 25.5359 37.2997 25.5359C36.7474 25.5359 36.2997 25.9836 36.2997 26.5359H38.2997ZM37.2997 33.6859L38.0065 34.3934L38.2997 34.1004V33.6859H37.2997ZM31.9916 37.5749C31.6009 37.9652 31.6006 38.5984 31.9909 38.9891C32.3812 39.3798 33.0144 39.3802 33.4051 38.9898L31.9916 37.5749ZM64 32.2354C64 48.0966 51.0843 61 35.2035 61V63C52.1868 63 66 49.2031 66 32.2354H64ZM35.2035 61C19.3725 61 6.48645 48.1657 6.41729 32.374L4.4173 32.3828C4.4913 49.277 18.2727 63 35.2035 63V61ZM5.4173 31.3784H1V33.3784H5.4173V31.3784ZM1.83178 32.9335L8.45774 23.0052L6.79418 21.895L0.168223 31.8233L1.83178 32.9335ZM6.79418 23.0052L13.4202 32.9335L15.0837 31.8233L8.45773 21.895L6.79418 23.0052ZM14.2519 31.3784H10.397V33.3784H14.2519V31.3784ZM9.39705 32.3837C9.47152 46.5502 21.0236 58.046 35.224 58.046V56.046C22.1229 56.046 11.4657 45.438 11.397 32.3731L9.39705 32.3837ZM35.224 58.046C49.4672 58.046 61.051 46.4757 61.051 32.2354H59.051C59.051 45.3696 48.3641 56.046 35.224 56.046V58.046ZM61.051 32.2354C61.051 18.0051 49.4669 6.43498 35.224 6.43498V8.43498C48.3644 8.43498 59.051 19.1117 59.051 32.2354H61.051ZM35.224 6.43498C34.4051 6.43498 33.7392 5.76831 33.7392 4.95289H31.7392C31.7392 6.87492 33.3025 8.43498 35.224 8.43498V6.43498ZM33.7392 4.95289C33.7392 4.13747 34.4051 3.47081 35.224 3.47081V1.47081C33.3025 1.47081 31.7392 3.03086 31.7392 4.95289H33.7392ZM35.224 3.47081C51.0836 3.47081 64 16.3838 64 32.2354H66C66 15.2785 52.1875 1.47081 35.224 1.47081V3.47081ZM28.232 11.8987C28.232 17.3646 23.796 21.7974 18.3217 21.7974V23.7974C24.8986 23.7974 30.232 18.4712 30.232 11.8987H28.232ZM18.3217 21.7974C12.8473 21.7974 8.41127 17.3646 8.41127 11.8987H6.41127C6.41127 18.4712 11.7447 23.7974 18.3217 23.7974V21.7974ZM8.41127 11.8987C8.41127 6.43281 12.8473 2 18.3217 2V0C11.7447 0 6.41127 5.32622 6.41127 11.8987H8.41127ZM18.3217 2C23.796 2 28.232 6.43281 28.232 11.8987H30.232C30.232 5.32623 24.8986 0 18.3217 0V2ZM38.0925 19.345C44.381 20.6019 49.0813 26.0341 49.0813 32.52H51.0813C51.0813 25.0328 45.6602 18.8181 38.4845 17.3838L38.0925 19.345ZM49.0813 32.52C49.0813 39.9217 42.9347 45.9646 35.3112 45.9646V47.9646C43.997 47.9646 51.0813 41.0681 51.0813 32.52H49.0813ZM35.3112 45.9646C29.3701 45.9646 24.323 42.301 22.386 37.1764L20.5151 37.8836C22.7449 43.7825 28.5344 47.9646 35.3112 47.9646V45.9646ZM13.1069 13.057L15.8166 15.7536L17.2274 14.336L14.5177 11.6394L13.1069 13.057ZM17.2281 15.7529L23.5474 9.45061L22.135 8.0345L15.8158 14.3367L17.2281 15.7529ZM36.2997 26.5359V33.6859H38.2997V26.5359H36.2997ZM36.593 32.9784L31.9916 37.5749L33.4051 38.9898L38.0065 34.3934L36.593 32.9784Z" fill="url(#paint0_linear_1008_1214)"/>
<defs>
<linearGradient id="paint0_linear_1008_1214" x1="10" y1="-18.4639" x2="71.035" y2="24.7823" gradientUnits="userSpaceOnUse">
<stop stop-color="#6CE4E6"/>
<stop offset="0.327443" stop-color="#6E98DC"/>
<stop offset="0.667979" stop-color="#8B59DC"/>
<stop offset="1" stop-color="#CF30DB"/>
</linearGradient>
</defs>
</svg>
