<svg width="66" height="55" viewBox="0 0 66 55" fill="none" xmlns="http://www.w3.org/2000/svg">
<path fill-rule="evenodd" clip-rule="evenodd" d="M54.6403 1.84L64.6403 15.84L65.0003 16.92C65.0403 21.36 61.4403 25 57.0003 25C54.6003 25 52.4803 23.96 51.0003 22.28C49.5203 23.96 47.4003 25 45.0003 25C42.6003 25 40.4803 23.96 39.0003 22.28C37.5203 23.96 35.4003 25 33.0003 25C30.6003 25 28.4803 23.96 27.0003 22.28C25.5203 23.96 23.4003 25 21.0003 25C18.6003 25 16.4803 23.96 15.0003 22.28C13.5203 23.96 11.4003 25 9.00033 25C4.56033 25 0.96033 21.36 1.00033 16.92L1.36032 15.84L11.3603 1.84C11.7603 1.32 12.3603 1 13.0003 1H53.0003C53.6403 1 54.2403 1.32 54.6403 1.84ZM51.0003 27.39C52.8103 28.44 54.8803 29.01 57.0003 29.01C58.3903 29.01 59.7303 28.73 61.0003 28.28V49.01C61.0003 51.22 59.2103 53.01 57.0003 53.01H53.0003V33.01H41.0003V53.01H9.00033C6.79033 53.01 5.00033 51.22 5.00033 49.01V28.23C8.28033 29.36 12.0003 29.14 15.0003 27.39C18.6103 29.48 23.3903 29.48 27.0003 27.39C30.6103 29.48 35.3803 29.48 39.0003 27.39C42.6203 29.49 47.3903 29.49 51.0003 27.39ZM13.0003 45.01H29.0003V33.01H13.0003V45.01Z" stroke="url(#paint0_linear_1008_1211)" stroke-width="2" stroke-miterlimit="10" stroke-linecap="round" stroke-linejoin="round"/>
<defs>
<linearGradient id="paint0_linear_1008_1211" x1="10.0001" y1="-15.5954" x2="64.2278" y2="29.4695" gradientUnits="userSpaceOnUse">
<stop stop-color="#6CE4E6"/>
<stop offset="0.327443" stop-color="#6E98DC"/>
<stop offset="0.667979" stop-color="#8B59DC"/>
<stop offset="1" stop-color="#CF30DB"/>
</linearGradient>
</defs>
</svg>
